<?xml version="1.0" encoding="UTF-8" standalone="no"?>
<!-- Created with Inkscape (http://www.inkscape.org/) -->

<svg
   width="210mm"
   height="297mm"
   viewBox="0 0 210 297"
   version="1.1"
   id="svg5"
   inkscape:version="1.1 (c68e22c387, 2021-05-23)"
   sodipodi:docname="plus street.svg"
   xmlns:inkscape="http://www.inkscape.org/namespaces/inkscape"
   xmlns:sodipodi="http://sodipodi.sourceforge.net/DTD/sodipodi-0.dtd"
   xmlns="http://www.w3.org/2000/svg"
   xmlns:svg="http://www.w3.org/2000/svg">
  <sodipodi:namedview
     id="namedview7"
     pagecolor="#505050"
     bordercolor="#eeeeee"
     borderopacity="1"
     inkscape:pageshadow="0"
     inkscape:pageopacity="0"
     inkscape:pagecheckerboard="0"
     inkscape:document-units="mm"
     showgrid="false"
     showguides="false"
     inkscape:zoom="0.69977474"
     inkscape:cx="356.54331"
     inkscape:cy="581.61573"
     inkscape:window-width="1735"
     inkscape:window-height="1022"
     inkscape:window-x="0"
     inkscape:window-y="0"
     inkscape:window-maximized="1"
     inkscape:current-layer="g142034" />
  <defs
     id="defs2">
    <inkscape:path-effect
       effect="perspective-envelope"
       up_left_point="118.93089,25.1"
       up_right_point="126.53424,27.5"
       down_left_point="118.93089,286.77571"
       down_right_point="126.53424,284.38"
       id="path-effect142030"
       is_visible="true"
       lpeversion="1"
       deform_type="perspective"
       horizontal_mirror="false"
       vertical_mirror="false"
       overflow_perspective="false" />
    <inkscape:path-effect
       effect="perspective-envelope"
       up_left_point="111.52256,27.5"
       up_right_point="119.1259,25.1"
       down_left_point="111.52256,284.38"
       down_right_point="119.1259,286.77571"
       id="path-effect142028"
       is_visible="true"
       lpeversion="1"
       deform_type="perspective"
       horizontal_mirror="false"
       vertical_mirror="false"
       overflow_perspective="false" />
    <inkscape:path-effect
       effect="perspective-envelope"
       up_left_point="106.1,19.86"
       up_right_point="112.75702,22.46"
       down_left_point="106.1035,289.40952"
       down_right_point="112.75702,289.40952"
       id="path-effect141780"
       is_visible="true"
       lpeversion="1"
       deform_type="perspective"
       horizontal_mirror="false"
       vertical_mirror="false"
       overflow_perspective="false" />
    <inkscape:path-effect
       effect="perspective-envelope"
       up_left_point="6.5640106,49.79"
       up_right_point="203.43599,27.99"
       down_left_point="6.5640106,100.2"
       down_right_point="203.43599,126.8"
       id="path-effect136738"
       is_visible="true"
       lpeversion="1"
       deform_type="perspective"
       horizontal_mirror="false"
       vertical_mirror="false"
       overflow_perspective="false" />
    <inkscape:path-effect
       effect="perspective-envelope"
       up_left_point="6.5640106,106.57"
       up_right_point="203.44,133.17"
       down_left_point="6.5640106,211.38"
       down_right_point="203.43599,179.48"
       id="path-effect136736"
       is_visible="true"
       lpeversion="1"
       deform_type="perspective"
       horizontal_mirror="false"
       vertical_mirror="false"
       overflow_perspective="false" />
  </defs>
  <g
     inkscape:label="Layer 1"
     inkscape:groupmode="layer"
     id="layer1">
    <g
       id="g142034"
       transform="translate(-14.0284,1.0583333)">
      <path
         style="fill:#333333;stroke-width:0.264583"
         id="rect141854"
         width="7.603343"
         height="261.6738"
         x="118.93089"
         y="25.101913"
         inkscape:path-effect="#path-effect142030"
         d="m 118.93089,25.1 7.60335,2.4 v 256.88 l -7.60335,2.39571 z"
         sodipodi:type="rect" />
      <path
         style="fill:#4d4d4d;stroke-width:0.264583"
         id="rect141856"
         width="7.603343"
         height="261.6738"
         x="111.52256"
         y="25.101913"
         inkscape:path-effect="#path-effect142028"
         d="m 111.52256,27.5 7.60334,-2.4 V 286.77571 L 111.52256,284.38 Z"
         sodipodi:type="rect" />
    </g>
    <g
       id="g136734"
       inkscape:path-effect="#path-effect136736">
      <g
         id="g136484">
        <g
           id="g28779"
           transform="translate(0,7.1213508)">
        </g>
      </g>
    </g>
    <g
       id="g136494"
       inkscape:path-effect="#path-effect136738">
      <g
         id="g136717">
        <g
           id="g28610"
           transform="translate(0,-72.253689)">
          <path
             style="color:#000000;fill:#f2f2f2;stroke-width:0.291452;-inkscape-stroke:none"
             d="M 8.9319632,121.78148 194.63881,101.21782 c 4.82548,-0.53434 8.79718,1.8535 8.79718,5.36586 v 86.13002 c 0,3.51235 -3.9717,5.80336 -8.79718,5.15137 L 8.9319632,172.77363 c -1.3185595,-0.17815 -2.3679526,-1.76252 -2.3679526,-3.55442 l 0,-43.94104 c 0,-1.7919 1.0493931,-3.35068 2.3679526,-3.49669 z"
             id="rect28377"
             inkscape:original-d="M 11.152509,112.74366 H 198.84749 c 2.54203,0 4.5885,2.04647 4.5885,4.5885 v 62.33568 c 0,2.54203 -2.04647,4.5885 -4.5885,4.5885 H 11.152509 c -2.5420282,0 -4.5884984,-2.04647 -4.5884984,-4.5885 v -62.33568 c 0,-2.54203 2.0464702,-4.5885 4.5884984,-4.5885 z" />
          <path
             style="color:#000000;fill:#008000;stroke-width:0.27903;-inkscape-stroke:none"
             d="M 9.7072591,123.40624 191.88353,104.73038 c 3.62635,-0.37175 6.59507,1.45869 6.59507,4.11041 v 81.49493 c 0,2.65172 -2.96872,4.40978 -6.59507,3.94961 L 9.7072591,171.16777 c -1.0169599,-0.12905 -1.8284772,-1.3418 -1.8284772,-2.72031 l 0,-42.36549 c 0,-1.37851 0.8115173,-2.57147 1.8284772,-2.67573 z"
             id="rect28233"
             inkscape:original-d="M 12.632156,115.13373 H 197.36784 c 1.94313,0 3.50745,1.56432 3.50745,3.50744 v 59.71766 c 0,1.94312 -1.56432,3.50744 -3.50745,3.50744 H 12.632156 c -1.943125,0 -3.5074459,-1.56432 -3.5074459,-3.50744 v -59.71766 c 0,-1.94312 1.5643209,-3.50744 3.5074459,-3.50744 z" />
        </g>
        <g
           aria-label="Plus"
           id="text29993"
           style="font-weight:bold;font-size:58.9167px;-inkscape-font-specification:'sans-serif Bold';stroke-width:0.364529">
          <path
             style="color:#000000;-inkscape-font-specification:'Hack Bold';fill:#ececec;-inkscape-stroke:none"
             d="m 15.57765,59.661205 6.680236,-0.400515 c 3.548693,-0.212763 6.184097,0.452121 7.837826,2.016743 1.653336,1.588626 2.489005,4.273085 2.489005,8.036078 0,3.778228 -0.835669,6.485646 -2.489005,8.104625 -1.653729,1.610166 -4.289133,2.34763 -7.837826,2.232598 l -1.855282,-0.06014 V 91.691491 L 15.57765,91.268347 Z m 6.867496,14.576947 c 1.670909,0.01318 2.853334,-0.338974 3.531312,-1.059876 0.682099,-0.725284 1.024705,-1.989014 1.024705,-3.787879 0,-1.798865 -0.342606,-3.05316 -1.024705,-3.759659 -0.677978,-0.702231 -1.860403,-1.021822 -3.531312,-0.962624 l -2.042542,0.07236 v 9.48156 z"
             id="path136560"
             inkscape:original-d="m 23.487934,55.260114 h 11.651007 q 8.86052,0 12.801724,3.164471 3.88367,3.164471 3.88367,10.270147 0,7.134444 -3.88367,10.270147 -3.941204,3.164471 -12.801724,3.164471 H 31.97447 v 16.081267 h -8.486536 z m 11.967455,19.734792 q 4.200116,0 5.868655,-1.409628 1.668539,-1.409628 1.668539,-4.890546 0,-3.480918 -1.668539,-4.890546 -1.668539,-1.409628 -5.868655,-1.409628 H 31.97447 v 12.600348 z" />
          <path
             style="color:#000000;-inkscape-font-specification:'Hack Bold';fill:#ececec;-inkscape-stroke:none"
             d="M 50.023368,94.485822 C 47.055606,94.223204 44.968955,93.171785 43.720249,91.341083 42.484288,89.544952 41.871025,86.657015 41.871025,82.663557 V 61.935612 l -5.843684,0.256735 0,-5.218347 11.901233,-0.787693 v 26.733515 c 0,2.128284 0.290009,3.663888 0.872082,4.610148 0.570528,0.933473 1.568107,1.448944 3.003065,1.543994 l 5.223709,0.346009 0,5.685641 z"
             id="path136562"
             inkscape:original-d="m 76.852424,98.44076 q -6.012495,0 -8.630376,-3.106935 -2.61788,-3.078167 -2.61788,-10.327683 V 59.920517 h -8.544072 v -6.472782 h 16.973072 v 31.558407 q 0,3.768598 1.179485,5.379601 1.150717,1.582236 3.998741,1.582236 h 6.731693 v 6.472781 z" />
          <path
             style="color:#000000;-inkscape-font-specification:'Hack Bold';fill:#ececec;-inkscape-stroke:none"
             d="M 71.728857,96.967741 C 70.460466,96.852867 69.32071,96.528931 68.306472,95.998161 67.316327,95.472816 66.472295,94.692356 65.771665,93.657979 64.445797,91.71424 63.78784,88.951292 63.78784,85.354541 V 66.445662 l 7.229252,-0.166753 v 18.230695 c 0,2.150014 0.287641,3.703765 0.86477,4.664327 0.289497,0.481823 0.673606,0.854645 1.153132,1.118388 0.498445,0.265821 1.06787,0.420452 1.709158,0.46331 0.661769,0.04423 1.274139,-0.05964 1.836423,-0.312521 0.564586,-0.253925 1.060504,-0.713636 1.487,-1.379892 0.785343,-1.25121 1.179689,-3.023943 1.179689,-5.31286 V 66.089068 l 8.119803,-0.187295 v 31.662446 l -7.336763,-0.643428 -0.78304,-4.628196 c -0.573222,1.65858 -1.508558,2.897427 -2.798681,3.715897 -1.312979,0.807763 -2.889314,1.125025 -4.719726,0.959249 z"
             id="path136564"
             inkscape:original-d="m 103.49152,99.044887 q -2.1576,0 -3.91244,-0.719198 -1.726075,-0.719198 -2.963095,-2.330202 -2.35897,-3.049399 -2.35897,-9.033126 V 65.990548 h 8.429005 v 19.677256 q 0,3.480919 0.9781,4.97685 0.48906,0.747966 1.29456,1.121949 0.83427,0.373983 1.89868,0.373983 1.09318,0 2.01376,-0.460287 0.92057,-0.460286 1.611,-1.553467 1.26579,-2.042522 1.26579,-5.638512 V 65.990548 h 8.429 v 32.220069 h -7.59473 l -0.83427,-4.775475 q -0.92057,2.675417 -3.02063,4.142581 -2.1576,1.467164 -5.23576,1.467164 z" />
          <path
             style="color:#000000;-inkscape-font-specification:'Hack Bold';fill:#ececec;-inkscape-stroke:none"
             d="m 111.76114,100.59335 c -1.13816,-0.10308 -2.31215,-0.26016 -3.52105,-0.47056 -1.17771,-0.186661 -2.31407,-0.409138 -3.40991,-0.667105 -1.08797,-0.256116 -2.21036,-0.573665 -3.36634,-0.951832 -1.12634,-0.373492 -2.254575,-0.774506 -3.38456,-1.20269 v -7.50834 c 2.01944,1.220209 4.0876,2.181018 6.20594,2.8772 1.09189,0.353235 2.1484,0.645752 3.16872,0.87679 1.04911,0.21387 2.13856,0.36043 3.26913,0.439007 2.21851,0.15419 3.95473,-0.03485 5.19201,-0.571947 0.59922,-0.271657 1.05013,-0.616468 1.35146,-1.034254 0.32515,-0.437992 0.48798,-1.022204 0.48798,-1.751961 0,-0.479555 -0.0931,-0.922475 -0.27903,-1.328403 -0.16254,-0.404244 -0.52186,-0.807656 -1.07661,-1.209483 -0.5528,-0.400415 -1.32118,-0.78901 -2.30197,-1.165065 -0.95207,-0.37269 -2.1901,-0.745736 -3.70722,-1.118088 l -2.67414,-0.66033 c -3.6222,-0.907735 -6.20982,-2.185006 -7.813795,-3.834488 -1.586913,-1.651507 -2.374056,-3.768544 -2.374056,-6.364252 0,-3.200723 1.197701,-5.692389 3.622421,-7.496812 2.46461,-1.834108 6.01006,-2.821664 10.71186,-2.942672 1.0796,-0.02779 2.18947,-0.01514 3.33017,0.03838 1.14906,0.05391 2.20205,0.14205 3.15694,0.264676 0.96069,0.123369 2.03366,0.308076 3.22114,0.55493 1.19635,0.227519 2.30492,0.490628 3.3238,0.789459 v 8.187232 c -0.99469,-0.558321 -2.01934,-1.049737 -3.07331,-1.474719 -1.02336,-0.443258 -2.00483,-0.789313 -2.94514,-1.039171 -0.93477,-0.248387 -1.93352,-0.443067 -2.995,-0.584419 -1.03151,-0.140506 -2.10167,-0.207812 -3.2096,-0.202636 -1.0106,0.0047 -1.91453,0.0803 -2.71361,0.226205 -0.79498,0.124866 -1.47625,0.339814 -2.04532,0.644478 -0.56697,0.283373 -0.99082,0.646235 -1.27273,1.088758 -0.25977,0.421674 -0.38949,0.863297 -0.38949,1.325405 0,0.904125 0.55206,1.684011 1.66222,2.343235 1.11825,0.664036 2.92231,1.283846 5.43632,1.862761 l 0.37382,0.09986 2.8845,0.679937 c 1.83587,0.436736 3.45695,0.988399 4.8563,1.655529 1.4117,0.673017 2.58153,1.482479 3.50406,2.42796 0.92783,0.950906 1.6149,2.069051 2.05813,3.35296 0.44445,1.265924 0.66713,2.64212 0.66713,4.125994 0,3.720436 -1.39289,6.39912 -4.14329,8.015256 -1.36977,0.817975 -3.07159,1.357013 -5.09477,1.619813 -1.97458,0.28232 -4.20947,0.30834 -6.69311,0.0834 z"
             id="path136566"
             inkscape:original-d="m 142.84603,99.044887 q -1.46716,0 -3.0494,-0.14384 -1.55346,-0.115072 -3.02063,-0.345215 -1.46716,-0.230143 -3.0494,-0.632894 -1.55346,-0.402751 -3.1357,-0.891806 v -7.364587 q 2.81926,1.611004 5.69605,2.416505 1.46716,0.402751 2.81925,0.632895 1.38087,0.201375 2.84803,0.201375 2.84802,0 4.40149,-0.863038 0.74797,-0.431518 1.12195,-1.035645 0.40275,-0.632894 0.40275,-1.639771 0,-0.661662 -0.23014,-1.208253 -0.20138,-0.54659 -0.89181,-1.064413 -0.69043,-0.517822 -1.92745,-0.978109 -1.20825,-0.460287 -3.16447,-0.891805 l -2.3302,-0.517823 q -4.83301,-1.093181 -7.04814,-3.423382 -2.21513,-2.35897 -2.21513,-6.185103 0,-4.717939 3.36584,-7.307051 3.36585,-2.589113 9.49342,-2.589113 1.38086,0 2.81925,0.115071 1.4384,0.115072 2.61788,0.316448 1.17949,0.201375 2.61789,0.575358 1.43839,0.345215 2.64664,0.776734 v 7.364587 q -1.17948,-0.747966 -2.44527,-1.323324 -1.23702,-0.604127 -2.38774,-0.949342 -1.15071,-0.345215 -2.47404,-0.54659 -1.29455,-0.201375 -2.70418,-0.201375 -1.29456,0 -2.3302,0.201375 -1.03565,0.172608 -1.78361,0.604126 -0.74797,0.402751 -1.12195,1.035645 -0.34522,0.604127 -0.34522,1.265789 0,1.294556 1.46717,2.21513 1.46716,0.920573 4.68917,1.668539 l 0.31644,0.0863 2.41651,0.575358 q 2.27266,0.546591 3.96997,1.409628 1.69731,0.863038 2.79049,2.100058 1.09318,1.237021 1.611,2.934328 0.51783,1.668539 0.51783,3.653526 0,4.97685 -3.25078,7.450891 -1.63977,1.265788 -4.11381,1.869914 -2.44527,0.632895 -5.60975,0.632895 z" />
        </g>
        <g
           aria-label="St"
           id="text127089"
           style="font-weight:bold;font-size:28.2223px;-inkscape-font-specification:'sans-serif Bold';stroke-width:0.146991">
          <path
             style="color:#000000;-inkscape-font-specification:'Hack Bold';fill:#f2f2f2;-inkscape-stroke:none"
             d="m 152.39972,66.906086 c -0.82155,0.01309 -1.61886,-0.0073 -2.39225,-0.06095 -0.76997,-0.05341 -1.53655,-0.15041 -2.29975,-0.290723 -1.51638,-0.267895 -2.94075,-0.670448 -4.27522,-1.206274 v -4.940383 c 0.80991,0.447634 1.57762,0.822954 2.30255,1.125322 0.72799,0.303646 1.47238,0.559051 2.23338,0.765929 1.4916,0.406651 2.95526,0.591692 4.39012,0.55225 0.78388,-0.02155 1.46746,-0.107099 2.04956,-0.256954 0.58401,-0.161513 1.08614,-0.38822 1.50568,-0.680236 0.84205,-0.574893 1.26457,-1.363225 1.26457,-2.362943 0,-0.763828 -0.2818,-1.415176 -0.84406,-1.952764 -0.29446,-0.278754 -0.65138,-0.515151 -1.07037,-0.709192 -0.40408,-0.205364 -0.85583,-0.374619 -1.35488,-0.507833 l -2.98536,-0.773895 c -1.5581,-0.408078 -2.82809,-0.826551 -3.81613,-1.256298 -0.98243,-0.438187 -1.72877,-0.892077 -2.24206,-1.362482 -1.03506,-0.935827 -1.55026,-2.259826 -1.55026,-3.976222 0,-2.20217 0.84862,-3.992009 2.55855,-5.37983 1.74042,-1.413838 4.13367,-2.261564 7.20663,-2.536015 0.74559,-0.06659 1.4874,-0.09939 2.22536,-0.09819 0.74106,0.0012 1.44303,0.03421 2.10541,0.09918 0.66486,0.06522 1.36777,0.167058 2.10918,0.305768 0.75883,0.126719 1.51368,0.294335 2.26449,0.503098 v 4.91541 c -1.35495,-0.662921 -2.73536,-1.137514 -4.14055,-1.425802 -1.39419,-0.286033 -2.75662,-0.376161 -4.08791,-0.272651 -1.47206,0.114456 -2.58507,0.438285 -3.34574,0.97046 -0.77087,0.541854 -1.15502,1.239958 -1.15502,2.096105 0,0.691504 0.28297,1.238013 0.85031,1.640511 0.27082,0.202615 0.67105,0.402829 1.20157,0.600856 0.54581,0.197776 1.32653,0.420551 2.3453,0.66894 l 2.65008,0.645211 c 2.55516,0.617483 4.44912,1.497241 5.66026,2.63832 1.2339,1.182369 1.85403,2.760104 1.85403,4.727119 0,2.527387 -0.97665,4.449949 -2.91423,5.757081 -1.93112,1.304716 -4.71216,1.980869 -8.30324,2.038071 z"
             id="path136569"
             inkscape:original-d="m 173.61163,68.066701 q -0.82682,0 -1.6123,-0.08268 -0.78549,-0.08268 -1.57097,-0.275608 -1.57097,-0.372072 -2.97657,-1.088653 v -4.203028 q 0.85438,0.606338 1.61231,1.019751 0.75792,0.413412 1.5434,0.702801 1.52963,0.564997 2.97657,0.564997 0.78549,0 1.36427,-0.165365 0.57877,-0.179145 0.99219,-0.523656 0.82682,-0.67524 0.82682,-1.901698 0,-0.937068 -0.55122,-1.626089 -0.28938,-0.358291 -0.7028,-0.620119 -0.39963,-0.275608 -0.89572,-0.468534 l -1.99817,-0.757923 q -1.58474,-0.606339 -2.60449,-1.212677 -1.01976,-0.620119 -1.55719,-1.254019 -1.08866,-1.267798 -1.08866,-3.458885 0,-2.811206 1.79146,-4.395954 1.80523,-1.598528 4.90583,-1.598528 0.74414,0 1.4745,0.08268 0.73037,0.08268 1.37805,0.234267 0.64768,0.151585 1.36426,0.399632 0.73036,0.234267 1.44694,0.564998 v 3.96876 q -1.29536,-0.923288 -2.65962,-1.405602 -1.36426,-0.482315 -2.68718,-0.482315 -1.47451,0 -2.24621,0.592558 -0.78548,0.606338 -0.78548,1.681211 0,0.868167 0.57877,1.419383 0.27561,0.275609 0.81305,0.564998 0.55122,0.289388 1.57097,0.67524 l 1.75011,0.66146 q 2.49426,0.937069 3.65181,2.397793 1.17134,1.502066 1.17134,3.872298 0,3.045473 -1.84658,4.5751 -1.86036,1.543407 -5.42949,1.543407 z" />
          <path
             style="color:#000000;-inkscape-font-specification:'Hack Bold';fill:#f2f2f2;-inkscape-stroke:none"
             d="m 185.7165,65.920352 c -4.11843,0.07048 -6.84445,-0.365544 -8.23619,-1.301738 -1.39715,-0.917116 -2.09184,-2.660185 -2.09184,-5.234309 v -9.210167 l -6.56725,0.392084 v -3.915168 l 6.56725,-0.462085 v -5.419828 l 6.97608,-2.937484 v 7.866462 l 9.52127,-0.669934 v 4.161017 l -9.52127,0.568445 v 9.634613 c 0,0.890089 0.29936,1.524505 0.89949,1.904143 0.32518,0.207665 0.73244,0.352986 1.2223,0.435858 0.50752,0.07051 1.09035,0.09671 1.74918,0.07842 l 5.6503,-0.156923 v 4.161016 l -6.16932,0.105578 z"
             id="path136571"
             inkscape:original-d="m 193.97909,67.72219 q -3.48644,0 -4.69912,-1.116214 -1.22646,-1.102433 -1.22646,-4.106565 v -7.165818 h -3.9412 v -3.100595 h 3.9412 V 48.01619 l 4.03767,-1.791455 v 6.008263 h 5.2779 v 3.100595 h -5.2779 v 7.358744 q 0,1.019751 0.50987,1.474505 0.27561,0.248047 0.68902,0.358291 0.4272,0.09646 0.97841,0.09646 h 3.1006 v 3.100594 h -3.38999 z" />
        </g>
      </g>
    </g>
  </g>
</svg>

