<?xml version="1.0" encoding="UTF-8" standalone="no"?>
<!-- Created with Inkscape (http://www.inkscape.org/) -->

<svg
   width="210mm"
   height="39.915001mm"
   viewBox="0 0 210 39.915001"
   version="1.1"
   id="svg5"
   inkscape:version="1.2.2 (b0a8486541, 2022-12-01)"
   sodipodi:docname="new-logo.svg"
   inkscape:export-filename="../../../../../home/zen/new-logo.png"
   inkscape:export-xdpi="96"
   inkscape:export-ydpi="96"
   xmlns:inkscape="http://www.inkscape.org/namespaces/inkscape"
   xmlns:sodipodi="http://sodipodi.sourceforge.net/DTD/sodipodi-0.dtd"
   xmlns="http://www.w3.org/2000/svg"
   xmlns:svg="http://www.w3.org/2000/svg">
  <sodipodi:namedview
     id="namedview7"
     pagecolor="#505050"
     bordercolor="#eeeeee"
     borderopacity="1"
     inkscape:showpageshadow="0"
     inkscape:pageopacity="0"
     inkscape:pagecheckerboard="0"
     inkscape:deskcolor="#505050"
     inkscape:document-units="mm"
     showgrid="false"
     inkscape:zoom="1.3203782"
     inkscape:cx="380.1941"
     inkscape:cy="162.83213"
     inkscape:window-width="1904"
     inkscape:window-height="1034"
     inkscape:window-x="0"
     inkscape:window-y="0"
     inkscape:window-maximized="1"
     inkscape:current-layer="layer1" />
  <defs
     id="defs2" />
  <g
     inkscape:label="Layer 1"
     inkscape:groupmode="layer"
     id="layer1">
    <g
       aria-label="Plus St"
       id="text236"
       style="font-size:57.5816px;font-family:'Highway Gothic Wide';-inkscape-font-specification:'Highway Gothic Wide';fill:#ffffff;stroke-width:0.308472"
       transform="scale(1.0002742)">
      <path
         d="M 23.550874,24.760088 H 7.3128631 V 39.21307 H -1.411438e-7 V 0.63339779 H 23.550874 q 5.067181,0 8.579659,3.57005921 3.570059,3.5124776 3.570059,8.464495 0,4.836855 -3.570059,8.464495 -3.512478,3.627641 -8.579659,3.627641 z m 4.836855,-12.092136 q 0,-1.900193 -1.43954,-3.282151 -1.381959,-1.43954 -3.397315,-1.43954 H 7.3128631 v 9.500964 H 23.550874 q 2.015356,0 3.397315,-1.381958 1.43954,-1.43954 1.43954,-3.397315 z"
         style="-inkscape-font-specification:'Highway Gothic Expanded, '"
         id="path439" />
      <path
         d="M 51.996162,39.21307 H 44.683299 V 3.627641 L 51.996162,1.8692016e-7 Z"
         style="-inkscape-font-specification:'Highway Gothic Expanded, '"
         id="path441" />
      <path
         d="m 60.51823,11.055667 h 7.312863 v 15.547032 q 0,2.706336 1.900193,4.66411 1.957775,1.957774 5.124763,1.957774 2.763916,0.05758 4.836854,-1.785029 2.130519,-1.900193 2.188101,-5.067181 V 11.055667 h 7.312863 V 39.21307 H 81.881004 V 36.909806 Q 78.829179,39.731304 73.934743,39.731304 67.71593,39.616141 64.088289,35.527848 60.51823,31.439554 60.51823,26.602699 Z"
         style="-inkscape-font-specification:'Highway Gothic Expanded, '"
         id="path443" />
      <path
         d="m 124.31866,30.921319 q -0.0576,4.376202 -3.62764,6.621885 -3.51248,2.1881 -10.76776,2.1881 -7.8311,0 -14.510561,-3.397314 l 2.936661,-5.815742 q 5.58542,2.763917 11.5739,2.87908 5.0096,-0.115163 6.10365,-0.633397 1.15163,-0.518235 1.20922,-1.78503 -0.11517,-1.266795 -1.32438,-1.78503 -1.15163,-0.575816 -5.87332,-1.09405 -6.16124,-0.575816 -9.7313,-2.763917 -3.512473,-2.188101 -3.454891,-5.988486 -0.115164,-3.685223 3.397311,-6.218813 3.57006,-2.591172 9.67371,-2.591172 6.67947,0 12.95586,3.22457 l -2.8215,5.585415 q -4.20345,-2.188101 -10.13436,-2.360846 -4.43378,0.230327 -5.35509,0.690979 -0.9213,0.460653 -0.9213,1.43954 -0.0576,0.921306 0.97888,1.381959 1.03647,0.403071 5.47026,0.863724 7.37044,0.633397 10.76776,2.936661 3.39731,2.245683 3.45489,6.621884 z"
         style="-inkscape-font-specification:'Highway Gothic Expanded, '"
         id="path445" />
      <path
         d="m 185.29757,27.69675 q -0.0576,5.642997 -4.49137,8.925148 -4.3762,3.282151 -12.43762,3.282151 -11.11325,0 -19.17468,-5.815742 l 4.20346,-5.988486 q 6.39156,4.376202 14.74089,4.433783 5.12476,-0.172745 7.54319,-1.43954 2.47601,-1.266795 2.53359,-3.454896 0.17274,-2.130519 -2.41843,-3.454896 -2.59117,-1.381958 -8.119,-1.957774 -9.73129,-1.036469 -13.01344,-3.915549 -3.28216,-2.936662 -3.22457,-7.54319 0.11516,-4.9520172 4.72169,-7.7735156 4.60652,-2.87908001 11.28599,-2.99424321307996 7.8311,0 15.43187,4.54894641307996 l -4.03071,5.8733234 q -5.12477,-2.9942434 -11.91939,-2.9942434 -2.93667,-0.057582 -5.58542,0.6909792 -2.59117,0.7485608 -2.47601,2.6487532 -0.11516,1.727448 2.24568,2.763917 2.36085,0.978887 8.06143,1.554703 8.98273,0.806143 12.55279,4.548947 3.57006,3.742804 3.57006,8.061424 z"
         style="-inkscape-font-specification:'Highway Gothic Expanded, '"
         id="path447" />
      <path
         d="m 209.94244,31.324391 -2.36084,7.831097 q -1.9002,0.748561 -3.68522,0.748561 -3.33974,0 -5.41268,-2.591172 -2.01535,-2.591172 -2.01535,-6.10365 V 17.677551 h -4.60653 v -6.449139 h 4.60653 V 3.627641 L 203.78121,1.8692016e-7 V 11.228412 h 6.21881 v 6.564303 h -6.21881 v 12.034554 q 0.0576,1.43954 0.69098,2.303264 0.69098,0.806142 1.84261,0.806142 1.84261,-0.115163 3.62764,-1.612284 z"
         style="-inkscape-font-specification:'Highway Gothic Expanded, '"
         id="path449" />
    </g>
  </g>
</svg>
