<?xml version="1.0" encoding="UTF-8" standalone="no"?>
<!-- Created with Inkscape (http://www.inkscape.org/) -->

<svg
   width="1500mm"
   height="1500mm"
   viewBox="0 0 1500 1500"
   version="1.1"
   id="svg5"
   xml:space="preserve"
   inkscape:export-filename="pleroma.svg"
   inkscape:export-xdpi="96"
   inkscape:export-ydpi="96"
   inkscape:version="1.2.1 (9c6d41e410, 2022-07-14)"
   sodipodi:docname="gitea.svg"
   xmlns:inkscape="http://www.inkscape.org/namespaces/inkscape"
   xmlns:sodipodi="http://sodipodi.sourceforge.net/DTD/sodipodi-0.dtd"
   xmlns="http://www.w3.org/2000/svg"
   xmlns:svg="http://www.w3.org/2000/svg"><sodipodi:namedview
     id="namedview7"
     pagecolor="#393939"
     bordercolor="#000000"
     borderopacity="0.24705882"
     inkscape:showpageshadow="2"
     inkscape:pageopacity="0"
     inkscape:pagecheckerboard="0"
     inkscape:deskcolor="#3c3c3c"
     inkscape:document-units="mm"
     showgrid="false"
     inkscape:zoom="0.075024142"
     inkscape:cx="4098.6806"
     inkscape:cy="2412.5567"
     inkscape:window-width="1920"
     inkscape:window-height="1009"
     inkscape:window-x="-8"
     inkscape:window-y="-8"
     inkscape:window-maximized="1"
     inkscape:current-layer="layer1" /><defs
     id="defs2" /><g
     inkscape:label="Layer 1"
     inkscape:groupmode="layer"
     id="layer1"><rect
       style="fill:#000000;stroke-width:0.264583"
       id="rect231"
       width="1500"
       height="1500"
       x="-1.4210855e-14"
       y="-5.6843419e-14" /><path
       d="M 265.55587,285.43153 C 206.92247,285.26471 138.69357,306.02619 85.864073,353.1841 33.035173,400.3442 -3.9627274,474.09662 0.33987264,578.11015 7.0388726,740.06169 84.951573,830.02269 175.56877,878.57509 c 88.4649,47.3982 188.4154,56.0934 247.7668,57.6875 4.41,16.2413 14.9577,38.6123 29.9374,64.45831 16.4181,28.3266 38.0937,60.4106 62.6019,90.9991 49.0149,61.1785 108.6473,117.0186 163.1735,122.8761 h 446.28633 c 69.9752,-5.2383 133.4636,-66.305 187.8794,-153.1169 54.4159,-86.81191 99.9151,-200.16821 132.4417,-313.00691 32.5276,-112.83865 52.0623,-225.07119 54.1546,-309.88169 1.0454,-42.40452 -2.1889,-77.92576 -10.7686,-103.71955 -4.2903,-12.89689 -9.933,-23.43812 -17.4528,-31.05097 -7.5207,-7.61211 -17.1384,-12.10271 -27.9027,-12.34808 l -0.2249,-0.005 h -0.2278 c -245.0305,12.97382 -390.1846,19.50212 -514.60653,20.59973 v 283.10943 l -38.8386,-19.29087 -0.2579,-263.67259 c -142.8015,-0.0727 -268.4783,-7.5163 -507.3314,-20.74713 l -0.1345,-0.005 -0.1344,-0.001 c -29.2078,-0.31209 -71.1224,-5.92642 -116.3755,-6.05565 z m 16.261,125.23035 c 2.6597,0 5.4371,0 8.1775,0.0724 15.9174,157.54876 41.8882,253.55022 92.4937,393.41461 -63.9502,-9.1612 -122.4862,-24.7165 -167.632,-56.3917 -47.4505,-33.29199 -80.759,-84.0861 -91.2684,-165.98706 -5.551,-43.26403 1.5101,-86.96653 27.4126,-119.16156 24.284,-30.18419 65.3824,-51.06197 130.8166,-51.93309 z m 529.6555,155.39854 c 9.5637,0.0727 19.2788,2.18578 28.4857,6.6597 l 46.4263,22.55757 -33.3058,68.21427 a 41.635035,41.635035 0 0 0 -14.9294,2.40645 41.635035,41.635035 0 0 0 -25.0753,53.27461 41.635035,41.635035 0 0 0 6.8987,12.12523 l -57.3812,117.52454 a 41.635035,41.635035 0 0 0 -13.7985,2.4101 41.635035,41.635035 0 0 0 -25.0723,53.2754 41.635035,41.635035 0 0 0 53.274,25.0736 41.635035,41.635035 0 0 0 25.0742,-53.2746 41.635035,41.635035 0 0 0 -9.7768,-15.3208 l 55.9177,-114.5272 a 41.635035,41.635035 0 0 0 18.1412,-2.2133 41.635035,41.635035 0 0 0 13.2292,-7.76677 c 21.7853,10.32997 39.1654,18.41907 51.9339,25.52517 19.1289,10.648 25.8954,17.6735 27.9454,25.4177 2.0501,7.7436 -0.2249,22.4879 -11.0232,48.4218 -8.2308,19.7693 -20.8009,45.5173 -37.1038,78.9704 a 41.635035,41.635035 0 0 0 -15.5858,2.4014 41.635035,41.635035 0 0 0 -25.0736,53.276 41.635035,41.635035 0 0 0 53.2745,25.073 41.635035,41.635035 0 0 0 25.0736,-53.2747 41.635035,41.635035 0 0 0 -8.5092,-14.0024 c 16.146,-33.0952 28.7636,-58.9115 37.5776,-80.0847 11.6341,-27.9455 17.7579,-48.8581 12.4273,-68.9947 -5.3318,-20.1373 -21.7472,-33.2185 -43.3918,-45.26539 -14.3371,-7.97943 -31.9161,-16.16936 -53.3341,-26.30046 a 41.635035,41.635035 0 0 0 -2.368,-16.67027 41.635035,41.635035 0 0 0 -9.0232,-14.53677 l 32.7916,-67.15949 181.24923,88.06702 c 32.7364,15.90588 46.2852,55.06696 30.3785,87.80426 l -124.6219,256.48151 c -15.90673,32.7366 -55.06613,46.2861 -87.80283,30.3795 L 657.91187,947.38529 c -32.7364,-15.9066 -46.2852,-55.0654 -30.3785,-87.8027 L 752.15527,603.0996 c 11.4334,-23.52959 34.8781,-37.14733 59.3171,-37.03918 z"
       id="path74524"
       style="fill:#ffffff;stroke-width:0.72593" /></g></svg>
