<?xml version="1.0" encoding="UTF-8" standalone="no"?>
<!-- Created with Inkscape (http://www.inkscape.org/) -->

<svg
   width="1500mm"
   height="1500mm"
   viewBox="0 0 1500 1500"
   version="1.1"
   id="svg5"
   xml:space="preserve"
   inkscape:export-filename="pleroma.svg"
   inkscape:export-xdpi="96"
   inkscape:export-ydpi="96"
   inkscape:version="1.2.1 (9c6d41e410, 2022-07-14)"
   sodipodi:docname="home.svg"
   xmlns:inkscape="http://www.inkscape.org/namespaces/inkscape"
   xmlns:sodipodi="http://sodipodi.sourceforge.net/DTD/sodipodi-0.dtd"
   xmlns="http://www.w3.org/2000/svg"
   xmlns:svg="http://www.w3.org/2000/svg"><sodipodi:namedview
     id="namedview7"
     pagecolor="#393939"
     bordercolor="#000000"
     borderopacity="0.24705882"
     inkscape:showpageshadow="2"
     inkscape:pageopacity="0"
     inkscape:pagecheckerboard="0"
     inkscape:deskcolor="#3c3c3c"
     inkscape:document-units="mm"
     showgrid="false"
     inkscape:zoom="0.125"
     inkscape:cx="2348"
     inkscape:cy="2712"
     inkscape:window-width="1920"
     inkscape:window-height="1009"
     inkscape:window-x="-8"
     inkscape:window-y="-8"
     inkscape:window-maximized="1"
     inkscape:current-layer="layer1" /><defs
     id="defs2" /><g
     inkscape:label="Layer 1"
     inkscape:groupmode="layer"
     id="layer1"><circle
       r="0"
       style="fill:none;stroke:#000000;stroke-width:110.653;stroke-miterlimit:4;stroke-dasharray:none;stroke-opacity:1"
       cy="1221.2555"
       cx="840.45007"
       id="path3713" /><path
       d="m 1285.8869,840.82639 v 446.57251 c 0,32.5624 -26.9804,59.5428 -59.5429,59.5428 H 869.08599 V 989.68374 h -238.172 V 1346.9417 H 273.65601 c -32.56256,0 -59.54298,-26.9804 -59.54298,-59.5428 V 840.8264 c 0,-1.86087 0.93035,-3.72134 0.93035,-5.5822 L 749.99995,394.2539 1284.9566,835.2442 c 0.9303,1.86086 0.9303,3.72132 0.9303,5.58219 z m 207.4702,-64.19466 -57.6823,68.84635 c -4.6517,5.5822 -12.0947,9.30385 -19.5375,10.23388 h -2.7911 c -7.4429,0 -13.9554,-1.86046 -19.5375,-6.51223 L 749.99995,312.38239 106.19134,849.19974 c -6.512506,4.65176 -13.955387,7.44267 -22.328627,6.51223 -7.44285,-0.93003 -14.88574,-4.65169 -19.53755,-10.23389 L 6.6429132,776.63174 c -10.23397,-12.09473 -8.37324,-31.63245 3.7214198,-41.86634 L 679.29269,177.48023 c 39.07508,-32.56252 102.33952,-32.56252 141.4146,0 L 1047.715,367.27354 V 185.85329 c 0,-16.74647 13.0251,-29.77126 29.7715,-29.77126 h 178.629 c 16.7465,0 29.7714,13.02479 29.7714,29.77126 v 379.5866 l 203.7487,169.32551 c 12.0948,10.23389 13.9554,29.7716 3.7215,41.86633 z"
       id="path75655"
       style="fill:#f9f9f9;stroke-width:0.930362" /></g></svg>
