<?xml version="1.0" encoding="UTF-8" standalone="no"?>
<!-- Created with Inkscape (http://www.inkscape.org/) -->

<svg
   width="1500mm"
   height="1500mm"
   viewBox="0 0 1500 1500"
   version="1.1"
   id="svg5"
   xml:space="preserve"
   inkscape:export-filename="pleroma.svg"
   inkscape:export-xdpi="96"
   inkscape:export-ydpi="96"
   inkscape:version="1.2.1 (9c6d41e410, 2022-07-14)"
   sodipodi:docname="libreddit.svg"
   xmlns:inkscape="http://www.inkscape.org/namespaces/inkscape"
   xmlns:sodipodi="http://sodipodi.sourceforge.net/DTD/sodipodi-0.dtd"
   xmlns="http://www.w3.org/2000/svg"
   xmlns:svg="http://www.w3.org/2000/svg"><sodipodi:namedview
     id="namedview7"
     pagecolor="#393939"
     bordercolor="#000000"
     borderopacity="0.24705882"
     inkscape:showpageshadow="2"
     inkscape:pageopacity="0"
     inkscape:pagecheckerboard="0"
     inkscape:deskcolor="#3c3c3c"
     inkscape:document-units="mm"
     showgrid="false"
     inkscape:zoom="0.125"
     inkscape:cx="2340"
     inkscape:cy="2732"
     inkscape:window-width="1492"
     inkscape:window-height="1000"
     inkscape:window-x="419"
     inkscape:window-y="0"
     inkscape:window-maximized="0"
     inkscape:current-layer="layer1" /><defs
     id="defs2" /><g
     inkscape:label="Layer 1"
     inkscape:groupmode="layer"
     id="layer1"><circle
       r="0"
       style="fill:none;stroke:#000000;stroke-width:110.653;stroke-miterlimit:4;stroke-dasharray:none;stroke-opacity:1"
       cy="1221.2555"
       cx="840.45007"
       id="path3713" /><circle
       r="0"
       style="fill:none;stroke:#000000;stroke-width:110.653;stroke-miterlimit:4;stroke-dasharray:none;stroke-opacity:1"
       cy="1221.2555"
       cx="840.45007"
       id="path3713-2" /><circle
       r="0"
       style="fill:none;stroke:#000000;stroke-width:110.653;stroke-miterlimit:4;stroke-dasharray:none;stroke-opacity:1"
       cy="1221.2555"
       cx="840.45007"
       id="path3713-8" /><path
       id="path74260"
       style="fill:#ffffff;stroke-width:4.01229"
       d="m 1163.0209,0.00823328 c -20.8055,-0.13642 -34.9994,1.41344002 -50.9098,5.15119002 -15.4473,3.62908 -41.119,13.0315697 -57.0482,20.8942797 -15.9292,7.86273 -40.3268,24.71001 -54.2166,37.43765 -13.89007,12.72753 -33.32697,34.22548 -43.19247,47.773237 -14.518,19.93621 -18.4709,23.28646 -20.7326,17.57015 -1.5365,-3.88457 -2.9205,-16.27013 -3.0761,-27.52256 -0.1557,-11.252637 -1.4501,-34.273367 -2.8772,-51.157057 l -2.5942,-30.69739 H 794.54952 660.72595 V 549.08283 1078.7079 H 803.16331 945.59973 V 730.42233 c 0,-348.28506 10e-5,-348.28561 11.3872,-366.12346 6.2629,-9.81074 19.5979,-25.35822 29.6334,-34.5498 10.0356,-9.1916 24.16357,-19.77198 31.39567,-23.51174 7.2319,-3.73975 22.7578,-10.10596 34.5025,-14.14653 11.7443,-4.04062 39.2012,-9.50974 61.0149,-12.15356 30.8081,-3.73399 51.0698,-3.73444 90.771,-0.002 28.1102,2.6432 51.6557,4.24798 52.3214,3.56711 0.666,-0.6812 1.8253,-62.21642 2.5761,-136.74449 l 1.3643,-135.505407 -14.0429,-4.2181597 c -7.7237,-2.32003 -34.8069,-5.17713 -60.1846,-6.34632002 -8.713,-0.40163 -16.3826,-0.6346 -23.3178,-0.68008 z M 239.43377,15.445263 V 757.72273 1500 h 509.5627 509.56343 V 1349.5386 1199.0773 H 899.45863 540.35662 V 607.26133 15.445263 H 389.89511 Z" /></g></svg>
