<?xml version="1.0" encoding="UTF-8" standalone="no"?>
<!-- Created with Inkscape (http://www.inkscape.org/) -->

<svg
   width="1500mm"
   height="1500mm"
   viewBox="0 0 1500 1500"
   version="1.1"
   id="svg5"
   xml:space="preserve"
   inkscape:export-filename="pleroma.svg"
   inkscape:export-xdpi="96"
   inkscape:export-ydpi="96"
   inkscape:version="1.2.1 (9c6d41e410, 2022-07-14)"
   sodipodi:docname="privatebin.svg"
   xmlns:inkscape="http://www.inkscape.org/namespaces/inkscape"
   xmlns:sodipodi="http://sodipodi.sourceforge.net/DTD/sodipodi-0.dtd"
   xmlns="http://www.w3.org/2000/svg"
   xmlns:svg="http://www.w3.org/2000/svg"><sodipodi:namedview
     id="namedview7"
     pagecolor="#393939"
     bordercolor="#000000"
     borderopacity="0.24705882"
     inkscape:showpageshadow="2"
     inkscape:pageopacity="0"
     inkscape:pagecheckerboard="0"
     inkscape:deskcolor="#3c3c3c"
     inkscape:document-units="mm"
     showgrid="false"
     inkscape:zoom="0.125"
     inkscape:cx="2348"
     inkscape:cy="2712"
     inkscape:window-width="1920"
     inkscape:window-height="1009"
     inkscape:window-x="-8"
     inkscape:window-y="-8"
     inkscape:window-maximized="1"
     inkscape:current-layer="layer1" /><defs
     id="defs2" /><g
     inkscape:label="Layer 1"
     inkscape:groupmode="layer"
     id="layer1"><rect
       style="fill:#000000;stroke-width:0.264583"
       id="rect231"
       width="1500"
       height="1500"
       x="-1.4210855e-14"
       y="-5.6843419e-14" /><circle
       r="0"
       style="fill:none;stroke:#000000;stroke-width:110.653;stroke-miterlimit:4;stroke-dasharray:none;stroke-opacity:1"
       cy="1221.2555"
       cx="840.45007"
       id="path3713" /><path
       style="fill:#ffffff;stroke-width:7.8125"
       d="m 411.53929,1317.1389 c -175.25,-95.9017 -325.542905,-180.617 -333.984305,-188.2564 -19.2024,-17.3778 -24.4796,-731.30562 -5.5824,-755.20972 C 86.016685,355.9077 731.94047,8.0394439 750.88272,8.0394439 c 16.67982,0 655.31898,345.1107661 674.92998,364.7217761 22.2125,22.21252 16.3777,737.38548 -6.1838,757.95808 -27.6109,25.1768 -654.68222,361.7486 -673.03227,361.2407 -9.03148,-0.25 -159.80727,-78.9195 -335.05734,-174.8211 z m 646.76151,-60.2064 c 158.9843,-86.0728 293.1517,-160.586 298.1499,-165.5851 18.0036,-18.0071 23.2555,-662.62223 5.5244,-678.06691 C 1336.7529,391.31064 757.03925,77.273802 746.42098,79.828482 740.86663,81.164822 600.98012,155.77938 435.56209,245.6386 l -300.7602,163.38043 -5.0157,98.33832 c -11.3678,222.87338 -6.2657,567.54055 8.5927,580.46975 11.826,10.2905 458.39314,256.5192 568.35935,313.3826 48.19505,24.9215 10.3466,40.4541 351.56256,-144.2772 z m -542.96397,-65.2934 c -7.9212,-9.5444 -2.35741,-38.1103 30.05255,-154.2969 21.87538,-78.42122 47.4504,-180.0662 56.83337,-225.87776 l 17.05994,-83.29376 -35.37875,-41.70625 C 377.70129,443.38243 691.6737,156.31109 932.48699,367.74792 c 91.46601,80.30826 86.14651,193.04322 -14.68281,311.1678 -32.25164,37.78373 -35.1875,44.51134 -30.6443,70.22109 9.39461,53.16263 35.29414,160.91693 71.11859,295.88679 29.27946,110.3113 33.96086,136.7807 25.90743,146.4844 -14.64141,17.6419 -454.21443,17.7648 -468.84907,0.1313 z m 421.64391,-27.0444 c 6.32086,-3.9975 9.83648,-8.3382 7.8125,-9.6461 -9.77914,-6.3189 -366.96125,3.1704 -366.96125,9.7492 0,9.7115 343.78555,9.6129 359.14875,-0.1031 z m -26.29477,-41.3208 C 816.7598,786.73077 807.89012,708.31325 857.29176,651.20921 973.54566,516.82954 947.07441,401.28443 792.08808,366.60001 610.14293,325.88247 512.03912,510.90525 640.41218,652.65924 c 52.63921,58.12604 43.3111,143.37208 -51.49733,470.61466 -5.09273,17.5781 -5.09273,17.5781 160.79214,17.5781 165.88484,0 165.88484,0 160.97898,-17.5781 z m 17.72321,-513.67196 c 12.5125,-19.33594 25.03086,-43.94531 27.81851,-54.6875 4.8061,-18.51987 4.54602,-18.70466 -5.02289,-3.56855 -20.20859,31.96582 -74.83179,101.59811 -91.08078,116.10752 -9.16687,8.18549 -16.66703,21.82123 -16.66703,30.30162 0,18.58196 48.34844,-31.58818 84.95219,-88.15309 z M 432.49409,207.95155 C 603.92548,115.18739 749.1525,39.289444 755.22082,39.289444 c 6.06832,0 8.86054,-3.515625 6.20492,-7.8125 C 751.93652,16.123067 731.75544,25.746001 424.29389,192.23126 74.103485,381.85353 75.629185,380.96733 81.896685,391.10832 c 2.6818,4.3393 11.6406,2.87342 21.733305,-3.55611 9.4439,-6.01621 157.4328,-86.8365 328.8641,-179.60066 z"
       id="path75565" /><path
       style="fill:#ffffff;stroke:#ffffff;stroke-width:2.82843;stroke-opacity:1"
       d="m 310.99193,1480.2686 c -3.99398,-4.3096 -6.93602,-10.9081 -6.93602,-15.5564 0,-31.4203 98.65725,-88.2458 1018.23379,-586.49186 855.6625,-463.61614 1079.8572,-583.41717 1261.4785,-674.08572 164.2443,-81.99367 216.1544,-103.05473 255.064,-103.48518 20.2475,-0.224 22.298,0.31353 30.2672,7.93441 4.7015,4.49608 9.8186,11.81891 11.3713,16.27294 3.8938,11.16981 -5.3104,21.76892 -20.9309,24.10281 -49.9419,7.46193 -734.8927,369.54907 -1909.87314,1009.6207 -278.95982,151.9636 -485.87331,265.615 -536.7163,294.8023 -46.55662,26.7266 -64.47379,34.138 -82.86655,34.2777 -9.58191,0.073 -13.62454,-1.4924 -19.09188,-7.3917 z"
       id="path75575"
       transform="scale(0.26458333)" /><path
       style="fill:#ffffff;stroke:#ffffff;stroke-width:4;stroke-opacity:1"
       d="m 3187.9715,2643.9101 c -8.1119,-25.5583 20.5713,-77.8906 72.6231,-132.5 87.9566,-92.2787 236.6204,-282.129 325.2899,-415.4101 38.9368,-58.5266 35.4776,-53.9712 38.6065,-50.8423 1.3701,1.3701 -1.6223,19.1384 -6.6499,39.4851 -10.493,42.4665 -55.284,135.3842 -97.9148,203.1221 C 3410.442,2461.7288 3243.0997,2652 3199.5838,2652 c -5.5652,0 -10.0325,-3.1123 -11.6123,-8.0899 z"
       id="path75601"
       transform="scale(0.26458333)" /><path
       style="fill:#ffffff;stroke:#ffffff;stroke-width:4;stroke-opacity:1"
       d="m 2542,4551.7156 c -306.6823,-5.7622 -533.1403,-21.1392 -581.3709,-39.4765 -18.8604,-7.1706 -24.6664,-22.0132 -24.2844,-62.0814 0.5966,-62.5954 28.751,-184.2673 115.2716,-498.1577 78.1583,-283.5524 147.3555,-552.0079 193.836,-752 19.7297,-84.8911 92.6165,-435.7535 92.4744,-445.1533 C 2337.8865,2752.181 2307.2295,2714 2269.8001,2670 2141.5837,2519.2754 2099.4708,2459.3674 2047.665,2354 1985.168,2226.8876 1954,2097.7768 1954,1966 c 0,-221.1179 86.6944,-427.062 248.0039,-589.1378 145.9434,-146.6367 341.1612,-239.9134 546.3973,-261.0733 66.2655,-6.832 182.2443,-2.9624 245.5988,8.1942 170.9611,30.106 340.4113,109.844 488,229.6376 154.3596,125.2894 241.3393,256.4004 276.8689,417.3453 7.1628,32.4465 8.6604,52.535 8.874,119.034 0.162,50.4119 -1.7253,91.0955 -5.1028,110 -31.4474,176.0159 -116.7414,348.713 -258.5229,523.4388 -22.0645,27.1913 -58.5402,72.1913 -81.0572,100 -65.7746,81.2321 -80.724,118.067 -72.9239,179.6819 15.9803,126.2313 129.1527,603.3932 265.8483,1120.8793 90.841,343.8953 114.9037,451.7768 115.5715,518.1471 0.5474,54.4188 -3.467,62.7376 -34.5794,71.656 -67.8001,19.4351 -263.0612,31.591 -612.9765,38.1605 -226.9934,4.2617 -303.8542,4.2265 -542,-0.248 z m 798,-131.5413 c 99.0283,-4.8728 170.5134,-10.967 190,-16.1978 15.7913,-4.2389 40,-24.473 40,-33.4327 0,-4.3398 -7.1638,-6.6761 -27,-8.8053 -34.8209,-3.7378 -585.3115,0.7188 -747,6.0474 -338.1856,11.1453 -550.1938,22.076 -597.5297,30.8075 -49.5789,9.1452 98.4333,21.723 317.5297,26.9831 111.0405,2.6659 744.4253,-1.4866 824,-5.4022 z m -98,-112.1774 c 167.7977,-4.6508 199.5052,-10.112 203.2263,-35.0027 0.6746,-4.5118 -13.1725,-60.1312 -30.7712,-123.5987 C 3238.9353,3516.4045 3159.8925,3172.6314 3133.6229,2928 c -2.7169,-25.3 -4.9241,-81.1 -4.905,-124 0.04,-87.6093 6.2832,-134.8555 25.487,-192.846 22.0346,-66.539 39.053,-93.6507 126.6694,-201.7955 241.2235,-297.7419 294.8177,-579.6087 148.4283,-780.6255 -26.8298,-36.8418 -79.5897,-85.7946 -125.6936,-116.6236 -146.3036,-97.8312 -377.6161,-158.583 -550.7771,-144.6558 -91.9998,7.3995 -159.8319,25.3007 -236.8319,62.501 -155.9505,75.3428 -264.6022,215.7376 -302.8212,391.2918 -7.5876,34.8526 -8.8723,52.9165 -8.8723,124.7536 0,72.2586 1.2668,89.8707 9.0628,126 31.3278,145.1837 93.5452,262.158 213.575,401.5408 86.5092,100.4574 119.6213,212.9799 113.7237,386.4592 -8.2651,243.1185 -81.4763,571.6776 -290.6418,1304.3507 -19.1572,67.1044 -28.3583,105.7818 -26.7187,112.3142 5.3195,21.1945 42.3784,27.5888 180.6925,31.1774 160.9966,4.177 689.3551,4.2745 838,0.1548 z"
       id="path75603"
       transform="scale(0.26458333)" /><path
       style="fill:#ffffff;stroke:#ffffff;stroke-width:5.65685;stroke-opacity:1"
       d="M 2675.692,5573.2086 C 2135.5474,5305.0447 317.19636,4306.5826 290.09685,4263.271 276.65133,4241.7818 262.43234,4102.8992 252.077,3891.9157 219.57314,3229.6704 219.57469,1848.2555 252.08,1516.0369 c 7.26874,-74.2905 13.11689,-96.5861 29.28528,-111.6475 36.34604,-33.8578 454.24813,-269.2452 1076.69032,-606.45639 l 282.4324,-153.00914 265.8722,0.0477 265.8721,0.0477 -115.9655,62.80529 c -63.781,34.54291 -416.3445,225.88047 -783.4743,425.19454 -367.1298,199.3141 -688.31862,373.5012 -713.7529,387.0824 l -46.24414,24.6931 -3.16021,35.1186 c -3.63446,40.389 -17.78072,328.0496 -25.92926,527.265 -25.38074,620.5082 -16.63994,1585.7214 17.10999,1889.3893 10.63198,95.6622 14.90245,108.9774 40.04104,124.8467 153.90337,97.1549 1848.72918,1030.2563 2200.79808,1211.6689 86.1587,44.3955 141.7459,20.7968 836.3055,-355.0417 785.203,-424.8873 1379.1418,-751.4803 1507.5516,-828.967 46.0515,-27.789 49.5199,-34.631 58.8177,-116.0287 25.7854,-225.7374 40.5969,-753.1189 40.5838,-1445.0349 -0.011,-470.3877 -5.5425,-750.2858 -17.707,-895.6473 -8.6238,-103.0501 -12.7439,-120.1062 -33.1225,-137.119 -50.0982,-41.8238 -756.4377,-435.12 -1447.9267,-806.2186 l -188.788,-101.31607 263.8793,-1.47024 263.8792,-1.47024 236.0357,128.19355 c 662.7905,359.9687 1087.2577,599.0592 1124.0191,633.1286 31.2717,28.9815 44.5776,219.9818 54.6459,784.4168 12.7372,714.0505 -11.7733,1691.6343 -49.6792,1981.4217 -11.8978,90.9576 -15.8988,99.2409 -62.4765,129.3458 -307.2697,198.5996 -2398.1092,1316.1475 -2499.7295,1336.0985 -13.305,2.6122 -42.6874,-9.771 -152.2512,-64.1657 z"
       id="path75605"
       transform="scale(0.26458333)" /><path
       style="fill:#ffffff;stroke:#ffffff;stroke-width:5.65685;stroke-opacity:1"
       d="m 2797.3144,5635.9022 c -4.6669,-1.6984 -76.5392,-37.0966 -159.7161,-78.6626 C 2055.2539,5266.2252 331.73293,4318.3013 287.51899,4264.7133 c -16.57714,-20.0918 -35.04088,-235.8857 -46.90166,-548.1601 -23.80942,-626.8622 -20.5181,-1882.4198 5.70912,-2177.8889 8.06654,-90.8754 10.95888,-105.6771 24.56087,-125.6905 22.91465,-33.7158 322.14763,-203.9723 1124.80048,-639.98487 l 236.0328,-128.21638 272.0555,1.46863 272.0555,1.46863 -672.137,364.58809 c -369.6754,200.5235 -742.62022,402.858 -828.76635,449.6322 l -156.62931,85.0441 -3.13004,25.5435 c -9.47561,77.3284 -30.34238,584.1937 -37.73066,916.4982 -6.80535,306.0855 -3.65573,873.2825 6.36096,1145.5129 10.488,285.0392 25.17508,440.8697 43.97907,466.6199 15.17701,20.7833 299.82154,182.3793 1013.71453,575.4972 737.8896,406.3321 1189.8586,650.1048 1229.5785,663.182 75.2112,24.7622 158.1971,-14.5241 1030.3347,-487.7703 647.19,-351.1832 1156.0816,-631.5342 1264.307,-696.5131 56.8111,-34.1096 64.5486,-46.4103 73.3142,-116.5506 9.0267,-72.2297 21.6086,-279.9052 29.6449,-489.3179 10.1933,-265.6195 10.156,-1634.7288 -0.051,-1779.0806 -8.6017,-121.6778 -15.2427,-174.3086 -24.5807,-194.8031 -3.6804,-8.0778 -22.1739,-24.4551 -41.0966,-36.3941 -136.376,-86.0456 -783.1939,-444.99 -1372.2485,-761.5153 -126.0065,-67.70886 -231.5209,-125.33329 -234.4767,-128.05427 -3.0752,-2.83101 110.9599,-4.94725 266.5863,-4.94725 h 271.9601 l 333.0404,181.71806 c 572.6189,312.44016 939.3467,518.91056 999.3571,562.64526 31.8638,23.2218 36.0656,32.6098 46.5493,104.0034 34.9506,238.0118 42.7608,1447.8969 14.0053,2169.565 -11.6118,291.4163 -30.4685,528.3595 -46.2372,580.9904 -9.3005,31.0425 -35.6185,52.3136 -144.2082,116.554 -426.6727,252.4145 -2029.2896,1110.5031 -2330.8698,1248.0167 -64.323,29.3298 -87.8348,35.2629 -109.0876,27.528 z"
       id="path75607"
       transform="scale(0.26458333)" /><path
       style="fill:#ffffff;stroke:#ffffff;stroke-opacity:1"
       d="m 2530.5,4423.9436 c -82.1657,-1.2926 -181.8728,-5.4446 -252,-10.4939 -50.9164,-3.666 -88.1901,-8.6753 -85.3699,-11.4729 3.0446,-3.0203 60.4005,-8.4108 137.8699,-12.9577 119.7933,-7.0309 397.3357,-18.1365 524.5,-20.9874 142.397,-3.1923 342.8097,-5.2465 527,-5.4016 159.7928,-0.1346 164.9377,-0.023 178.6192,3.8869 2.8155,0.8045 5.6759,2.1336 6.3563,2.9535 2.7482,3.3113 -6.9947,14.7071 -20.3071,23.7525 -7.9759,5.4193 -14.8566,8.4234 -23.4195,10.2246 -19.8606,4.1778 -87.3824,9.892 -165.7489,14.0268 -55.1521,2.9099 -215.2202,4.9862 -503.5,6.5311 -195.0812,1.0454 -254.3299,1.0341 -324,-0.062 z"
       id="path75619"
       transform="scale(0.26458333)" /><path
       style="fill:#ffffff;stroke:#ffffff;stroke-opacity:1"
       d="m 2682,4556.3302 c -213.4873,-3.5239 -280.2532,-5.222 -388,-9.8685 -113.3718,-4.889 -223.471,-12.8544 -270.75,-19.588 l -7.75,-1.1038 v -225.032 -225.032 l 32.9424,-120.603 c 39.6333,-145.0985 84.0576,-310.292 84.0576,-312.5717 0,-0.2922 59.3654,-0.5312 131.9232,-0.5312 h 131.9232 l -3.493,13.25 c -35.4896,134.621 -74.289,275.6524 -126.2076,458.75 -32.9576,116.2291 -41.1542,148.077 -41.1421,159.858 0.015,14.2947 21.5466,22.3598 70.9963,26.5928 71.5869,6.1279 191.3754,7.8869 536.5,7.878 295.3967,-0.01 392.6561,-1.0768 486.5,-5.348 77.351,-3.5205 108.2442,-8.7605 118.4864,-20.0975 4.203,-4.6522 4.9598,-7.3405 4.1763,-14.8363 -0.8179,-7.8253 -15.7726,-66.6462 -31.1565,-122.547 -45.1704,-164.1363 -72.4626,-264.982 -98.6458,-364.5 -11.8176,-44.9169 -35.8604,-137.8949 -35.8604,-138.6791 0,-0.1765 60.4417,-0.3209 134.315,-0.3209 h 134.3149 l 6.8165,26.75 c 12.7293,49.9545 44.3104,171.4035 70.9247,272.75 74.9861,285.5451 97.4535,380.8012 107.6711,456.5 2.6398,19.5575 3.8384,66.8328 2.0369,80.3463 -3.5448,26.5919 -13.2344,33.8353 -57.0791,42.669 -89.6469,18.0617 -301.9744,28.7755 -693.5,34.993 -52.6625,0.8363 -255.6421,1.0541 -300,0.3219 z"
       id="path75621"
       transform="scale(0.26458333)" /></g></svg>
