<?xml version="1.0" encoding="UTF-8" standalone="no"?>
<!-- Created with Inkscape (http://www.inkscape.org/) -->

<svg
   width="1500mm"
   height="1500mm"
   viewBox="0 0 1500 1500"
   version="1.1"
   id="svg5"
   xml:space="preserve"
   inkscape:export-filename="pleroma.svg"
   inkscape:export-xdpi="96"
   inkscape:export-ydpi="96"
   inkscape:version="1.2.1 (9c6d41e410, 2022-07-14)"
   sodipodi:docname="question.svg"
   xmlns:inkscape="http://www.inkscape.org/namespaces/inkscape"
   xmlns:sodipodi="http://sodipodi.sourceforge.net/DTD/sodipodi-0.dtd"
   xmlns="http://www.w3.org/2000/svg"
   xmlns:svg="http://www.w3.org/2000/svg"><sodipodi:namedview
     id="namedview7"
     pagecolor="#393939"
     bordercolor="#000000"
     borderopacity="0.24705882"
     inkscape:showpageshadow="2"
     inkscape:pageopacity="0"
     inkscape:pagecheckerboard="0"
     inkscape:deskcolor="#3c3c3c"
     inkscape:document-units="mm"
     showgrid="false"
     inkscape:zoom="0.125"
     inkscape:cx="2348"
     inkscape:cy="2712"
     inkscape:window-width="1920"
     inkscape:window-height="1009"
     inkscape:window-x="-8"
     inkscape:window-y="-8"
     inkscape:window-maximized="1"
     inkscape:current-layer="layer1" /><defs
     id="defs2" /><g
     inkscape:label="Layer 1"
     inkscape:groupmode="layer"
     id="layer1"><rect
       style="fill:#000000;stroke-width:0.264583"
       id="rect231"
       width="1500"
       height="1500"
       x="-1.4210855e-14"
       y="-5.6843419e-14" /><circle
       r="0"
       style="fill:none;stroke:#000000;stroke-width:110.653;stroke-miterlimit:4;stroke-dasharray:none;stroke-opacity:1"
       cy="1221.2555"
       cx="840.45007"
       id="path3713" /><path
       d="m 875.00003,1218.75 v -187.5 c 0,-17.5781 -13.672,-31.2498 -31.2501,-31.2498 h -187.4999 c -17.5781,0 -31.25,13.6717 -31.25,31.2498 v 187.5 c 0,17.5781 13.6719,31.2501 31.25,31.2501 h 187.4999 c 17.5781,0 31.2501,-13.672 31.2501,-31.2501 z M 1124.9999,562.5 c 0,-178.7108 -187.49997,-312.4998 -355.46856,-312.4998 -159.1797,0 -278.32031,68.3593 -362.3047,208.0077 -8.7891,13.672 -4.8828,31.2501 7.8125,41.0156 l 128.9063,97.6561 c 4.8827,3.9065 11.7187,5.8594 18.5546,5.8594 8.7891,0 18.5547,-3.9061 24.4141,-11.7187 45.8984,-58.5938 65.4297,-76.1719 83.9844,-89.8436 16.6015,-11.7187 48.8281,-23.4375 83.9844,-23.4375 62.4999,0 120.1171,40.039 120.1171,83.0079 0,50.7811 -26.3673,76.1719 -85.9375,103.5155 -69.3359,31.2501 -164.0625,112.3048 -164.0625,207.0314 v 35.1562 c 0,17.5782 13.6719,31.2498 31.25,31.2498 h 187.4999 c 17.5781,0 31.2501,-13.6716 31.2501,-31.2498 0,-22.4612 28.3203,-70.3125 74.2187,-96.6798 C 1023.4377,767.5781 1124.9999,710.9376 1124.9999,562.5 Z m 375,187.5 c 0,414.0627 -335.9372,750 -749.99987,750 C 335.93753,1500 6.5e-5,1164.0627 6.5e-5,750 6.5e-5,335.9376 335.93753,0 750.00003,0 1164.0627,0 1499.9999,335.9376 1499.9999,750 Z"
       id="path75637"
       style="stroke-width:0.976561;fill:#ffffff" /></g></svg>
