<?xml version="1.0" encoding="UTF-8" standalone="no"?>
<!-- Created with Inkscape (http://www.inkscape.org/) -->

<svg
   width="1500mm"
   height="1500mm"
   viewBox="0 0 1500 1500"
   version="1.1"
   id="svg5"
   xml:space="preserve"
   inkscape:export-filename="pleroma.svg"
   inkscape:export-xdpi="96"
   inkscape:export-ydpi="96"
   inkscape:version="1.2.1 (9c6d41e410, 2022-07-14)"
   sodipodi:docname="xmpp.svg"
   xmlns:inkscape="http://www.inkscape.org/namespaces/inkscape"
   xmlns:sodipodi="http://sodipodi.sourceforge.net/DTD/sodipodi-0.dtd"
   xmlns="http://www.w3.org/2000/svg"
   xmlns:svg="http://www.w3.org/2000/svg"><sodipodi:namedview
     id="namedview7"
     pagecolor="#393939"
     bordercolor="#000000"
     borderopacity="0.24705882"
     inkscape:showpageshadow="2"
     inkscape:pageopacity="0"
     inkscape:pagecheckerboard="0"
     inkscape:deskcolor="#3c3c3c"
     inkscape:document-units="mm"
     showgrid="false"
     inkscape:zoom="0.075024142"
     inkscape:cx="4098.6806"
     inkscape:cy="2412.5567"
     inkscape:window-width="1920"
     inkscape:window-height="1009"
     inkscape:window-x="-8"
     inkscape:window-y="-8"
     inkscape:window-maximized="1"
     inkscape:current-layer="layer1" /><defs
     id="defs2" /><g
     inkscape:label="Layer 1"
     inkscape:groupmode="layer"
     id="layer1"><rect
       style="fill:#000000;stroke-width:0.264583"
       id="rect231"
       width="1500"
       height="1500"
       x="-1.4210855e-14"
       y="-5.6843419e-14" /><path
       id="path3342"
       d="m 381.84713,1284.7376 0.2397,-10.8182 10.71312,-2.9138 c 73.99159,-20.1251 145.39101,-53.3865 214.52347,-99.9359 18.54211,-12.485 47.05399,-33.9646 46.65873,-35.1506 -0.18787,-0.5629 -4.16851,-3.3033 -8.8464,-6.0898 C 551.32087,1073.947 467.10908,1011.1315 385.96327,936.50662 368.23641,920.20407 325.97146,878.0908 307.63634,858.46051 154.77852,694.80486 53.183792,513.12015 15.775362,336.51726 7.5101422,297.49763 1.9762522,254.71485 0.57113217,218.97318 L -7.8320555e-6,204.4442 5.4922222,206.53179 c 3.02076,1.14819 50.4230598,19.52298 105.3385178,40.83293 142.82569,55.4235 144.7934,56.10608 260.91734,90.50842 53.23582,15.77135 97.00961,28.89259 97.27513,29.15824 0.26562,0.26561 0.35603,12.88868 0.20116,28.05119 -0.62495,61.14475 6.68955,120.60549 23.00092,186.97942 33.43718,136.06209 101.23359,274.19453 191.60431,390.3861 24.78151,31.86211 63.09728,75.42041 66.34309,75.42041 2.36093,0 23.11155,-22.4922 45.28138,-49.0818 113.5966,-136.24293 194.9107,-306.90062 224.24633,-470.63591 8.6079,-48.045 11.8054,-84.57219 11.5045,-131.42576 -0.1036,-16.14465 -0.026,-29.51141 0.1688,-29.70389 0.1966,-0.19241 42.9739,-12.95431 95.0611,-28.35963 115.3525,-34.11671 120.4018,-35.87024 267.3995,-92.8631 l 105.8457,-41.03764 0.275,6.52756 c 0.308,7.31664 -0.9966,28.49568 -2.9101,47.23742 -3.2658,31.98872 -10.4064,72.39225 -18.7062,105.84563 -51.8347,208.92629 -194.6073,425.30306 -397.3273,602.16283 -67.0858,58.52779 -138.54683,110.66649 -215.33383,157.10959 -10.72377,6.486 -19.49784,12.1131 -19.49784,12.5046 0,0.8908 19.68064,15.8323 35.56754,27.0028 72.3313,50.858 148.85953,87.0651 230.54643,109.0762 l 5.9993,1.6166 0.24,10.8559 0.2401,10.8559 -2.8111,-5e-4 c -4.4869,-9e-4 -32.0884,-3.25 -51.6628,-6.0815 -73.39653,-10.6173 -152.41233,-32.7788 -220.69036,-61.8968 -34.08324,-14.5354 -61.24475,-26.4411 -74.56335,-32.6835 -7.77771,-3.6455 -15.29836,-7.0127 -16.71251,-7.4827 -2.30349,-0.7657 -4.355,-0.033 -19.71212,7.0391 -17.31609,7.9744 -51.08189,22.7514 -76.27743,33.3815 -81.95167,34.5757 -169.87408,57.267 -257.42067,66.4358 -6.76746,0.7088 -13.43187,1.2886 -14.80975,1.2886 h -2.50517 z"
       style="fill:#ffffff;stroke-width:0.857049" /></g></svg>
