<?xml version="1.0" encoding="UTF-8" standalone="no"?>
<!-- Created with Inkscape (http://www.inkscape.org/) -->

<svg
   width="200mm"
   height="200mm"
   viewBox="0 0 200 200"
   version="1.1"
   id="svg5"
   xml:space="preserve"
   inkscape:version="1.2.2 (b0a8486541, 2022-12-01)"
   sodipodi:docname="akkoma.svg"
   xmlns:inkscape="http://www.inkscape.org/namespaces/inkscape"
   xmlns:sodipodi="http://sodipodi.sourceforge.net/DTD/sodipodi-0.dtd"
   xmlns="http://www.w3.org/2000/svg"
   xmlns:svg="http://www.w3.org/2000/svg"><sodipodi:namedview
     id="namedview7"
     pagecolor="#505050"
     bordercolor="#eeeeee"
     borderopacity="1"
     inkscape:showpageshadow="0"
     inkscape:pageopacity="0"
     inkscape:pagecheckerboard="0"
     inkscape:deskcolor="#505050"
     inkscape:document-units="mm"
     showgrid="false"
     inkscape:zoom="0.67882997"
     inkscape:cx="149.52198"
     inkscape:cy="329.97954"
     inkscape:window-width="1920"
     inkscape:window-height="1011"
     inkscape:window-x="0"
     inkscape:window-y="0"
     inkscape:window-maximized="1"
     inkscape:current-layer="layer1" /><defs
     id="defs2" /><g
     inkscape:label="Layer 1"
     inkscape:groupmode="layer"
     id="layer1"><path
       style="fill:#ffffff;stroke-width:0.742757"
       d="m 29.267847,200 c -13.78892,-3.45248 -18.833063,-36.20449 -10.039883,-65.18969 0.371786,-1.22555 1.729056,-5.73779 3.016144,-10.02722 5.617119,-18.71986 13.427754,-34.333395 23.480086,-46.936911 2.180701,-2.734147 3.715253,-5.119418 3.410117,-5.300604 C 48.829173,72.364389 45.025728,70.382949 40.682219,68.142376 7.1340073,50.836738 12.922809,41.356508 57.121209,41.22053 c 23.285714,-0.07164 23.004742,0.01015 36.395069,-10.594918 2.24684,-1.779483 4.58713,-3.63257 5.20066,-4.117968 C 118.35213,10.972958 137.66283,0 145.3663,0 c 5.88645,0 6.085,0.19289547 6.085,5.9120921 0,3.3715376 -0.58317,5.3006759 -3.71379,12.2854429 -4.99828,11.151736 -7.2965,18.368851 -8.98791,28.224747 -2.17233,12.65833 -2.60838,11.504289 6.20257,16.415248 6.45349,3.59698 15.60373,9.390889 16.89772,10.699592 0.20425,0.206584 1.70833,1.35712 3.3424,2.556753 34.06191,25.006215 23.27335,37.889535 -22.96138,27.419695 -1.91943,-0.43466 -2.09667,-0.33065 -1.56705,0.91957 16.07181,37.94058 16.98506,86.17395 1.77849,93.93176 -16.13991,8.23397 -33.35618,-4.25058 -42.34995,-30.7105 C 94.191798,150.29469 94.532718,150.48942 87.606978,160.52296 74.054782,180.15641 64.480664,191.26845 57.793511,195.1255 50.095857,199.5654 36.684886,201.85708 29.267847,200 Z M 87.631458,120.68589 C 103.0621,117.43996 107.58885,110.00761 101.0624,98.63399 92.022338,82.879959 76.336557,82.336187 66.989371,97.452806 c -7.437513,12.028214 -4.67393,19.776134 8.180778,22.935514 6.710932,1.6494 6.103894,1.63491 12.461309,0.29757 z"
       id="path192" /><path
       style="fill:#000000;stroke-width:0.750577"
       id="path188"
       d="" /><path
       style="fill:#000000;stroke-width:0.750577"
       id="path186"
       d="" /></g></svg>
