<?xml version="1.0" encoding="UTF-8"?>
<!-- Created with Inkscape (http://www.inkscape.org/) -->
<svg id="svg5" width="200mm" height="200mm" version="1.1" viewBox="0 0 200 200" xml:space="preserve" xmlns="http://www.w3.org/2000/svg"><g id="layer1"><path id="path192" d="m29.268 200c-13.789-3.4525-18.833-36.204-10.04-65.19 0.37179-1.2256 1.7291-5.7378 3.0161-10.027 5.6171-18.72 13.428-34.333 23.48-46.937 2.1807-2.7341 3.7153-5.1194 3.4101-5.3006-0.30514-0.18119-4.1086-2.1626-8.4521-4.4032-33.548-17.306-27.759-26.786 16.439-26.922 23.286-0.07164 23.005 0.01015 36.395-10.595 2.2468-1.7795 4.5871-3.6326 5.2007-4.118 19.635-15.535 38.946-26.508 46.649-26.508 5.8864 0 6.085 0.1929 6.085 5.9121 0 3.3715-0.58317 5.3007-3.7138 12.285-4.9983 11.152-7.2965 18.369-8.9879 28.225-2.1723 12.658-2.6084 11.504 6.2026 16.415 6.4535 3.597 15.604 9.3909 16.898 10.7 0.20425 0.20658 1.7083 1.3571 3.3424 2.5568 34.062 25.006 23.273 37.89-22.961 27.42-1.9194-0.43466-2.0967-0.33065-1.567 0.91957 16.072 37.941 16.985 86.174 1.7785 93.932-16.14 8.234-33.356-4.2506-42.35-30.71-5.9006-17.36-5.5597-17.165-12.485-7.1314-13.552 19.633-23.126 30.745-29.813 34.603-7.6977 4.4399-21.109 6.7316-28.526 4.8745zm58.364-79.314c15.431-3.2459 19.957-10.678 13.431-22.052-9.0401-15.754-24.726-16.298-34.073-1.1812-7.4375 12.028-4.6739 19.776 8.1808 22.936 6.7109 1.6494 6.1039 1.6349 12.461 0.29757z" fill="#fff" stroke-width=".74276"/></g></svg>
