<?xml version="1.0" encoding="UTF-8" standalone="no"?>
<svg
   width="1536"
   height="1536"
   version="1.1"
   id="svg4"
   sodipodi:docname="bars.svg"
   inkscape:version="1.2.2 (b0a8486541, 2022-12-01)"
   xmlns:inkscape="http://www.inkscape.org/namespaces/inkscape"
   xmlns:sodipodi="http://sodipodi.sourceforge.net/DTD/sodipodi-0.dtd"
   xmlns="http://www.w3.org/2000/svg"
   xmlns:svg="http://www.w3.org/2000/svg">
  <defs
     id="defs8" />
  <sodipodi:namedview
     id="namedview6"
     pagecolor="#ffffff"
     bordercolor="#000000"
     borderopacity="0.25"
     inkscape:showpageshadow="2"
     inkscape:pageopacity="0.0"
     inkscape:pagecheckerboard="0"
     inkscape:deskcolor="#d1d1d1"
     showgrid="false"
     inkscape:zoom="0.47259141"
     inkscape:cx="673.94369"
     inkscape:cy="789.2653"
     inkscape:window-width="1920"
     inkscape:window-height="1011"
     inkscape:window-x="0"
     inkscape:window-y="0"
     inkscape:window-maximized="1"
     inkscape:current-layer="svg4" />
  <path
     d="m 1536,1216 v 128 c 0,35 -29,64 -64,64 H 64 c -35,0 -64,-29 -64,-64 v -128 c 0,-35 29,-64 64,-64 h 1408 c 35,0 64,29 64,64 z m 0,-512 v 128 c 0,35 -29,64 -64,64 H 64 C 29,896 0,867 0,832 V 704 c 0,-35 29,-64 64,-64 h 1408 c 35,0 64,29 64,64 z m 0,-512 v 128 c 0,35 -29,64 -64,64 H 64 C 29,384 0,355 0,320 V 192 c 0,-35 29,-64 64,-64 h 1408 c 35,0 64,29 64,64 z"
     id="path2"
     style="fill:#ffffff" />
</svg>
