<?xml version="1.0" encoding="UTF-8" standalone="no"?>
<svg
   width="1536"
   height="1536"
   version="1.1"
   id="svg4"
   sodipodi:docname="bars.svg"
   inkscape:version="1.2.1 (9c6d41e410, 2022-07-14)"
   xmlns:inkscape="http://www.inkscape.org/namespaces/inkscape"
   xmlns:sodipodi="http://sodipodi.sourceforge.net/DTD/sodipodi-0.dtd"
   xmlns="http://www.w3.org/2000/svg"
   xmlns:svg="http://www.w3.org/2000/svg">
  <defs
     id="defs8" />
  <sodipodi:namedview
     id="namedview6"
     pagecolor="#ffffff"
     bordercolor="#000000"
     borderopacity="0.25"
     inkscape:showpageshadow="2"
     inkscape:pageopacity="0.0"
     inkscape:pagecheckerboard="0"
     inkscape:deskcolor="#d1d1d1"
     showgrid="false"
     inkscape:zoom="0.15364583"
     inkscape:cx="764.74576"
     inkscape:cy="768"
     inkscape:window-width="1440"
     inkscape:window-height="831"
     inkscape:window-x="0"
     inkscape:window-y="0"
     inkscape:window-maximized="1"
     inkscape:current-layer="svg4" />
  <path
     d="M1536 1344v128c0 35-29 64-64 64H64c-35 0-64-29-64-64v-128c0-35 29-64 64-64h1408c35 0 64 29 64 64zm0-512v128c0 35-29 64-64 64H64c-35 0-64-29-64-64V832c0-35 29-64 64-64h1408c35 0 64 29 64 64zm0-512v128c0 35-29 64-64 64H64c-35 0-64-29-64-64V320c0-35 29-64 64-64h1408c35 0 64 29 64 64z"
     id="path2"
     style="fill:#ffffff" />
</svg>
