<?xml version="1.0" encoding="UTF-8"?>
<!-- Created with Inkscape (http://www.inkscape.org/) -->
<svg id="svg5" width="512mm" height="512mm" version="1.1" viewBox="0 0 512 512" xml:space="preserve" xmlns="http://www.w3.org/2000/svg"><g id="layer1"><path id="path28" d="m469.33 21.337v256c0 19.105-3.7218 38.052-11.166 56.827-7.4472 18.784-16.671 35.446-27.663 50.008-11.007 14.554-24.121 28.713-39.335 42.493-15.229 13.783-29.281 25.224-42.173 34.336-12.887 9.106-26.332 17.72-40.329 25.834-14.001 8.1096-23.949 13.607-29.836 16.498-5.8864 2.8924-10.611 5.1158-14.166 6.6698-2.6668 1.3283-5.5592 1.9962-8.666 1.9962-3.1116 0-5.9992-0.66882-8.6675-1.9962-3.5567-1.5535-8.2781-3.7774-14.163-6.6698-5.8946-2.8909-15.835-8.388-29.837-16.498-14.001-8.1145-27.447-16.728-40.336-25.834-12.887-9.1124-26.942-20.553-42.165-34.336-15.223-13.78-28.331-27.94-39.329-42.493-11.001-14.562-20.224-31.223-27.67-50.008-7.4454-18.775-11.167-37.721-11.167-56.827v-256c0-5.7784 2.1135-10.783 6.3363-15 4.2192-4.2225 9.222-6.3362 14.997-6.3362h384.01c5.7703 0 10.765 2.1138 14.991 6.3362 4.224 4.2177 6.3345 9.2221 6.3345 15m-64.004 256v-213.34h-149.33v379c26.439-14.001 50.113-29.221 71.002-45.664 52.216-40.887 78.327-80.887 78.327-120" fill="#fff"/></g></svg>
