<?xml version="1.0" encoding="UTF-8" standalone="no"?>
<!-- Created with Inkscape (http://www.inkscape.org/) -->

<svg
   width="512mm"
   height="512mm"
   viewBox="0 0 512 512"
   version="1.1"
   id="svg5"
   xml:space="preserve"
   inkscape:version="1.2.1 (9c6d41e410, 2022-07-14)"
   sodipodi:docname="bitwarden.svg"
   xmlns:inkscape="http://www.inkscape.org/namespaces/inkscape"
   xmlns:sodipodi="http://sodipodi.sourceforge.net/DTD/sodipodi-0.dtd"
   xmlns="http://www.w3.org/2000/svg"
   xmlns:svg="http://www.w3.org/2000/svg"><sodipodi:namedview
     id="namedview7"
     pagecolor="#000000"
     bordercolor="#ffffff"
     borderopacity="0.24705882"
     inkscape:showpageshadow="2"
     inkscape:pageopacity="0"
     inkscape:pagecheckerboard="0"
     inkscape:deskcolor="#595959"
     inkscape:document-units="mm"
     showgrid="false"
     inkscape:zoom="0.373591"
     inkscape:cx="659.81247"
     inkscape:cy="979.68099"
     inkscape:window-width="1920"
     inkscape:window-height="1011"
     inkscape:window-x="0"
     inkscape:window-y="0"
     inkscape:window-maximized="1"
     inkscape:current-layer="layer1" /><defs
     id="defs2"><clipPath
       clipPathUnits="userSpaceOnUse"
       id="clipPath18"><path
         d="M 0,1500 H 1500 V 0 H 0 Z"
         id="path16"
         inkscape:connector-curvature="0" /></clipPath></defs><g
     inkscape:label="Layer 1"
     inkscape:groupmode="layer"
     id="layer1"><path
       d="M 469.33388,21.336638 V 277.33829 c 0,19.10515 -3.72178,38.0516 -11.16563,56.82654 -7.44718,18.78441 -16.67104,35.44552 -27.66311,50.00764 -11.00719,14.55381 -24.12124,28.7134 -39.33459,42.49343 -15.22937,13.78337 -29.28105,25.2239 -42.17288,34.33634 -12.88667,9.10603 -26.3315,17.71966 -40.32906,25.83413 -14.00088,8.10965 -23.94949,13.6066 -29.83557,16.4976 -5.8864,2.8924 -10.6111,5.11582 -14.16628,6.66984 -2.66683,1.32826 -5.55923,1.99619 -8.66601,1.99619 -3.11159,0 -5.99915,-0.66882 -8.6675,-1.99619 -3.55669,-1.55354 -8.27807,-3.77738 -14.16264,-6.66984 -5.89456,-2.89088 -15.83502,-8.38795 -29.83741,-16.4976 -14.00117,-8.11447 -27.44722,-16.7281 -40.33571,-25.83413 C 150.11051,451.8898 136.05582,440.44927 120.83279,426.6659 105.60976,412.88587 92.502055,398.72628 81.503335,384.17247 70.502792,369.61035 61.278933,352.94924 53.833567,334.16483 46.388202,315.38989 42.666124,296.44344 42.666124,277.33829 V 21.336638 c 0,-5.778352 2.113511,-10.782718 6.336301,-15.000428 C 53.221586,2.113693 58.22447,0 63.999587,0 H 448.00858 c 5.77028,0 10.76501,2.113814 14.99081,6.33621 4.224,4.21771 6.33449,9.222076 6.33449,15.000428 M 405.33016,277.33829 V 64.00042 H 256.00075 v 378.99775 c 26.43946,-14.00094 50.11261,-29.22057 71.0025,-45.66397 52.21643,-40.88715 78.32691,-80.88725 78.32691,-119.99591"
       style="fill:#ffffff;fill-opacity:1;fill-rule:nonzero;stroke:none;stroke-width:1.636"
       id="path28"
       inkscape:connector-curvature="0" /></g></svg>
