<?xml version="1.0" encoding="UTF-8" standalone="no"?>
<!-- Created with Inkscape (http://www.inkscape.org/) -->

<svg
   width="1500mm"
   height="1500mm"
   viewBox="0 0 1500 1500"
   version="1.1"
   id="svg5"
   xml:space="preserve"
   inkscape:export-filename="pleroma.svg"
   inkscape:export-xdpi="96"
   inkscape:export-ydpi="96"
   inkscape:version="1.2.1 (9c6d41e410, 2022-07-14)"
   sodipodi:docname="book.svg"
   xmlns:inkscape="http://www.inkscape.org/namespaces/inkscape"
   xmlns:sodipodi="http://sodipodi.sourceforge.net/DTD/sodipodi-0.dtd"
   xmlns="http://www.w3.org/2000/svg"
   xmlns:svg="http://www.w3.org/2000/svg"><sodipodi:namedview
     id="namedview7"
     pagecolor="#393939"
     bordercolor="#000000"
     borderopacity="0.24705882"
     inkscape:showpageshadow="2"
     inkscape:pageopacity="0"
     inkscape:pagecheckerboard="0"
     inkscape:deskcolor="#3c3c3c"
     inkscape:document-units="mm"
     showgrid="false"
     inkscape:zoom="0.125"
     inkscape:cx="2348"
     inkscape:cy="2712"
     inkscape:window-width="1920"
     inkscape:window-height="1009"
     inkscape:window-x="-8"
     inkscape:window-y="-8"
     inkscape:window-maximized="1"
     inkscape:current-layer="layer1" /><defs
     id="defs2" /><g
     inkscape:label="Layer 1"
     inkscape:groupmode="layer"
     id="layer1"><circle
       r="0"
       style="fill:none;stroke:#000000;stroke-width:110.653;stroke-miterlimit:4;stroke-dasharray:none;stroke-opacity:1"
       cy="1221.2555"
       cx="840.45007"
       id="path3713" /><path
       d="m 1477.3652,373.28278 c 22.5309,32.44456 28.8396,74.80267 16.2222,116.25949 l -247.8403,816.52133 c -22.531,76.6053 -101.8399,136.0869 -179.3463,136.0869 H 234.5584 c -91.92625,0 -190.161178,-73.0004 -223.506958,-166.7289 -14.4198002,-40.5558 -14.4198002,-80.2101 -1.8024902,-114.4572 1.8024902,-18.0249 5.4074202,-36.0494 6.3086902,-57.6791 0.90122,-14.42 -7.2099202,-26.1362 -5.40743,-36.951 3.60494,-21.6298 22.53093,-36.9507 36.95072,-61.284 27.03713,-45.06197 57.679238,-118.06207 67.592828,-164.92667 4.5062,-17.1235 -4.50617,-36.9506 0,-52.2716 4.5062,-17.1236 21.6297,-29.741 30.6421,-45.9633 24.33342,-41.4568 55.87672,-121.6669 60.38292,-164.0251 1.80248,-18.9261 -7.20991,-39.6545 -1.80249,-54.0742 6.30869,-20.7284 26.13591,-29.74103 39.65447,-47.76555 21.62971,-29.74102 57.6792,-115.35854 63.08663,-163.12408 1.80249,-15.32099 -7.20988,-30.64231 -4.50617,-46.86459 3.60494,-17.12323 25.23465,-35.1481 39.65444,-55.87651 37.85198,-55.87685 45.0619,-179.34636 159.51907,-146.9018 l -0.90122,2.70354 c 15.32108,-3.60484 30.64208,-8.11097 45.96308,-8.11097 h 685.84191 c 42.3582,0 80.2102,18.92582 102.7411,50.46942 23.4322,32.44456 28.8396,74.80268 16.2223,117.16079 L 1104.2528,1042.001 c -42.3582,138.7905 -65.7904,169.4328 -180.24761,169.4328 H 140.82966 c -11.71607,0 -26.1359,2.7036 -34.24704,13.5184 -7.209878,10.8149 -8.111138,18.9262 -0.90123,38.7533 18.02477,52.2717 80.21017,63.0865 129.77823,63.0865 H 1067.302 c 33.3458,0 72.099,-18.9258 82.0127,-51.3704 L 1419.686,385.89988 c 5.4074,-17.12357 5.4074,-35.1481 4.5062,-51.37038 20.7284,8.11097 39.6544,20.72841 53.173,38.75328 z m -958.91691,1.80225 c -5.4074,16.22227 3.6049,28.83972 19.8272,28.83972 H 1086.228 c 15.321,0 32.4446,-12.61745 37.852,-28.83972 l 18.926,-57.6791 c 5.4074,-16.22228 -3.605,-28.83972 -19.8272,-28.83972 H 575.22629 c -15.3211,0 -32.4446,12.61744 -37.852,28.83972 z m -74.80276,230.7171 c -5.40743,16.2223 3.60494,28.8394 19.82722,28.8394 h 547.95255 c 15.321,0 32.4445,-12.6171 37.852,-28.8394 l 18.926,-57.6795 c 5.4074,-16.2222 -3.605,-28.8393 -19.8273,-28.8393 H 500.42351 c -15.32106,0 -32.44456,12.6171 -37.85199,28.8393 z"
       id="path75700"
       style="fill:#ffffff;stroke-width:0.901237" /></g></svg>
