<?xml version="1.0" encoding="UTF-8"?>
<!-- Created with Inkscape (http://www.inkscape.org/) -->
<svg id="svg5" width="1500mm" height="1500mm" version="1.1" viewBox="0 0 1500 1500" xml:space="preserve" xmlns="http://www.w3.org/2000/svg"><g id="layer1"><circle id="path3713" cx="840.45" cy="1221.3" r="0" fill="none" stroke="#000" stroke-width="110.65"/><path id="path75700" d="m1477.4 373.28c22.531 32.445 28.84 74.803 16.222 116.26l-247.84 816.52c-22.531 76.605-101.84 136.09-179.35 136.09h-831.84c-91.926 0-190.16-73-223.51-166.73-14.42-40.556-14.42-80.21-1.8025-114.46 1.8025-18.025 5.4074-36.049 6.3087-57.679 0.90122-14.42-7.2099-26.136-5.4074-36.951 3.6049-21.63 22.531-36.951 36.951-61.284 27.037-45.062 57.679-118.06 67.593-164.93 4.5062-17.124-4.5062-36.951 0-52.272 4.5062-17.124 21.63-29.741 30.642-45.963 24.333-41.457 55.877-121.67 60.383-164.03 1.8025-18.926-7.2099-39.654-1.8025-54.074 6.3087-20.728 26.136-29.741 39.654-47.766 21.63-29.741 57.679-115.36 63.087-163.12 1.8025-15.321-7.2099-30.642-4.5062-46.865 3.6049-17.123 25.235-35.148 39.654-55.877 37.852-55.877 45.062-179.35 159.52-146.9l-0.90122 2.7035c15.321-3.6048 30.642-8.111 45.963-8.111h685.84c42.358 0 80.21 18.926 102.74 50.469 23.432 32.445 28.84 74.803 16.222 117.16l-246.94 816.52c-42.358 138.79-65.79 169.43-180.25 169.43h-783.18c-11.716 0-26.136 2.7036-34.247 13.518-7.2099 10.815-8.1111 18.926-0.90123 38.753 18.025 52.272 80.21 63.086 129.78 63.086h831.84c33.346 0 72.099-18.926 82.013-51.37l270.37-889.52c5.4074-17.124 5.4074-35.148 4.5062-51.37 20.728 8.111 39.654 20.728 53.173 38.753zm-958.92 1.8022c-5.4074 16.222 3.6049 28.84 19.827 28.84h547.95c15.321 0 32.445-12.617 37.852-28.84l18.926-57.679c5.4074-16.222-3.605-28.84-19.827-28.84h-547.95c-15.321 0-32.445 12.617-37.852 28.84zm-74.803 230.72c-5.4074 16.222 3.6049 28.839 19.827 28.839h547.95c15.321 0 32.444-12.617 37.852-28.839l18.926-57.68c5.4074-16.222-3.605-28.839-19.827-28.839h-547.95c-15.321 0-32.445 12.617-37.852 28.839z" fill="#fff" stroke-width=".90124"/></g></svg>
