<?xml version="1.0" encoding="UTF-8"?>
<!-- Created with Inkscape (http://www.inkscape.org/) -->
<svg id="svg5" width="1500mm" height="1500mm" version="1.1" viewBox="0 0 1500 1500" xml:space="preserve" xmlns="http://www.w3.org/2000/svg"><g id="layer1"><rect id="rect231" x="-1.4211e-14" y="-5.6843e-14" width="1500" height="1500" stroke-width=".26458"/><path id="path432" d="m642.86 1392.9h750v-535.71h-348.21c-44.364 0-80.357-35.993-80.357-80.357v-348.21h-321.43zm214.29-1205.4v-53.571c0-14.23-12.556-26.786-26.786-26.786h-589.29c-14.23 0-26.785 12.556-26.785 26.786v53.571c0 14.23 12.556 26.786 26.785 26.786h589.29c14.23 0 26.786-12.556 26.786-26.786zm214.29 562.5h250.28l-250.28-250.28zm428.57 107.14v562.5c0 44.364-35.993 80.357-80.357 80.357h-803.57c-44.364 0-80.357-35.993-80.357-80.357v-133.93h-455.36c-44.364 0-80.357-35.993-80.357-80.357v-1125c0-44.364 35.993-80.357 80.357-80.357h910.71c44.364 0 80.357 35.993 80.357 80.357v274.55c10.882 6.6964 20.926 14.23 30.134 23.438l341.52 341.52c31.808 31.808 56.92 92.913 56.92 137.28z" fill="#fff" stroke-width=".83705"/></g></svg>
