<?xml version="1.0" encoding="UTF-8"?>
<svg id="svg4" width="1536" height="1536" version="1.1" xmlns="http://www.w3.org/2000/svg">
 <path id="path2" d="m1536 1236c0 32.323-12.929 64.647-36.202 87.919l-175.84 175.84c-23.273 23.273-55.596 36.202-87.919 36.202s-64.646-12.929-87.919-36.202l-380.12-380.12-380.12 380.12c-23.273 23.273-55.596 36.202-87.919 36.202-32.323 0-64.646-12.929-87.919-36.202l-175.84-175.84c-23.273-23.273-36.202-55.596-36.202-87.919 0-32.323 12.929-64.646 36.202-87.919l380.12-380.12-380.12-380.12c-23.273-23.273-36.202-55.596-36.202-87.919s12.929-64.646 36.202-87.919l175.84-175.84c23.273-23.273 55.596-36.202 87.919-36.202s64.646 12.929 87.919 36.202l380.12 380.12 380.12-380.12c23.273-23.273 55.596-36.202 87.919-36.202s64.647 12.929 87.919 36.202l175.84 175.84c23.273 23.273 36.202 55.596 36.202 87.919s-12.929 64.646-36.202 87.919l-380.12 380.12 380.12 380.12c23.273 23.273 36.202 55.596 36.202 87.919z" fill="#fff" stroke-width="1.2929"/>
</svg>
