<?xml version="1.0" encoding="UTF-8"?>
<!-- Created with Inkscape (http://www.inkscape.org/) -->
<svg id="svg5" width="200mm" height="200mm" version="1.1" viewBox="0 0 200 200" xml:space="preserve" xmlns="http://www.w3.org/2000/svg"><g id="layer1"><path id="path6" d="m150 137.5v8.33q0 1.82-1.17 3-1.17 1.17-2.99 1.17h-91.667q-1.82 0-2.99-1.17t-1.17-3v-8.33q0-1.82 1.17-2.99t2.99-1.17h91.667q1.82 0 2.99 1.17t1.17 2.99zm0-33.333v8.33q0 1.82-1.17 3-1.17 1.17-2.99 1.17h-91.667q-1.82 0-2.99-1.17t-1.17-3v-8.33q0-1.82 1.17-3 1.17-1.17 2.99-1.17h91.667q1.82 0 2.99 1.17t1.17 3zm-116.67 79.166h133.33v-100h-54.167q-5.21 0-8.85-3.64-3.65-3.65-3.65-8.86v-54.166h-66.666zm83.333-116.67h38.932l-38.932-38.933zm66.667 16.666v104.17q0 5.21-3.65 8.85-3.65 3.65-8.85 3.65h-141.67q-5.21 0-8.85-3.65-3.65-3.65-3.65-8.85v-175q0-5.21 3.65-8.85 3.65-3.65 8.85-3.65h70.833q5.21 0 11.459 2.6 6.25 2.6 9.9 6.25l53.125 53.125q3.64 3.65 6.25 9.9 2.6 6.25 2.6 11.458z" fill="#fff" stroke-width=".13021"/></g></svg>
