<?xml version="1.0" encoding="UTF-8" standalone="no"?>
<!-- Created with Inkscape (http://www.inkscape.org/) -->

<svg
   width="200mm"
   height="200mm"
   viewBox="0 0 200 200"
   version="1.1"
   id="svg5"
   xml:space="preserve"
   inkscape:version="1.2.2 (b0a8486541, 2022-12-01)"
   sodipodi:docname="document.svg"
   xmlns:inkscape="http://www.inkscape.org/namespaces/inkscape"
   xmlns:sodipodi="http://sodipodi.sourceforge.net/DTD/sodipodi-0.dtd"
   xmlns="http://www.w3.org/2000/svg"
   xmlns:svg="http://www.w3.org/2000/svg"><sodipodi:namedview
     id="namedview7"
     pagecolor="#505050"
     bordercolor="#eeeeee"
     borderopacity="1"
     inkscape:showpageshadow="0"
     inkscape:pageopacity="0"
     inkscape:pagecheckerboard="0"
     inkscape:deskcolor="#505050"
     inkscape:document-units="mm"
     showgrid="false"
     inkscape:zoom="0.2960754"
     inkscape:cx="153.67707"
     inkscape:cy="-70.927878"
     inkscape:window-width="1920"
     inkscape:window-height="1011"
     inkscape:window-x="0"
     inkscape:window-y="0"
     inkscape:window-maximized="1"
     inkscape:current-layer="layer1" /><defs
     id="defs2" /><g
     inkscape:label="Layer 1"
     inkscape:groupmode="layer"
     id="layer1"><path
       style="fill:#000000;stroke-width:0.750577"
       id="path188"
       d="" /><path
       style="fill:#000000;stroke-width:0.750577"
       id="path186"
       d="" /><path
       d="m 149.9995,137.5 v 8.33 q 0,1.82 -1.17,3 -1.17,1.17 -2.99,1.17 h -91.667 q -1.82,0 -2.99,-1.17 -1.17,-1.17 -1.17,-3 v -8.33 q 0,-1.82 1.17,-2.99 1.17,-1.17 2.99,-1.17 h 91.667 q 1.82,0 2.99,1.17 1.17,1.17 1.17,2.99 z m 0,-33.333 v 8.33 q 0,1.82 -1.17,3 -1.17,1.17 -2.99,1.17 h -91.667 q -1.82,0 -2.99,-1.17 -1.17,-1.17 -1.17,-3 v -8.33 q 0,-1.82 1.17,-3 1.17,-1.17 2.99,-1.17 h 91.667 q 1.82,0 2.99,1.17 1.17,1.17 1.17,3 z m -116.666,79.166 h 133.333 v -100 h -54.167 q -5.21,0 -8.85,-3.64 -3.65,-3.65 -3.65,-8.86 V 16.667 h -66.666 z m 83.333,-116.666 h 38.932 l -38.932,-38.933 z m 66.667,16.666 V 187.5 q 0,5.21 -3.65,8.85 -3.65,3.65 -8.85,3.65 H 29.1665 q -5.21,0 -8.85,-3.65 -3.65,-3.65 -3.65,-8.85 v -175 q 0,-5.21 3.65,-8.85 3.65,-3.65 8.85,-3.65 h 70.833 q 5.21,0 11.459,2.6 6.25,2.6 9.9,6.25 l 53.125,53.125 q 3.64,3.65 6.25,9.9 2.6,6.25 2.6,11.458 z"
       id="path6"
       inkscape:connector-curvature="0"
       style="fill:#ffffff;stroke-width:0.130208" /></g></svg>
