<?xml version="1.0" encoding="UTF-8"?>
<!-- Created with Inkscape (http://www.inkscape.org/) -->
<svg id="svg5" width="1500mm" height="1500mm" version="1.1" viewBox="0 0 1500 1500" xml:space="preserve" xmlns="http://www.w3.org/2000/svg"><g id="layer1"><circle id="path3713" cx="840.45" cy="1221.3" r="0" fill="none" stroke="#000" stroke-width="110.65"/><path id="path75715" d="m464.56 1063.9 65.29-118.02c-97.098-70.312-154.85-183.31-154.85-303.01 0-66.127 17.578-131.42 51.06-188.34-130.58 66.964-239.4 172.43-318.92 295.48 87.054 134.77 210.1 247.77 357.42 313.89zm325.61-635.32c0-21.764-18.415-40.178-40.178-40.178-139.79 0-254.46 114.68-254.46 254.46 0 21.764 18.415 40.179 40.179 40.179 21.763 0 40.179-18.415 40.179-40.179 0-96.261 78.683-174.11 174.11-174.11 21.763 0 40.178-18.415 40.178-40.179zm303.85-159.88c0 1.6739 0 5.8595-0.8371 7.5334-176.62 315.57-351.56 632.81-528.18 948.38l-41.016 74.498c-5.0223 8.3704-14.23 13.393-23.438 13.393-15.067 0-94.587-48.549-112.17-58.594-8.3706-5.0224-13.393-13.393-13.393-23.438 0-13.393 28.46-58.594 36.83-72.824-162.39-73.661-298.83-199.22-395.09-349.89-10.882-16.741-16.741-36.83-16.741-57.756 0-20.089 5.8594-41.016 16.741-57.757 165.74-254.46 424.39-424.39 733.26-424.39 50.223 0 101.28 5.0224 150.67 14.23l45.201-81.194c5.0223-8.3704 13.393-13.393 23.438-13.393 15.067 0 93.75 48.549 111.33 58.594 8.3706 5.0224 13.393 13.393 13.393 22.601zm30.971 374.16c0 155.69-96.261 294.64-241.07 349.89l234.37-420.2c4.1853 23.438 6.6965 46.875 6.6965 70.312zm375 107.14c0 21.764-5.8594 39.342-16.741 57.756-25.949 42.69-58.594 83.706-91.239 121.37-164.06 188.34-390.07 303.01-642.02 303.01l61.942-110.49c243.58-20.926 450.33-169.08 580.92-371.65-61.942-96.261-141.46-180.8-236.05-246.09l52.734-93.75c103.79 69.475 208.43 174.11 273.72 282.09 10.882 18.415 16.741 35.993 16.741 57.757z" fill="#f9f9f9" stroke-width=".83705"/></g></svg>
