<?xml version="1.0" encoding="UTF-8" standalone="no"?>
<!-- Created with Inkscape (http://www.inkscape.org/) -->

<svg
   width="100mm"
   height="100mm"
   viewBox="0 0 100 100"
   version="1.1"
   id="svg5"
   inkscape:version="1.2.1 (9c6d41e410, 2022-07-14)"
   sodipodi:docname="favi_shadow.svg"
   inkscape:export-filename="../Projects/itzzen/favi.png"
   inkscape:export-xdpi="130.048"
   inkscape:export-ydpi="130.048"
   xmlns:inkscape="http://www.inkscape.org/namespaces/inkscape"
   xmlns:sodipodi="http://sodipodi.sourceforge.net/DTD/sodipodi-0.dtd"
   xmlns="http://www.w3.org/2000/svg"
   xmlns:svg="http://www.w3.org/2000/svg">
  <sodipodi:namedview
     id="namedview7"
     pagecolor="#ffffff"
     bordercolor="#000000"
     borderopacity="0.25"
     inkscape:showpageshadow="2"
     inkscape:pageopacity="0.0"
     inkscape:pagecheckerboard="0"
     inkscape:deskcolor="#d1d1d1"
     inkscape:document-units="mm"
     showgrid="false"
     inkscape:zoom="1.2821173"
     inkscape:cx="70.976345"
     inkscape:cy="186.4104"
     inkscape:window-width="1440"
     inkscape:window-height="831"
     inkscape:window-x="0"
     inkscape:window-y="0"
     inkscape:window-maximized="1"
     inkscape:current-layer="layer1" />
  <defs
     id="defs2" />
  <g
     inkscape:label="Layer 1"
     inkscape:groupmode="layer"
     id="layer1">
    <rect
       style="fill:#008000;stroke-width:0.254802"
       id="rect111"
       width="96.303185"
       height="96.302711"
       x="6.1817956"
       y="-2.5604367"
       ry="26.005177"
       transform="rotate(4.9999751)" />
    <path
       id="path3034"
       style="font-size:133.847px;-inkscape-font-specification:sans-serif;fill:#006700;stroke-width:0.20077;fill-opacity:1"
       d="M 47.910771 17.776176 L 45.531071 44.975033 L 18.604549 42.619621 L 17.788578 51.94825 L 17.906917 51.958586 L 17.897616 52.063489 L 18.015438 52.073824 L 18.006136 52.178727 L 18.124475 52.189062 L 18.115173 52.293449 L 18.232996 52.303784 L 18.223694 52.408687 L 18.342033 52.419023 L 18.332731 52.523926 L 18.450553 52.534261 L 18.441252 52.639164 L 18.559591 52.6495 L 18.550289 52.753886 L 18.668111 52.764221 L 18.658809 52.869124 L 18.777148 52.87946 L 18.767847 52.984363 L 18.885669 52.994698 L 18.876367 53.099601 L 18.994706 53.109937 L 18.985404 53.21484 L 19.103227 53.225175 L 19.093925 53.329561 L 19.212264 53.339897 L 19.202962 53.4448 L 19.320785 53.455135 L 19.311483 53.560038 L 19.429822 53.570374 L 19.42052 53.675277 L 19.538342 53.685612 L 19.529041 53.790515 L 19.64738 53.80085 C 19.647177 53.80316 19.638078 53.905237 19.638078 53.905237 L 19.7559 53.915572 C 19.755696 53.917905 19.746598 54.020475 19.746598 54.020475 L 19.864937 54.030811 C 19.864733 54.033143 19.855636 54.135714 19.855636 54.135714 L 19.973458 54.146049 C 19.973254 54.148382 19.964156 54.250952 19.964156 54.250952 L 20.082495 54.261287 C 20.082293 54.263597 20.073193 54.365674 20.073193 54.365674 L 20.191532 54.376009 C 20.191328 54.378342 20.182231 54.480912 20.182231 54.480912 L 20.300053 54.491248 C 20.299849 54.49358 20.290751 54.596151 20.290751 54.596151 L 20.40909 54.606486 C 20.408886 54.608818 20.399788 54.711389 20.399788 54.711389 L 20.517611 54.721724 C 20.517407 54.724057 20.508309 54.826628 20.508309 54.826628 L 20.626648 54.836963 C 20.626446 54.839273 20.617346 54.941349 20.617346 54.941349 L 20.735168 54.951685 C 20.734964 54.954017 20.725867 55.056588 20.725867 55.056588 L 20.844206 55.066923 C 20.844002 55.069255 20.834904 55.171826 20.834904 55.171826 L 20.952726 55.182161 C 20.952522 55.184494 20.943424 55.287065 20.943424 55.287065 L 21.061764 55.2974 C 21.06156 55.299732 21.052462 55.402303 21.052462 55.402303 L 21.170284 55.412638 C 21.170082 55.414948 21.160982 55.517025 21.160982 55.517025 L 21.279321 55.52736 C 21.279117 55.529692 21.27002 55.632263 21.27002 55.632263 L 21.387842 55.642598 C 21.387638 55.644931 21.37854 55.747502 21.37854 55.747502 L 21.496879 55.757837 C 21.496675 55.760169 21.487577 55.86274 21.487577 55.86274 L 21.6054 55.873075 C 21.605198 55.875385 21.596098 55.977462 21.596098 55.977462 L 21.714437 55.987797 C 21.714233 55.990129 21.705135 56.0927 21.705135 56.0927 L 21.822957 56.103035 C 21.822753 56.105367 21.813656 56.207939 21.813656 56.207939 L 21.931995 56.218274 C 21.931791 56.220606 21.922693 56.323177 21.922693 56.323177 L 22.040515 56.333512 C 22.040311 56.335844 22.031213 56.438416 22.031213 56.438416 L 22.149552 56.448751 C 22.149348 56.451083 22.140251 56.553654 22.140251 56.553654 L 22.258073 56.563989 C 22.257871 56.566298 22.248771 56.668376 22.248771 56.668376 L 22.36711 56.678711 C 22.366906 56.681043 22.357808 56.783614 22.357808 56.783614 L 22.476147 56.793949 C 22.475944 56.796281 22.466846 56.898853 22.466846 56.898853 L 22.584668 56.909188 C 22.584464 56.91152 22.575366 57.014091 22.575366 57.014091 L 22.693705 57.024426 C 22.693503 57.026735 22.684403 57.128813 22.684403 57.128813 L 22.802226 57.139148 C 22.802022 57.14148 22.792924 57.244051 22.792924 57.244051 L 22.910746 57.254386 C 22.910542 57.256718 22.901444 57.35929 22.901444 57.35929 L 22.901961 57.35929 L 23.019784 57.369625 C 23.01958 57.371956 23.010482 57.474528 23.010482 57.474528 L 23.128821 57.484863 C 23.128619 57.487172 23.119519 57.58925 23.119519 57.58925 L 23.237341 57.599585 C 23.237137 57.601916 23.22804 57.704488 23.22804 57.704488 L 23.346379 57.714823 C 23.346175 57.717155 23.337077 57.819727 23.337077 57.819727 L 23.454899 57.830062 C 23.454695 57.832393 23.445597 57.934965 23.445597 57.934965 L 23.563936 57.9453 C 23.563732 57.947632 23.554635 58.050203 23.554635 58.050203 L 23.672457 58.060539 C 23.672253 58.06287 23.663155 58.165442 23.663155 58.165442 L 23.781494 58.175777 C 23.781292 58.178086 23.772192 58.280164 23.772192 58.280164 L 23.890015 58.290499 C 23.889811 58.29283 23.880713 58.395402 23.880713 58.395402 L 23.999052 58.405737 C 23.998848 58.408069 23.98975 58.51064 23.98975 58.51064 L 24.107572 58.520976 C 24.107369 58.523307 24.098271 58.625879 24.098271 58.625879 L 24.21661 58.636214 C 24.216408 58.638523 24.207308 58.740601 24.207308 58.740601 L 24.32513 58.750936 C 24.324926 58.753267 24.315828 58.855839 24.315828 58.855839 L 24.316345 58.855839 L 24.434167 58.866174 C 24.433964 58.868505 24.424866 58.971077 24.424866 58.971077 L 24.542688 58.981413 C 24.542484 58.983744 24.533386 59.086316 24.533386 59.086316 L 24.651725 59.096651 C 24.651521 59.098982 24.642424 59.201554 24.642424 59.201554 L 24.760246 59.21189 C 24.760044 59.214198 24.750944 59.316276 24.750944 59.316276 L 24.869283 59.326611 C 24.869079 59.328942 24.859981 59.431514 24.859981 59.431514 L 24.97832 59.44185 C 24.978116 59.444181 24.969019 59.546753 24.969019 59.546753 L 25.086841 59.557088 C 25.086637 59.559419 25.077539 59.661991 25.077539 59.661991 L 25.195878 59.672327 C 25.195674 59.674657 25.186576 59.77723 25.186576 59.77723 L 25.304399 59.787565 C 25.304197 59.789873 25.295097 59.891951 25.295097 59.891951 L 25.413436 59.902287 C 25.413232 59.904618 25.404134 60.00719 25.404134 60.00719 L 25.521956 60.017525 C 25.521753 60.019856 25.512655 60.122428 25.512655 60.122428 L 25.630994 60.132764 C 25.63079 60.135094 25.621692 60.237667 25.621692 60.237667 L 25.739514 60.248002 C 25.739312 60.25031 25.730212 60.352389 25.730212 60.352389 L 25.848551 60.362724 C 25.848348 60.365054 25.83925 60.467627 25.83925 60.467627 L 25.957072 60.477962 C 25.956868 60.480293 25.94777 60.582865 25.94777 60.582865 L 26.066109 60.593201 C 26.065905 60.595531 26.056807 60.698104 26.056807 60.698104 L 26.17463 60.708439 C 26.174426 60.71077 26.165328 60.813342 26.165328 60.813342 L 26.283667 60.823678 C 26.283465 60.825986 26.274365 60.928064 26.274365 60.928064 L 26.392187 60.938399 C 26.391985 60.94073 26.382886 61.043302 26.382886 61.043302 L 26.501225 61.053638 C 26.501021 61.055968 26.491923 61.158541 26.491923 61.158541 L 26.609745 61.168876 C 26.609541 61.171206 26.600444 61.273779 26.600444 61.273779 L 26.718783 61.284115 C 26.718579 61.286445 26.709481 61.389018 26.709481 61.389018 L 26.827303 61.399353 C 26.827101 61.401661 26.818001 61.503739 26.818001 61.503739 L 26.818518 61.503739 L 26.93634 61.514075 C 26.936137 61.516405 26.927039 61.618978 26.927039 61.618978 L 27.044861 61.629313 C 27.044657 61.631643 27.035559 61.734216 27.035559 61.734216 L 27.153898 61.744552 C 27.153694 61.746882 27.144596 61.849455 27.144596 61.849455 L 27.262935 61.85979 C 27.262734 61.862098 27.253634 61.964176 27.253634 61.964176 L 27.371456 61.974512 C 27.371252 61.976842 27.362154 62.079415 27.362154 62.079415 L 27.480493 62.08975 C 27.480289 62.09208 27.471191 62.194653 27.471191 62.194653 L 27.589014 62.204989 C 27.58881 62.207319 27.579712 62.309892 27.579712 62.309892 L 27.698051 62.320227 C 27.697847 62.322557 27.688749 62.42513 27.688749 62.42513 L 27.806571 62.435465 C 27.80637 62.437773 27.79727 62.539852 27.79727 62.539852 L 27.915609 62.550187 C 27.915405 62.552517 27.906307 62.65509 27.906307 62.65509 L 28.024129 62.665426 C 28.023925 62.667756 28.014827 62.770329 28.014827 62.770329 L 28.133167 62.780664 C 28.132963 62.782994 28.123865 62.885567 28.123865 62.885567 L 28.241687 62.895903 C 28.241483 62.898232 28.232385 63.000806 28.232385 63.000806 L 28.350724 63.011141 C 28.350522 63.013448 28.341423 63.115527 28.341423 63.115527 L 28.459245 63.125863 C 28.459041 63.128192 28.449943 63.230766 28.449943 63.230766 L 28.568282 63.241101 C 28.568078 63.243431 28.55898 63.346004 28.55898 63.346004 L 28.676803 63.35634 C 28.676599 63.358669 28.667501 63.461243 28.667501 63.461243 L 28.78584 63.471578 C 28.785638 63.473885 28.776538 63.575964 28.776538 63.575964 L 28.89436 63.5863 C 28.894157 63.588629 28.885059 63.691203 28.885059 63.691203 L 29.003398 63.701538 C 29.003194 63.703868 28.994096 63.806441 28.994096 63.806441 L 29.111918 63.816777 C 29.111714 63.819106 29.102616 63.92168 29.102616 63.92168 L 29.103133 63.92168 L 29.220955 63.932015 C 29.220752 63.934344 29.211654 64.036918 29.211654 64.036918 L 29.329476 64.047253 C 29.329274 64.049561 29.320174 64.15164 29.320174 64.15164 L 29.320691 64.15164 L 29.438513 64.161975 C 29.438309 64.164305 29.429211 64.266878 29.429211 64.266878 L 29.54755 64.277214 C 29.547347 64.279543 29.538249 64.382117 29.538249 64.382117 L 29.656071 64.392452 C 29.655867 64.394781 29.646769 64.497355 29.646769 64.497355 L 29.765108 64.50769 C 29.764905 64.51002 29.755806 64.612594 29.755806 64.612594 L 29.873629 64.622929 C 29.873427 64.625236 29.864327 64.727315 29.864327 64.727315 L 29.982149 64.737651 C 29.981946 64.73998 29.972847 64.842554 29.972847 64.842554 L 29.973364 64.842554 L 30.091187 64.852889 C 30.090983 64.855218 30.081885 64.957792 30.081885 64.957792 L 30.200224 64.968127 C 30.20002 64.970457 30.190922 65.073031 30.190922 65.073031 L 30.308744 65.083366 C 30.308543 65.085673 30.299443 65.187752 30.299443 65.187752 L 30.417782 65.198088 C 30.417578 65.200417 30.40848 65.302991 30.40848 65.302991 L 30.526302 65.313326 C 30.526098 65.315655 30.517 65.418229 30.517 65.418229 L 30.635339 65.428564 C 30.635136 65.430893 30.626038 65.533468 30.626038 65.533468 L 30.74386 65.543803 C 30.743656 65.546132 30.734558 65.648706 30.734558 65.648706 L 30.852897 65.659041 C 30.852695 65.661348 30.843595 65.763428 30.843595 65.763428 L 30.961418 65.773763 C 30.961214 65.776092 30.952116 65.878666 30.952116 65.878666 L 31.070455 65.889001 C 31.070251 65.89133 31.061153 65.993905 31.061153 65.993905 L 31.178975 66.00424 C 31.178772 66.006569 31.169674 66.109143 31.169674 66.109143 L 31.288013 66.119478 C 31.287809 66.121807 31.278711 66.224382 31.278711 66.224382 L 31.396533 66.234717 C 31.396331 66.237023 31.387231 66.339103 31.387231 66.339103 L 31.387748 66.339103 L 31.50557 66.349438 C 31.505367 66.351767 31.496269 66.454342 31.496269 66.454342 L 31.614091 66.464677 C 31.613887 66.467006 31.604789 66.56958 31.604789 66.56958 L 31.605306 66.56958 L 31.723128 66.579915 C 31.722925 66.582244 31.713826 66.684819 31.713826 66.684819 L 31.831649 66.695154 C 31.831445 66.697482 31.822347 66.800057 31.822347 66.800057 L 31.822864 66.800057 L 31.940686 66.810392 C 31.940484 66.812698 31.931384 66.914779 31.931384 66.914779 L 32.049723 66.925114 C 32.04952 66.927443 32.040422 67.030017 32.040422 67.030017 L 32.158244 67.040352 C 32.15804 67.042681 32.148942 67.145256 32.148942 67.145256 L 32.267281 67.155591 C 32.267077 67.157919 32.257979 67.260494 32.257979 67.260494 L 32.375802 67.270829 C 32.3756 67.273135 32.3665 67.375216 32.3665 67.375216 L 32.484839 67.385551 C 32.484635 67.387879 32.475537 67.490454 32.475537 67.490454 L 32.593359 67.500789 C 32.593156 67.503118 32.584058 67.605693 32.584058 67.605693 L 32.702397 67.616028 C 32.702193 67.618356 32.693095 67.720931 32.693095 67.720931 L 32.810917 67.731266 C 32.810715 67.733572 32.801615 67.835653 32.801615 67.835653 L 32.801615 67.836169 L 32.919954 67.846505 C 32.919753 67.848811 32.910653 67.950891 32.910653 67.950891 L 33.028475 67.961226 C 33.028271 67.963555 33.019173 68.06613 33.019173 68.06613 L 33.137512 68.076465 C 33.137309 68.078793 33.12821 68.181368 33.12821 68.181368 L 33.246033 68.191703 C 33.245829 68.194031 33.236731 68.296606 33.236731 68.296606 L 33.237248 68.296606 L 33.35507 68.306942 C 33.354866 68.30927 33.345768 68.411845 33.345768 68.411845 L 33.46359 68.42218 C 33.463389 68.424486 33.454289 68.526567 33.454289 68.526567 L 33.572628 68.536902 C 33.572424 68.53923 33.563326 68.641805 33.563326 68.641805 L 33.681148 68.65214 C 33.680945 68.654468 33.671847 68.757043 33.671847 68.757043 L 33.790186 68.767379 C 33.789982 68.769707 33.780884 68.872282 33.780884 68.872282 L 33.898706 68.882617 C 33.898504 68.884923 33.889404 68.987004 33.889404 68.987004 L 33.889921 68.987004 L 34.007743 68.997339 C 34.00754 68.999667 33.998442 69.102242 33.998442 69.102242 L 34.116264 69.112577 C 34.11606 69.114905 34.106962 69.21748 34.106962 69.21748 L 34.107479 69.21748 L 34.225301 69.227816 C 34.225098 69.230144 34.215999 69.332719 34.215999 69.332719 L 34.334338 69.343054 C 34.334135 69.345382 34.325037 69.447957 34.325037 69.447957 L 34.442859 69.458293 C 34.442657 69.460598 34.433557 69.562679 34.433557 69.562679 L 34.551896 69.573014 C 34.551693 69.575342 34.542594 69.677917 34.542594 69.677917 L 34.660417 69.688253 C 34.660213 69.69058 34.651115 69.793156 34.651115 69.793156 L 34.769454 69.803491 C 34.76925 69.805819 34.760152 69.908394 34.760152 69.908394 L 34.877974 69.91873 C 34.877771 69.921057 34.868673 70.023633 34.868673 70.023633 L 34.987012 70.033968 C 34.98681 70.036273 34.97771 70.138354 34.97771 70.138354 L 35.095532 70.14869 C 35.095329 70.151017 35.08623 70.253593 35.08623 70.253593 L 35.204569 70.263928 C 35.204366 70.266256 35.195268 70.368831 35.195268 70.368831 L 35.31309 70.379167 C 35.312886 70.381494 35.303788 70.48407 35.303788 70.48407 L 35.422127 70.494405 C 35.421926 70.49671 35.412826 70.598792 35.412826 70.598792 L 35.530648 70.609127 C 35.530444 70.611454 35.521346 70.71403 35.521346 70.71403 L 35.639685 70.724365 C 35.639481 70.726693 35.630383 70.829268 35.630383 70.829268 L 35.748206 70.839604 C 35.748002 70.841931 35.738904 70.944507 35.738904 70.944507 L 35.739421 70.944507 L 35.857243 70.954842 C 35.857039 70.957169 35.847941 71.059745 35.847941 71.059745 L 35.965763 71.070081 C 35.965562 71.072386 35.956462 71.174467 35.956462 71.174467 L 36.074801 71.184802 C 36.074597 71.187129 36.065499 71.289705 36.065499 71.289705 L 36.183321 71.300041 C 36.183118 71.302368 36.174019 71.404944 36.174019 71.404944 L 36.174536 71.404944 L 36.292358 71.415279 C 36.292155 71.417606 36.283057 71.520182 36.283057 71.520182 L 36.400879 71.530518 C 36.400675 71.532845 36.391577 71.635421 36.391577 71.635421 L 36.392094 71.635421 L 36.509916 71.645756 C 36.509715 71.648061 36.500614 71.750142 36.500614 71.750142 L 36.618953 71.760478 C 36.61875 71.762805 36.609652 71.865381 36.609652 71.865381 L 36.727474 71.875716 C 36.72727 71.878043 36.718172 71.980619 36.718172 71.980619 L 36.836511 71.990955 C 36.836308 71.993282 36.827209 72.095858 36.827209 72.095858 L 36.945032 72.106193 C 36.94483 72.108498 36.93573 72.210579 36.93573 72.210579 L 37.054069 72.220915 C 37.053865 72.223242 37.044767 72.325818 37.044767 72.325818 L 37.16259 72.336153 C 37.162386 72.33848 37.153288 72.441056 37.153288 72.441056 L 37.271627 72.451392 C 37.271423 72.453718 37.262325 72.556295 37.262325 72.556295 L 37.380147 72.56663 C 37.379944 72.568957 37.370846 72.671533 37.370846 72.671533 L 37.489185 72.681868 C 37.488983 72.684173 37.479883 72.786255 37.479883 72.786255 L 37.597705 72.79659 C 37.597502 72.798917 37.588403 72.901493 37.588403 72.901493 L 37.706742 72.911829 C 37.706539 72.914155 37.697441 73.016732 37.697441 73.016732 L 37.815263 73.027067 C 37.815059 73.029394 37.805961 73.13197 37.805961 73.13197 L 37.9243 73.142306 C 37.924097 73.144631 37.914998 73.247209 37.914998 73.247209 L 38.032821 73.257544 C 38.032619 73.259848 38.023519 73.36193 38.023519 73.36193 L 38.024036 73.36193 L 38.141858 73.372266 C 38.141654 73.374592 38.132556 73.477169 38.132556 73.477169 L 38.250378 73.487504 C 38.250175 73.489831 38.241077 73.592407 38.241077 73.592407 L 38.241593 73.592407 L 38.359416 73.602743 C 38.359212 73.605069 38.350114 73.707646 38.350114 73.707646 L 38.467936 73.717981 C 38.467735 73.720285 38.458634 73.822367 38.458634 73.822367 L 38.459151 73.822367 L 38.576973 73.832703 C 38.57677 73.835029 38.567672 73.937606 38.567672 73.937606 L 38.685494 73.947941 C 38.685291 73.950267 38.676192 74.052844 38.676192 74.052844 L 38.676709 74.052844 L 38.794531 74.06318 C 38.794328 74.065506 38.785229 74.168083 38.785229 74.168083 L 38.903052 74.178418 C 38.902848 74.180744 38.89375 74.283321 38.89375 74.283321 L 38.894267 74.283321 L 39.012089 74.293656 C 39.011888 74.29596 39.002787 74.398043 39.002787 74.398043 L 39.121126 74.408378 C 39.120923 74.410704 39.111825 74.513281 39.111825 74.513281 L 39.229647 74.523617 C 39.229443 74.525943 39.220345 74.62852 39.220345 74.62852 L 39.338684 74.638855 C 39.338481 74.641181 39.329382 74.743758 39.329382 74.743758 L 39.447205 74.754093 C 39.447001 74.75642 39.437903 74.858997 39.437903 74.858997 L 39.556242 74.869332 C 39.55604 74.871636 39.54694 74.973718 39.54694 74.973718 L 39.664762 74.984054 C 39.664559 74.98638 39.655461 75.088957 39.655461 75.088957 L 39.7738 75.099292 C 39.773596 75.101618 39.764498 75.204195 39.764498 75.204195 L 39.88232 75.21453 C 39.882117 75.216856 39.873018 75.319434 39.873018 75.319434 L 39.991357 75.329769 C 39.991156 75.332072 39.982056 75.434155 39.982056 75.434155 L 40.099878 75.444491 C 40.099674 75.446817 40.090576 75.549394 40.090576 75.549394 L 40.208915 75.559729 C 40.208712 75.562055 40.199613 75.664632 40.199613 75.664632 L 40.317436 75.674967 C 40.317232 75.677293 40.308134 75.779871 40.308134 75.779871 L 40.308651 75.779871 L 40.426473 75.790206 C 40.42627 75.792532 40.417171 75.895109 40.417171 75.895109 L 40.534993 75.905444 C 40.53479 75.90777 40.525692 76.010347 40.525692 76.010347 L 40.526208 76.010347 L 40.644031 76.020683 C 40.643829 76.022986 40.634729 76.125069 40.634729 76.125069 L 40.752551 76.135404 C 40.752348 76.13773 40.74325 76.240308 40.74325 76.240308 L 40.743766 76.240308 L 40.861589 76.250643 C 40.861385 76.252969 40.852287 76.355546 40.852287 76.355546 L 40.970109 76.365881 C 40.969906 76.368207 40.960807 76.470785 40.960807 76.470785 L 40.961324 76.470785 L 41.079146 76.48112 C 41.078945 76.483423 41.069845 76.585506 41.069845 76.585506 L 41.187667 76.595841 C 41.187463 76.598167 41.178365 76.700745 41.178365 76.700745 L 41.178882 76.700745 L 41.296704 76.71108 C 41.296501 76.713405 41.287402 76.815983 41.287402 76.815983 L 41.405741 76.826318 C 41.405538 76.828644 41.39644 76.931222 41.39644 76.931222 L 41.514262 76.941557 C 41.51406 76.94386 41.50496 77.045943 41.50496 77.045943 L 41.623299 77.056278 C 41.623096 77.058604 41.613997 77.161182 41.613997 77.161182 L 41.73182 77.171517 C 41.731616 77.173842 41.722518 77.27642 41.722518 77.27642 L 41.840857 77.286755 C 41.840654 77.289081 41.831555 77.391659 41.831555 77.391659 L 41.949377 77.401994 C 41.949174 77.404319 41.940076 77.506897 41.940076 77.506897 L 42.058415 77.517232 C 42.058213 77.519535 42.049113 77.621619 42.049113 77.621619 L 42.049113 77.622135 L 42.166935 77.632471 C 42.166734 77.634774 42.157633 77.736857 42.157633 77.736857 L 42.15815 77.736857 L 42.275972 77.747192 C 42.275769 77.749518 42.266671 77.852096 42.266671 77.852096 L 42.384493 77.862431 C 42.38429 77.864756 42.375191 77.967334 42.375191 77.967334 L 42.49353 77.977669 C 42.493327 77.979994 42.484229 78.082572 42.484229 78.082572 L 42.602051 78.092908 C 42.601849 78.09521 42.592749 78.197294 42.592749 78.197294 L 42.619621 78.199878 L 42.346769 81.371777 L 42.465108 81.382113 L 42.455806 81.487016 L 42.573629 81.497351 L 42.564327 81.602254 L 42.682149 81.61259 L 42.672847 81.716976 L 42.791187 81.727311 L 42.781885 81.832214 L 42.900224 81.84255 L 42.890922 81.947453 L 43.008744 81.957788 L 42.999443 82.062691 L 43.117782 82.073027 L 43.10848 82.17793 L 43.226302 82.188265 C 43.226232 82.189067 43.217 82.292651 43.217 82.292651 L 43.335339 82.302987 L 43.326038 82.40789 L 43.44386 82.418225 L 43.434558 82.523128 L 43.552897 82.533464 L 43.543595 82.638367 L 43.661418 82.648702 L 43.652116 82.753088 L 43.770455 82.763424 L 43.761153 82.868327 L 43.878975 82.878662 L 43.869674 82.983565 L 43.988013 82.993901 L 43.978711 83.098804 L 44.096533 83.109139 L 44.087231 83.214042 L 44.20557 83.224377 C 44.2055 83.22518 44.196269 83.328764 44.196269 83.328764 L 44.314091 83.339099 L 44.304789 83.444002 L 44.423128 83.454338 L 44.413826 83.559241 L 44.531649 83.569576 L 44.522347 83.674479 L 44.640686 83.684814 L 44.631384 83.789718 L 44.749723 83.800053 C 44.749653 83.800855 44.740422 83.904439 44.740422 83.904439 L 44.858244 83.914775 L 44.848942 84.019678 L 44.966764 84.030013 L 44.957463 84.134916 L 44.957979 84.134916 L 45.075802 84.145251 L 45.0665 84.250155 L 45.184839 84.26049 C 45.184769 84.261292 45.175537 84.364876 45.175537 84.364876 L 45.293359 84.375212 L 45.284058 84.480115 L 45.402397 84.49045 L 45.393095 84.595353 C 45.393147 84.595357 45.508052 84.605439 45.510917 84.605688 L 45.501615 84.710592 L 45.619954 84.720927 L 45.610653 84.82583 L 45.728475 84.836165 C 45.728405 84.836967 45.719173 84.940552 45.719173 84.940552 L 45.837512 84.950887 L 45.82821 85.05579 L 45.946033 85.066125 L 45.936731 85.171029 L 46.05507 85.181364 L 46.045768 85.286267 C 46.04583 85.286272 46.160716 85.296352 46.16359 85.296602 L 46.154289 85.401506 L 46.272628 85.411841 C 46.272558 85.412643 46.263326 85.516227 46.263326 85.516227 L 46.381148 85.526562 L 46.371847 85.631466 L 46.490186 85.641801 L 46.480884 85.746704 L 46.598706 85.757039 L 46.589404 85.861943 L 46.707743 85.872278 C 46.707673 85.87308 46.698442 85.976664 46.698442 85.976664 L 46.816264 85.987 L 46.806962 86.091903 L 46.925301 86.102238 L 46.915999 86.207141 L 47.034338 86.217476 L 47.025037 86.32238 L 47.142859 86.332715 L 47.133557 86.437618 L 47.251896 86.447953 L 47.242594 86.552856 L 47.360417 86.563192 L 47.351115 86.667578 L 47.469454 86.677913 L 47.460152 86.782817 L 47.577974 86.793152 L 47.568673 86.898055 L 47.687012 86.90839 L 47.67771 87.013293 C 47.677798 87.013301 47.792633 87.023376 47.795532 87.023629 C 47.795462 87.024431 47.78623 87.128015 47.78623 87.128015 L 47.904569 87.13835 L 47.895268 87.243254 L 48.01309 87.253589 L 48.003788 87.358492 L 48.122127 87.368827 L 48.112826 87.47373 L 48.230648 87.484066 C 48.230578 87.484868 48.221346 87.588452 48.221346 87.588452 L 48.339685 87.598787 L 48.330383 87.703691 C 48.330484 87.703699 48.445294 87.713772 48.448206 87.714026 L 48.438904 87.818929 L 48.557243 87.829264 L 48.547941 87.934167 L 48.665763 87.944503 L 48.656462 88.049406 L 48.774801 88.059741 L 48.765499 88.164644 L 48.883321 88.17498 C 48.883251 88.175782 48.874019 88.279366 48.874019 88.279366 L 48.874536 88.279366 L 48.992358 88.289701 L 48.983057 88.394604 L 49.100879 88.40494 L 49.091577 88.509843 L 49.092094 88.509843 L 49.209916 88.520178 L 49.200614 88.625081 L 49.318953 88.635417 C 49.318883 88.636219 49.309652 88.739803 49.309652 88.739803 L 49.427474 88.750138 L 49.418172 88.855042 L 49.536511 88.865377 L 49.527209 88.97028 C 49.52733 88.97029 49.642101 88.98036 49.645032 88.980615 L 49.63573 89.085518 L 49.753552 89.095854 L 49.74425 89.200757 L 49.744767 89.200757 L 49.86259 89.211092 L 49.853288 89.315479 L 49.971627 89.325814 L 49.962325 89.430717 L 50.080147 89.441052 L 50.070846 89.545955 L 50.189185 89.556291 L 50.179883 89.661194 L 50.297705 89.671529 L 50.288403 89.776432 L 50.406742 89.786768 C 50.406672 89.787569 50.397441 89.891154 50.397441 89.891154 L 50.515263 89.901489 L 50.505961 90.006392 L 50.6243 90.016728 L 50.614998 90.121631 L 50.732821 90.131966 L 50.723519 90.236869 L 50.841858 90.247205 C 50.841788 90.248006 50.832556 90.351591 50.832556 90.351591 L 50.950378 90.361926 L 50.941077 90.466829 C 50.941221 90.466843 51.056438 90.476904 51.059416 90.477165 L 51.050114 90.582068 C 51.05026 90.58208 51.164981 90.592145 51.167936 90.592403 L 51.158634 90.697306 L 51.159151 90.697306 L 51.276973 90.707642 L 51.267672 90.812545 L 51.385494 90.82288 C 51.385424 90.823682 51.376192 90.927266 51.376192 90.927266 L 51.376709 90.927266 C 51.37686 90.927279 51.491572 90.937344 51.494531 90.937602 L 51.485229 91.042505 L 51.603052 91.05284 L 51.59375 91.157743 L 51.594267 91.157743 L 51.712089 91.168079 L 51.702787 91.272982 L 51.821126 91.283317 L 51.811825 91.38822 C 51.811984 91.388234 51.926679 91.398297 51.929647 91.398556 C 51.929577 91.399357 51.920345 91.502942 51.920345 91.502942 L 52.038684 91.513277 L 52.029382 91.61818 L 52.147205 91.628516 L 52.137903 91.733419 C 52.138068 91.733432 52.253245 91.743493 52.256242 91.743754 L 52.24694 91.848657 L 52.364762 91.858993 C 52.364692 91.859794 52.355461 91.963379 52.355461 91.963379 L 52.4738 91.973714 L 52.464498 92.078617 L 52.58232 92.088953 L 52.573018 92.193856 L 52.691357 92.204191 L 52.682056 92.309094 L 52.799878 92.31943 L 52.790576 92.424333 L 52.908915 92.434668 C 52.908845 92.43547 52.899613 92.539054 52.899613 92.539054 C 52.89979 92.539069 53.014452 92.54913 53.017436 92.54939 L 53.008134 92.654293 L 53.008651 92.654293 L 53.126473 92.664628 L 53.117171 92.769531 L 53.234993 92.779867 L 53.225692 92.88477 C 53.225875 92.884787 53.341016 92.89484 53.344031 92.895105 L 53.334729 93.000008 C 53.334914 93.000024 53.44956 93.010082 53.452551 93.010343 C 53.452481 93.011145 53.44325 93.11473 53.44325 93.11473 L 53.561589 93.125065 L 53.552287 93.229968 L 53.670109 93.240304 L 53.660807 93.345207 L 53.661324 93.345207 C 53.661514 93.345222 53.77615 93.355281 53.779146 93.355542 L 53.769845 93.460445 L 53.887667 93.47078 C 53.887597 93.471582 53.878365 93.575167 53.878365 93.575167 L 53.878882 93.575167 L 53.996704 93.585502 L 53.987402 93.690405 C 53.987598 93.690423 54.102715 93.700475 54.105741 93.700741 L 54.09644 93.805644 C 54.096637 93.805661 54.211258 93.815717 54.214262 93.815979 L 54.20496 93.920882 L 54.323299 93.931217 L 54.313997 94.036121 L 54.43182 94.046456 C 54.43175 94.047257 54.422518 94.150842 54.422518 94.150842 L 54.540857 94.161178 L 54.531555 94.266081 L 54.649377 94.276416 L 54.640076 94.381319 L 54.758415 94.391654 L 54.749113 94.496558 L 54.866935 94.506893 L 54.857633 94.611796 L 54.975972 94.622131 C 54.975902 94.622933 54.966671 94.726518 54.966671 94.726518 L 55.084493 94.736853 L 55.075191 94.841756 C 55.075405 94.841776 55.190487 94.851825 55.19353 94.852091 L 55.184229 94.956995 L 55.302051 94.96733 L 55.292749 95.072233 L 55.411088 95.082568 C 55.411018 95.08337 55.401786 95.186955 55.401786 95.186955 L 55.519609 95.19729 L 55.510307 95.302193 L 55.510824 95.302193 L 55.628646 95.312528 L 55.619344 95.417432 L 55.737166 95.427767 L 55.727865 95.53267 L 55.846204 95.543005 L 55.836902 95.647909 L 55.954724 95.658244 C 55.954654 95.659045 55.945422 95.76263 55.945422 95.76263 L 55.945939 95.763147 C 55.946168 95.763166 56.060728 95.773218 56.063761 95.773482 C 56.063691 95.774284 56.05446 95.877869 56.05446 95.877869 C 56.054689 95.877888 56.169248 95.887939 56.172282 95.888204 L 56.16298 95.993107 L 56.163497 95.993107 L 56.281319 96.003442 L 56.272017 96.108346 L 56.390356 96.118681 L 56.381055 96.223584 L 56.498877 96.233919 C 56.498807 96.234721 56.489575 96.338306 56.489575 96.338306 L 56.607914 96.348641 L 56.598612 96.453544 L 56.716435 96.463879 L 56.707133 96.568783 C 56.707374 96.568803 56.821911 96.578852 56.824955 96.579118 L 56.815653 96.684021 L 56.81617 96.684021 C 56.816412 96.684042 56.930947 96.69409 56.933993 96.694356 L 56.924691 96.798743 L 57.04303 96.809078 L 57.033728 96.913981 L 57.15155 96.924316 L 57.142249 97.02922 L 57.260588 97.039555 L 57.251286 97.144458 L 57.369108 97.154793 L 57.359806 97.259696 L 57.478145 97.270032 C 57.478075 97.270833 57.468844 97.374418 57.468844 97.374418 L 57.468844 97.374935 C 57.469098 97.374957 57.583608 97.385003 57.586666 97.38527 C 57.586596 97.386072 57.577364 97.489657 57.577364 97.489657 L 57.695703 97.499992 L 57.686401 97.604895 L 57.804224 97.61523 L 57.794922 97.720133 L 57.795439 97.720133 L 57.913261 97.730469 L 57.903959 97.835372 L 58.021781 97.845707 C 58.021711 97.846509 58.01248 97.950094 58.01248 97.950094 L 58.012996 97.950094 L 58.130819 97.960429 L 58.121517 98.065332 L 58.239339 98.075667 L 58.230037 98.18057 L 58.230554 98.18057 C 58.23082 98.180593 58.345307 98.190638 58.348376 98.190906 L 58.339075 98.295809 C 58.339343 98.295832 58.453826 98.305876 58.456897 98.306144 L 58.447595 98.411047 L 58.448112 98.411047 L 58.565934 98.421383 C 58.565864 98.422184 58.556632 98.525769 58.556632 98.525769 L 58.674455 98.536104 L 58.665153 98.641007 L 58.66567 98.641007 L 58.783492 98.651343 L 58.77419 98.756246 L 58.892529 98.766581 L 58.883228 98.871484 L 59.00105 98.88182 C 59.00098 98.882621 58.991748 98.986206 58.991748 98.986206 L 58.991748 98.986723 L 59.110087 98.997058 C 59.110017 98.997859 59.100785 99.101444 59.100785 99.101444 L 59.218608 99.11178 L 59.209306 99.216683 C 59.209589 99.216708 59.324536 99.226745 59.327645 99.227018 L 59.32196 99.29058 L 68.018587 100.05126 C 82.370619 101.30689 94.935911 90.763388 96.191545 76.411357 L 97.550635 60.878455 C 97.518605 60.875645 97.463854 60.870932 97.461235 60.870703 L 97.470536 60.7658 L 97.47002 60.7658 C 97.469352 60.765742 97.355648 60.755766 97.352197 60.755465 L 97.361499 60.650562 L 97.360982 60.650562 L 97.24316 60.640226 L 97.252462 60.535323 L 97.134639 60.524988 C 97.134709 60.52419 97.143941 60.420601 97.143941 60.420601 L 97.143424 60.420085 L 97.025602 60.409749 C 97.025672 60.408952 97.034904 60.305363 97.034904 60.305363 L 96.917082 60.295028 L 96.926383 60.190125 L 96.925867 60.190125 L 96.808044 60.179789 L 96.817346 60.074886 C 96.816691 60.074829 96.702963 60.064851 96.699524 60.064551 L 96.708826 59.959648 L 96.708309 59.959648 L 96.590487 59.949312 C 96.590556 59.948515 96.599788 59.844926 96.599788 59.844926 L 96.481966 59.834591 L 96.491268 59.729687 L 96.490751 59.729687 L 96.372929 59.719352 L 96.382231 59.614449 L 96.264408 59.604114 L 96.27371 59.499211 L 96.273193 59.499211 L 96.155371 59.488875 L 96.164673 59.383972 L 96.046851 59.373637 C 96.04692 59.372839 96.056152 59.26925 96.056152 59.26925 L 96.055636 59.26925 C 96.054992 59.269195 95.941242 59.259215 95.937813 59.258915 L 95.947115 59.154012 C 95.946473 59.153956 95.83272 59.143976 95.829293 59.143677 L 95.838595 59.038774 L 95.838078 59.038774 L 95.720256 59.028438 L 95.729557 58.923535 L 95.611735 58.9132 C 95.611805 58.912402 95.621037 58.808813 95.621037 58.808813 L 95.62052 58.808297 L 95.502698 58.797961 C 95.502768 58.797164 95.512 58.693575 95.512 58.693575 L 95.511483 58.693575 C 95.510852 58.69352 95.39757 58.683537 95.394177 58.68324 L 95.403479 58.578337 L 95.402962 58.578337 L 95.28514 58.568001 L 95.294442 58.463098 C 95.29381 58.463044 95.180036 58.453061 95.176619 58.452763 L 95.185921 58.34786 L 95.185404 58.34786 L 95.067582 58.337524 C 95.067652 58.336727 95.076884 58.233138 95.076884 58.233138 L 95.076367 58.233138 C 95.075739 58.233084 94.961958 58.223101 94.958545 58.222803 L 94.967847 58.1179 L 94.850024 58.107564 L 94.859326 58.002661 L 94.858809 58.002661 L 94.740987 57.992326 L 94.750289 57.887423 L 94.632467 57.877087 L 94.641768 57.772184 L 94.641252 57.772184 L 94.523429 57.761849 C 94.523499 57.761052 94.532731 57.657463 94.532731 57.657463 L 94.414909 57.647127 L 94.424211 57.542224 L 94.423694 57.542224 C 94.423078 57.542171 94.309273 57.532186 94.305872 57.531889 L 94.315173 57.426986 C 94.314559 57.426932 94.200752 57.416947 94.197351 57.41665 L 94.206653 57.311747 L 94.206136 57.311747 L 94.088314 57.301412 C 94.088384 57.300615 94.097616 57.197026 94.097616 57.197026 L 94.097616 57.196509 L 93.979793 57.186174 C 93.979863 57.185376 93.989095 57.081787 93.989095 57.081787 L 93.988578 57.081787 L 93.870756 57.071452 L 93.880058 56.966549 L 93.762236 56.956213 L 93.771537 56.85131 L 93.771021 56.85131 L 93.653198 56.840975 L 93.6625 56.736072 C 93.661896 56.73602 93.548068 56.726032 93.544678 56.725736 C 93.544747 56.724939 93.553979 56.62135 93.553979 56.62135 L 93.553463 56.62135 L 93.43564 56.611015 L 93.444942 56.506112 L 93.32712 56.495776 L 93.336422 56.390873 L 93.335905 56.390873 L 93.218083 56.380538 L 93.227384 56.275635 L 93.109562 56.265299 L 93.118864 56.160396 L 93.118347 56.160396 L 93.000525 56.150061 C 93.000595 56.149264 93.009827 56.045675 93.009827 56.045675 L 92.892004 56.035339 L 92.901306 55.930436 L 92.900789 55.930436 C 92.900198 55.930385 92.786346 55.920396 92.782967 55.920101 L 92.792269 55.815198 L 92.791752 55.815198 C 92.791166 55.815146 92.677797 55.805156 92.674447 55.804862 L 92.683748 55.699959 L 92.683232 55.699959 L 92.565409 55.689624 C 92.565479 55.688827 92.574711 55.585238 92.574711 55.585238 L 92.574194 55.584721 C 92.573609 55.58467 92.459745 55.57468 92.456372 55.574386 C 92.456442 55.573588 92.465674 55.469999 92.465674 55.469999 L 92.347852 55.459664 L 92.357153 55.354761 L 92.356637 55.354761 L 92.238814 55.344425 L 92.248116 55.239522 L 92.130294 55.229187 L 92.139596 55.124284 L 92.139079 55.124284 C 92.138501 55.124234 92.024623 55.114242 92.021257 55.113949 L 92.030558 55.009045 L 91.912736 54.99871 C 91.912806 54.997913 91.922038 54.894324 91.922038 54.894324 L 91.921521 54.894324 L 91.803699 54.883988 L 91.813 54.779085 L 91.695178 54.76875 L 91.70448 54.663847 L 91.703963 54.663847 C 91.703392 54.663797 91.5895 54.653805 91.586141 54.653512 L 91.595443 54.548608 L 91.47762 54.538273 C 91.47769 54.537476 91.486922 54.433887 91.486922 54.433887 L 91.486405 54.433887 L 91.368583 54.423551 L 91.377885 54.318648 L 91.260063 54.308313 L 91.269364 54.20341 L 91.268848 54.20341 L 91.151025 54.193075 L 91.160327 54.088171 L 91.042505 54.077836 C 91.042575 54.077039 91.051807 53.97345 91.051807 53.97345 L 91.05129 53.97345 L 90.933468 53.963114 L 90.942769 53.858211 C 90.942211 53.858163 90.828295 53.848168 90.824947 53.847876 L 90.834249 53.742973 L 90.833732 53.742973 L 90.71591 53.732638 L 90.725212 53.627734 L 90.607389 53.617399 L 90.616691 53.512496 L 90.616174 53.512496 L 90.498352 53.502161 L 90.507654 53.397257 L 90.389832 53.386922 C 90.389901 53.386125 90.399133 53.282536 90.399133 53.282536 L 90.398617 53.282536 L 90.280794 53.272201 L 90.290096 53.167297 L 90.289579 53.167297 L 90.171757 53.156962 L 90.181059 53.052059 C 90.180515 53.052012 90.06657 53.042015 90.063236 53.041724 L 90.072538 52.93682 L 90.072021 52.93682 L 89.954199 52.926485 C 89.954269 52.925688 89.963501 52.822099 89.963501 52.822099 L 89.845679 52.811764 L 89.85498 52.70686 L 89.854464 52.70686 L 89.736641 52.696525 L 89.745943 52.591622 L 89.628121 52.581287 L 89.637423 52.476383 L 89.636906 52.476383 L 89.519084 52.466048 L 89.528385 52.361145 L 89.410563 52.35081 C 89.410633 52.350013 89.419865 52.246423 89.419865 52.246423 L 89.419348 52.246423 C 89.418816 52.246377 89.304848 52.236378 89.301526 52.236088 L 89.310828 52.131185 C 89.310297 52.131139 89.196326 52.12114 89.193005 52.12085 L 89.202307 52.015946 L 89.20179 52.015946 L 89.083968 52.005611 L 89.09327 51.900708 L 88.975448 51.890373 L 88.984749 51.78547 L 88.984233 51.78547 L 88.86641 51.775134 C 88.86648 51.774337 88.875712 51.670748 88.875712 51.670748 L 88.75789 51.660413 L 88.767192 51.555509 L 88.766675 51.555509 L 88.648853 51.545174 L 88.658154 51.440271 C 88.657634 51.440226 88.543643 51.430225 88.540332 51.429936 L 88.549634 51.325033 L 88.549117 51.325033 C 88.548599 51.324988 88.434603 51.314986 88.431295 51.314697 C 88.431364 51.3139 88.440597 51.210311 88.440597 51.210311 L 88.322257 51.199976 L 88.331559 51.095072 L 88.213737 51.084737 L 88.223039 50.979834 L 88.105216 50.969499 L 88.114518 50.864596 L 88.114001 50.864596 L 87.996179 50.85426 L 88.005481 50.749357 L 88.004964 50.749357 L 87.887142 50.739022 C 87.887212 50.738225 87.896444 50.634635 87.896444 50.634635 C 87.895937 50.634592 87.781919 50.624588 87.778621 50.6243 L 87.787923 50.519397 L 87.787406 50.519397 C 87.786902 50.519353 87.67288 50.50935 87.669584 50.509062 L 87.678886 50.404159 L 87.561064 50.393823 L 87.570365 50.28892 L 87.569849 50.28892 L 87.452026 50.278585 L 87.461328 50.173682 L 87.343506 50.163346 C 87.343576 50.162549 87.352808 50.05896 87.352808 50.05896 L 87.352291 50.05896 L 87.234469 50.048625 L 87.24377 49.943722 L 87.125948 49.933386 L 87.13525 49.828483 L 87.134733 49.828483 C 87.13424 49.828441 87.020196 49.818435 87.016911 49.818148 L 87.026213 49.713245 C 87.02572 49.713202 86.911674 49.703196 86.90839 49.702909 C 86.90846 49.702112 86.917692 49.598523 86.917692 49.598523 L 86.917175 49.598523 L 86.799353 49.588188 L 86.808655 49.483285 L 86.690833 49.472949 L 86.700134 49.368046 L 86.699618 49.368046 L 86.581795 49.357711 L 86.591097 49.252808 L 86.473275 49.242472 L 86.482576 49.137569 L 86.48206 49.137569 L 86.364237 49.127234 C 86.364307 49.126437 86.373539 49.022847 86.373539 49.022847 C 86.373058 49.022806 86.258991 49.012798 86.255717 49.012512 L 86.265019 48.907609 L 86.264502 48.907609 L 86.14668 48.897274 L 86.155981 48.792371 C 86.155502 48.792328 86.040939 48.782324 86.037642 48.782035 L 86.046944 48.677132 L 85.929122 48.666797 C 85.929192 48.666 85.938424 48.56241 85.938424 48.56241 L 85.938424 48.561894 L 85.820601 48.551558 L 85.829903 48.447172 L 85.829386 48.447172 L 85.711564 48.436837 L 85.720866 48.331934 L 85.720349 48.331934 C 85.719882 48.331893 85.60628 48.321882 85.603044 48.321598 L 85.612345 48.216695 L 85.611829 48.216695 L 85.494006 48.20636 L 85.503308 48.101457 L 85.384969 48.091121 L 85.394271 47.986735 L 85.276449 47.9764 L 85.28575 47.871497 C 85.285285 47.871455 85.170694 47.861449 85.167411 47.861161 L 85.176713 47.756258 C 85.176252 47.756218 85.062145 47.746207 85.058891 47.745923 L 85.068193 47.64102 L 85.067676 47.64102 L 84.949854 47.630684 L 84.959155 47.525781 L 84.841333 47.515446 C 84.841403 47.514649 84.850635 47.41106 84.850635 47.41106 L 84.850118 47.41106 L 84.732296 47.400724 L 84.741597 47.295821 L 84.623775 47.285486 L 84.633077 47.180583 L 84.63256 47.180583 L 84.514738 47.170247 L 84.52404 47.065344 L 84.406217 47.055009 C 84.406287 47.054212 84.415519 46.950623 84.415519 46.950623 L 84.415002 46.950106 C 84.414554 46.950067 84.300423 46.940054 84.29718 46.939771 C 84.29725 46.938974 84.306482 46.835384 84.306482 46.835384 C 84.306034 46.835345 84.191901 46.825332 84.18866 46.825049 L 84.197961 46.720146 L 84.197445 46.720146 L 84.079622 46.70981 L 84.088924 46.604907 L 83.971102 46.594572 L 83.980404 46.489669 L 83.979887 46.489669 L 83.862065 46.479333 C 83.862134 46.478537 83.871366 46.374947 83.871366 46.374947 L 83.753544 46.364612 L 83.762846 46.259709 L 83.762329 46.259709 L 83.644507 46.249373 L 83.653809 46.14447 L 83.53547 46.134135 L 83.544771 46.029232 L 83.426949 46.018896 L 83.436251 45.913993 L 83.318429 45.903658 C 83.318498 45.902861 83.32773 45.799272 83.32773 45.799272 L 83.327214 45.799272 L 83.209391 45.788936 L 83.218693 45.684033 L 83.100354 45.673698 L 83.109656 45.568795 L 82.991833 45.558459 L 83.001135 45.453556 L 82.882796 45.443221 C 82.882866 45.442424 82.892098 45.338835 82.892098 45.338835 L 82.892098 45.338318 C 82.891675 45.338282 82.777494 45.328264 82.774276 45.327983 C 82.774345 45.327186 82.783577 45.223596 82.783577 45.223596 L 82.783061 45.223596 C 82.78264 45.22356 82.668455 45.213542 82.665238 45.213261 L 82.67454 45.108358 C 82.674121 45.108321 82.559933 45.098303 82.556718 45.098022 L 82.56602 44.993119 L 82.565503 44.993119 L 82.447681 44.982784 L 82.456982 44.877881 L 82.33916 44.867546 L 82.348462 44.762642 L 82.347945 44.762642 L 82.230123 44.752307 C 82.230193 44.75151 82.239425 44.647921 82.239425 44.647921 L 82.121602 44.637585 L 82.130904 44.532682 L 82.130387 44.532682 L 82.012565 44.522347 L 82.021867 44.417444 C 82.021458 44.417409 81.907249 44.407388 81.904045 44.407109 L 81.913346 44.302205 L 81.91283 44.302205 L 81.795007 44.29187 C 81.795077 44.291073 81.804309 44.187484 81.804309 44.187484 L 81.686487 44.177148 L 81.695789 44.072245 L 81.695272 44.072245 L 81.57745 44.06191 L 81.586751 43.957007 L 81.468929 43.946672 L 81.478231 43.841768 L 81.477714 43.841768 L 81.359892 43.831433 C 81.359961 43.830636 81.369194 43.727047 81.369194 43.727047 L 81.250854 43.716711 L 81.260156 43.611808 L 81.142334 43.601473 L 81.151636 43.49657 C 81.151241 43.496536 81.037004 43.486513 81.033813 43.486235 L 81.043115 43.381331 L 81.042598 43.381331 L 80.924776 43.370996 L 80.934078 43.266093 L 80.816256 43.255758 L 80.825557 43.150854 L 80.825041 43.150854 L 80.707218 43.140519 L 80.71652 43.036133 L 80.598181 43.025798 L 80.607483 42.920894 L 80.489661 42.910559 L 80.498962 42.805656 L 80.498446 42.805656 C 80.498063 42.805623 80.383803 42.795598 80.380623 42.795321 L 80.389925 42.690417 L 80.272103 42.680082 L 80.281405 42.575696 L 80.280888 42.575696 L 80.163066 42.565361 L 80.172367 42.460457 L 80.054545 42.450122 L 80.063847 42.345219 L 79.945508 42.334884 L 79.95481 42.22998 L 79.836987 42.219645 L 79.846289 42.114742 L 79.845772 42.114742 L 79.72795 42.104407 C 79.72802 42.10361 79.737252 42.00002 79.737252 42.00002 C 79.736882 41.999989 79.622597 41.989961 79.61943 41.989685 L 79.628731 41.884782 L 79.628215 41.884782 L 79.510392 41.874447 L 79.519694 41.769543 L 79.401872 41.759208 L 79.411174 41.654305 L 79.410657 41.654305 L 79.292834 41.64397 L 79.302136 41.539067 L 79.184314 41.528731 L 79.193616 41.424345 L 79.193099 41.424345 L 79.075277 41.41401 L 79.084578 41.309106 L 78.966756 41.298771 L 78.976058 41.193868 L 78.975541 41.193868 C 78.975183 41.193838 78.860876 41.183808 78.857719 41.183533 L 78.867021 41.07863 L 78.748682 41.068294 C 78.748751 41.067498 78.757983 40.963908 78.757983 40.963908 L 78.640161 40.953573 L 78.649463 40.848669 L 78.531641 40.838334 L 78.540942 40.733431 L 78.540426 40.733431 L 78.422603 40.723096 L 78.431905 40.618193 L 78.313566 40.607857 L 78.322868 40.502954 L 78.205046 40.492619 C 78.205115 40.491822 78.214347 40.388232 78.214347 40.388232 L 78.096008 40.377897 L 78.10531 40.272994 L 77.987488 40.262659 L 77.99679 40.157756 L 77.996273 40.157756 L 77.878451 40.14742 L 77.887752 40.042517 L 77.76993 40.032182 L 77.779232 39.927279 L 77.660893 39.916943 C 77.660962 39.916147 77.670194 39.812557 77.670194 39.812557 C 77.669858 39.812528 77.555508 39.802496 77.552372 39.802222 L 77.561674 39.697319 L 77.561157 39.697319 L 77.443335 39.686983 L 77.452637 39.58208 L 77.334814 39.571745 L 77.344116 39.466842 L 77.343599 39.466842 L 77.225777 39.456506 L 77.235079 39.35212 L 77.117257 39.341785 L 77.126558 39.236882 L 77.126042 39.236882 L 77.008219 39.226546 L 77.017521 39.121643 C 77.017197 39.121615 76.902823 39.111581 76.899699 39.111308 L 76.909001 39.006405 L 76.908484 39.006405 L 76.790662 38.996069 L 76.799963 38.891166 L 76.682141 38.880831 C 76.682211 38.880034 76.691443 38.776444 76.691443 38.776444 L 76.690926 38.776444 L 76.573104 38.766109 L 76.582406 38.661206 L 76.464067 38.650871 L 76.473368 38.545968 L 76.355546 38.535632 L 76.364848 38.430729 L 76.247026 38.420394 L 76.256327 38.315491 L 76.255811 38.315491 C 76.255499 38.315464 76.141101 38.305427 76.137988 38.305155 L 76.14729 38.200769 L 76.028951 38.190434 L 76.038253 38.085531 L 75.920431 38.075195 L 75.929732 37.970292 C 75.929425 37.970264 75.814526 37.960232 75.811393 37.959957 L 75.820695 37.855054 L 75.702873 37.844718 C 75.702942 37.843922 75.712174 37.740332 75.712174 37.740332 L 75.593835 37.729997 L 75.603137 37.625094 L 75.485315 37.614758 L 75.494617 37.509855 L 75.376278 37.49952 L 75.385579 37.394617 L 75.267757 37.384281 L 75.277059 37.279378 L 75.276542 37.279378 L 75.15872 37.269043 L 75.168022 37.164657 L 75.050199 37.154321 L 75.059501 37.049418 L 75.058984 37.049418 L 74.941162 37.039083 L 74.950464 36.93418 L 74.832642 36.923844 L 74.841943 36.818941 L 74.841427 36.818941 L 74.723604 36.808606 L 74.732906 36.70422 L 74.732906 36.703703 C 74.732621 36.703679 74.618171 36.693637 74.615084 36.693368 C 74.615153 36.692571 74.624386 36.588981 74.624386 36.588981 L 74.623869 36.588981 C 74.623583 36.588957 74.509134 36.578915 74.506047 36.578646 L 74.515348 36.473743 L 74.397526 36.463407 L 74.406828 36.358504 L 74.406311 36.358504 L 74.288489 36.348169 L 74.297791 36.243266 L 74.179451 36.232931 C 74.179521 36.232134 74.188753 36.128544 74.188753 36.128544 L 74.070931 36.118209 L 74.080233 36.013306 L 73.961894 36.00297 L 73.971195 35.898067 C 73.970922 35.898044 73.856449 35.888 73.853373 35.887732 L 73.862675 35.782829 L 73.744853 35.772493 L 73.754154 35.66759 L 73.753638 35.66759 L 73.635815 35.657255 L 73.645117 35.552869 C 73.644849 35.552844 73.529874 35.542805 73.526778 35.542533 L 73.53608 35.43763 C 73.535813 35.437607 73.421328 35.427563 73.418258 35.427295 L 73.427559 35.322392 L 73.30922 35.312056 L 73.318522 35.207153 L 73.2007 35.196818 L 73.210002 35.092432 L 73.091663 35.082096 L 73.100964 34.977193 L 72.983142 34.966858 L 72.992444 34.861955 C 72.992186 34.861932 72.87719 34.85189 72.874105 34.851619 L 72.883407 34.746716 L 72.765584 34.736381 L 72.774886 34.631478 L 72.774369 34.631478 L 72.656547 34.621143 C 72.656617 34.620346 72.665849 34.516756 72.665849 34.516756 L 72.548027 34.506421 L 72.557328 34.401518 L 72.556812 34.401518 L 72.438989 34.391182 L 72.448291 34.286279 L 72.330469 34.275944 L 72.339771 34.171041 L 72.339254 34.171041 L 72.221431 34.160706 L 72.230733 34.055802 L 72.112911 34.045467 L 72.122213 33.941081 L 72.121696 33.941081 L 72.003874 33.930745 L 72.013175 33.825842 C 72.012935 33.825822 71.898398 33.815773 71.895353 33.815507 L 71.904655 33.710604 L 71.904138 33.710604 L 71.786316 33.700269 L 71.795618 33.595365 L 71.677279 33.58503 C 71.677348 33.584234 71.68658 33.480644 71.68658 33.480644 L 71.568758 33.470308 L 71.57806 33.365405 L 71.460238 33.35507 L 71.469539 33.250167 L 71.469023 33.250167 L 71.3512 33.239832 L 71.360502 33.134928 L 71.242163 33.124593 L 71.251465 33.01969 C 71.251236 33.019671 71.136676 33.009619 71.133643 33.009355 L 71.142944 32.904451 L 71.024605 32.894116 L 71.033907 32.78973 L 70.916085 32.779395 L 70.925387 32.674491 L 70.807048 32.664156 L 70.816349 32.559253 L 70.698527 32.548918 L 70.707829 32.444014 L 70.58949 32.433679 C 70.589559 32.432883 70.598792 32.329293 70.598792 32.329293 L 70.480969 32.318958 L 70.490271 32.214054 L 70.489754 32.214054 L 70.371932 32.203719 L 70.381234 32.098816 C 70.381021 32.098798 70.26643 32.088744 70.263411 32.088481 L 70.272713 31.983577 L 70.154374 31.973242 L 70.163676 31.868856 L 70.045854 31.858521 L 70.055155 31.753617 L 69.936816 31.743282 L 69.946118 31.638379 L 69.828296 31.628044 L 69.837598 31.52314 L 69.837081 31.52314 L 69.719259 31.512805 L 69.72856 31.407902 L 69.610738 31.397567 L 69.62004 31.292664 L 69.619523 31.292664 L 69.501701 31.282328 C 69.50177 31.281532 69.511003 31.177942 69.511003 31.177942 L 69.392664 31.167607 L 69.401965 31.062703 L 69.284143 31.052368 L 69.293445 30.947465 L 69.175106 30.93713 L 69.184408 30.832227 L 69.066585 30.821891 L 69.075887 30.717505 L 68.957548 30.70717 L 68.96685 30.602266 L 68.849028 30.591931 L 68.858329 30.487028 L 68.73999 30.476693 L 68.749292 30.37179 L 68.63147 30.361454 L 68.640771 30.256551 C 68.640587 30.256534 68.525448 30.246481 68.522432 30.246216 L 68.531734 30.141829 L 68.413912 30.131494 L 68.423214 30.026591 L 68.304875 30.016256 L 68.314176 29.911353 L 68.196354 29.901017 L 68.205656 29.796114 L 68.087317 29.785779 L 68.096619 29.680876 L 67.978796 29.67054 L 67.988098 29.566154 L 67.869759 29.555819 L 67.879061 29.450916 L 67.761239 29.44058 L 67.77054 29.335677 L 67.652201 29.325342 L 67.661503 29.220439 L 67.543681 29.210103 C 67.54375 29.209307 67.552983 29.105717 67.552983 29.105717 L 67.552466 29.105717 L 67.434644 29.095382 L 67.443945 28.990479 L 67.326123 28.980143 L 67.335425 28.87524 L 67.334908 28.87524 C 67.334746 28.875227 67.220056 28.865164 67.217086 28.864905 L 67.226388 28.760002 C 67.226227 28.759987 67.11104 28.749929 67.108049 28.749666 L 67.11735 28.644763 L 66.999528 28.634428 L 67.00883 28.530042 C 67.008672 28.530027 66.893481 28.519969 66.890491 28.519706 L 66.899792 28.414803 L 66.78197 28.404468 L 66.791272 28.299565 L 66.67345 28.289229 L 66.682751 28.184326 L 66.682235 28.184326 L 66.564412 28.173991 L 66.573714 28.069088 C 66.573564 28.069076 66.458359 28.059013 66.455375 28.058752 L 66.464677 27.954366 L 66.346855 27.944031 L 66.356156 27.839128 C 66.356011 27.839114 66.240796 27.829054 66.237817 27.828792 L 66.247119 27.723889 L 66.129297 27.713554 L 66.138599 27.608651 L 66.02026 27.598315 C 66.020329 27.59752 66.029561 27.493929 66.029561 27.493929 L 65.911739 27.483594 L 65.921041 27.378691 L 65.802702 27.368355 L 65.812004 27.263452 C 65.811867 27.263441 65.697127 27.253374 65.694181 27.253117 L 65.703483 27.148214 L 65.585144 27.137878 L 65.594446 27.032975 L 65.476624 27.02264 C 65.476693 27.021844 65.485925 26.918254 65.485925 26.918254 C 65.485793 26.918241 65.370552 26.908178 65.367586 26.907918 L 65.376888 26.803015 L 65.259066 26.79268 L 65.268368 26.687777 L 65.267851 26.687777 L 65.150028 26.677441 L 65.15933 26.572538 L 65.041508 26.562203 L 65.05081 26.457817 L 65.050293 26.4573 L 64.932471 26.446965 C 64.93254 26.446169 64.941772 26.342578 64.941772 26.342578 L 64.82395 26.332243 L 64.833252 26.22734 L 64.714913 26.217004 L 64.724215 26.112101 C 64.724096 26.11209 64.608829 26.102025 64.605876 26.101766 L 64.615177 25.996863 C 64.61506 25.996853 64.500283 25.986783 64.497355 25.986528 L 64.506657 25.882141 L 64.388318 25.871806 L 64.39762 25.766903 L 64.279797 25.756567 L 64.289099 25.651664 L 64.17076 25.641329 L 64.180062 25.536426 L 64.06224 25.52609 L 64.071541 25.421187 L 63.953202 25.410852 L 63.962504 25.306466 L 63.844682 25.29613 L 63.853984 25.191227 L 63.735645 25.180892 L 63.744946 25.075989 L 63.627124 25.065653 L 63.636426 24.96075 L 63.518087 24.950415 C 63.518156 24.949619 63.527389 24.846029 63.527389 24.846029 L 63.409566 24.835693 L 63.418868 24.73079 L 63.300529 24.720455 L 63.309831 24.615552 L 63.192008 24.605216 L 63.20131 24.500313 L 63.082971 24.489978 L 63.092273 24.385075 C 63.092182 24.385068 62.977353 24.374993 62.974451 24.37474 C 62.97452 24.373944 62.983752 24.270353 62.983752 24.270353 L 62.865413 24.260018 L 62.874715 24.155115 L 62.756893 24.144779 L 62.766195 24.039876 L 62.765678 24.039876 L 62.647856 24.029541 L 62.657157 23.924638 L 62.539335 23.914303 L 62.548637 23.809399 L 62.430298 23.799064 C 62.430367 23.798269 62.4396 23.694678 62.4396 23.694678 L 62.321261 23.684342 L 62.330562 23.579439 C 62.330484 23.579433 62.215631 23.569356 62.21274 23.569104 L 62.222042 23.464201 L 62.103703 23.453866 L 62.113005 23.348962 L 61.995182 23.338627 L 62.004484 23.234241 C 62.004411 23.234233 61.889054 23.224161 61.886145 23.223905 L 61.895447 23.119002 L 61.777625 23.108667 L 61.786926 23.003764 L 61.668587 22.993429 L 61.677889 22.888525 L 61.560067 22.87819 L 61.569368 22.773287 L 61.451029 22.762952 L 61.460331 22.658049 C 61.460267 22.658044 61.345386 22.647964 61.342509 22.647713 L 61.351811 22.543327 L 61.233472 22.532992 L 61.242773 22.428088 L 61.124951 22.417753 L 61.134253 22.31285 L 61.015914 22.302515 L 61.025216 22.197611 L 60.907393 22.187276 L 60.916695 22.08289 L 60.798356 22.072555 L 60.807658 21.967651 L 60.689836 21.957316 L 60.699137 21.852413 L 60.580798 21.842078 L 60.5901 21.737174 L 60.472278 21.726839 C 60.472347 21.726044 60.48158 21.622453 60.48158 21.622453 L 60.363241 21.612118 L 60.372542 21.507214 L 60.25472 21.496879 L 60.264022 21.391976 L 60.145683 21.381641 L 60.154985 21.276737 L 60.036646 21.266402 L 60.045947 21.161499 L 59.928125 21.151164 L 59.937427 21.046261 L 59.819088 21.035925 C 59.819157 21.03513 59.828389 20.931539 59.828389 20.931539 L 59.710567 20.921204 L 59.719869 20.8163 L 59.60153 20.805965 L 59.610832 20.701062 L 59.493009 20.690727 L 59.502311 20.585824 L 59.383972 20.575488 L 59.393274 20.471102 L 59.275452 20.460767 L 59.284753 20.355863 L 59.166414 20.345528 L 59.175716 20.240625 L 59.057894 20.23029 L 59.067196 20.125387 L 58.948857 20.115051 L 58.958158 20.010148 L 58.840336 19.999813 L 58.849638 19.895426 L 58.731299 19.885091 L 58.740601 19.780188 L 58.622778 19.769853 L 58.63208 19.66495 L 58.513741 19.654614 L 58.523043 19.549711 L 58.405221 19.539376 L 58.414522 19.434473 L 58.296183 19.424137 L 58.305485 19.319751 L 58.187663 19.309416 L 58.196965 19.204513 L 58.078625 19.194177 L 58.087927 19.089274 L 57.970105 19.078939 L 57.979407 18.974036 L 57.861068 18.9637 L 57.870369 18.859314 L 57.752547 18.848979 L 57.761849 18.744076 L 57.64351 18.73374 L 57.652812 18.628837 L 47.910771 17.776176 z " />
    <path
       id="path455"
       style="font-size:133.847px;-inkscape-font-specification:sans-serif;fill:#ffffff;stroke-width:0.20077"
       d="M 47.910771 17.776176 L 45.531071 44.975033 L 18.604549 42.619621 L 17.788578 51.94825 L 44.7151 54.304179 L 42.346769 81.371777 L 52.08881 82.223922 L 54.457141 55.156323 L 81.383663 57.512252 L 82.199634 48.183105 L 55.273112 45.827694 L 57.652812 18.628837 L 47.910771 17.776176 z " />
  </g>
</svg>
