<?xml version="1.0" encoding="UTF-8"?>
<!-- Created with Inkscape (http://www.inkscape.org/) -->
<svg id="svg5" width="1500mm" height="1500mm" version="1.1" viewBox="0 0 1500 1500" xml:space="preserve" xmlns="http://www.w3.org/2000/svg"><g id="layer1"><circle id="path3713" cx="840.45" cy="1221.3" r="0" fill="none" stroke="#000" stroke-width="110.65"/><circle id="path3713-2" cx="840.45" cy="1221.3" r="0" fill="none" stroke="#000" stroke-width="110.65"/><circle id="path3713-8" cx="840.45" cy="1221.3" r="0" fill="none" stroke="#000" stroke-width="110.65"/><path id="path74524" d="m265.56 285.43c-58.633-0.16682-126.86 20.595-179.69 67.753-52.829 47.16-89.827 120.91-85.524 224.93 6.699 161.95 84.612 251.91 175.23 300.46 88.465 47.398 188.42 56.093 247.77 57.688 4.41 16.241 14.958 38.612 29.937 64.458 16.418 28.327 38.094 60.411 62.602 90.999 49.015 61.178 108.65 117.02 163.17 122.88h446.29c69.975-5.2383 133.46-66.305 187.88-153.12 54.416-86.812 99.915-200.17 132.44-313.01 32.528-112.84 52.062-225.07 54.155-309.88 1.0454-42.405-2.1889-77.926-10.769-103.72-4.2903-12.897-9.933-23.438-17.453-31.051-7.5207-7.6121-17.138-12.103-27.903-12.348l-0.2249-5e-3h-0.2278c-245.03 12.974-390.18 19.502-514.61 20.6v283.11l-38.839-19.291-0.2579-263.67c-142.8-0.0727-268.48-7.5163-507.33-20.747l-0.1345-5e-3 -0.1344-1e-3c-29.208-0.31209-71.122-5.9264-116.38-6.0556zm16.261 125.23c2.6597 0 5.4371 0 8.1775 0.0724 15.917 157.55 41.888 253.55 92.494 393.41-63.95-9.1612-122.49-24.716-167.63-56.392-47.45-33.292-80.759-84.086-91.268-165.99-5.551-43.264 1.5101-86.967 27.413-119.16 24.284-30.184 65.382-51.062 130.82-51.933zm529.66 155.4c9.5637 0.0727 19.279 2.1858 28.486 6.6597l46.426 22.558-33.306 68.214a41.635 41.635 0 0 0-14.929 2.4064 41.635 41.635 0 0 0-25.075 53.275 41.635 41.635 0 0 0 6.8987 12.125l-57.381 117.52a41.635 41.635 0 0 0-13.798 2.4101 41.635 41.635 0 0 0-25.072 53.275 41.635 41.635 0 0 0 53.274 25.074 41.635 41.635 0 0 0 25.074-53.275 41.635 41.635 0 0 0-9.7768-15.321l55.918-114.53a41.635 41.635 0 0 0 18.141-2.2133 41.635 41.635 0 0 0 13.229-7.7668c21.785 10.33 39.165 18.419 51.934 25.525 19.129 10.648 25.895 17.674 27.945 25.418 2.0501 7.7436-0.2249 22.488-11.023 48.422-8.2308 19.769-20.801 45.517-37.104 78.97a41.635 41.635 0 0 0-15.586 2.4014 41.635 41.635 0 0 0-25.074 53.276 41.635 41.635 0 0 0 53.274 25.073 41.635 41.635 0 0 0 25.074-53.275 41.635 41.635 0 0 0-8.5092-14.002c16.146-33.095 28.764-58.912 37.578-80.085 11.634-27.946 17.758-48.858 12.427-68.995-5.3318-20.137-21.747-33.218-43.392-45.265-14.337-7.9794-31.916-16.169-53.334-26.3a41.635 41.635 0 0 0-2.368-16.67 41.635 41.635 0 0 0-9.0232-14.537l32.792-67.159 181.25 88.067c32.736 15.906 46.285 55.067 30.378 87.804l-124.62 256.48c-15.907 32.737-55.066 46.286-87.803 30.38l-256.48-124.62c-32.736-15.907-46.285-55.065-30.378-87.803l124.62-256.48c11.433-23.53 34.878-37.147 59.317-37.039z" fill="#fff" stroke-width=".72593"/></g></svg>
