<?xml version="1.0" encoding="UTF-8"?>
<!-- Created with Inkscape (http://www.inkscape.org/) -->
<svg id="svg5" width="1500mm" height="1500mm" version="1.1" viewBox="0 0 1500 1500" xml:space="preserve" xmlns="http://www.w3.org/2000/svg"><g id="layer1"><circle id="path3713" cx="840.45" cy="1221.3" r="0" fill="none" stroke="#000" stroke-width="110.65"/><path id="path75655" d="m1285.9 840.83v446.57c0 32.562-26.98 59.543-59.543 59.543h-357.26v-357.26h-238.17v357.26h-357.26c-32.563 0-59.543-26.98-59.543-59.543v-446.57c0-1.8609 0.93035-3.7213 0.93035-5.5822l534.96-440.99 534.96 440.99c0.9303 1.8609 0.9303 3.7213 0.9303 5.5822zm207.47-64.195-57.682 68.846c-4.6517 5.5822-12.095 9.3038-19.538 10.234h-2.7911c-7.4429 0-13.955-1.8605-19.538-6.5122l-643.81-536.82-643.81 536.82c-6.5125 4.6518-13.955 7.4427-22.329 6.5122-7.4428-0.93003-14.886-4.6517-19.538-10.234l-57.682-68.846c-10.234-12.095-8.3732-31.632 3.7214-41.866l668.93-557.29c39.075-32.563 102.34-32.563 141.41 0l227.01 189.79v-181.42c0-16.746 13.025-29.771 29.772-29.771h178.63c16.746 0 29.771 13.025 29.771 29.771v379.59l203.75 169.33c12.095 10.234 13.955 29.772 3.7215 41.866z" fill="#f9f9f9" stroke-width=".93036"/></g></svg>
