<?xml version="1.0" encoding="UTF-8"?>
<!-- Created with Inkscape (http://www.inkscape.org/) -->
<svg id="svg5" width="512mm" height="512mm" version="1.1" viewBox="0 0 512 512" xml:space="preserve" xmlns="http://www.w3.org/2000/svg"><g id="layer1"><path id="path4230" d="m290.22 97.571c-8.3637 4.8746-18.419 10.327-20.416 15.256-6.7002 14.076-9.2116 39.338-7.1716 37.887 19.883-14.139 42.904-18.059 51.281-25.631 24.822-22.44 34.459-68.828 29.243-61.952-16.885 22.26-44.308 29.411-52.936 34.44zm-130.12 311.5s-23.479-16.24-23.046-21.45c3.5957-43.294-4.0882-45.82-7.9607-45.361-4.6785 0.55481-28.991 15.903-33.733 59.24-3.4416 31.447 8.9842 80.579 10.877 83.238 9.795-26.324 5.9734-47.512 53.863-75.667zm256.5-191.8c-1.1682-32.456-20.709-54.772-33.981-49.546-5.6306 2.2173-9.4109 17.33-7.4339 26.7 1.7535 8.3113 13.701 40.473 14.56 43.192 2.0313 6.429 15.745 45.83 13.307 64.762-2.1368 16.594-50.237 22.335-50.237 22.335s-0.80832 13.507-2.4665 22.633c-2.0384 11.219-6.0797 20.024-6.0797 20.024s10.472 9.7558 10.896 9.745c0.42322-0.0114 65.914-35.412 61.436-159.85zm-50.21 100.54c3.3855-0.94759 23.375-6.2331 22.304-6.9359-7.418-4.8658-15.86-10.991-29.998-21.987-78.494-61.049-149.79-9.6302-148.39-10.098 13.034-4.335 26.798-6.7848 45.921-5.5075 15.402 1.0288 39.615 8.8362 60.824 34.119 7.8891 9.4041 16.841 15.785 49.337 10.409zm-35.014-132.51c2.3749-2.0545 10.629-17.615 9.143-17.976-20.83-5.0656-22.859-14.282-24.897-24.309-1.9096-9.3919-1.615-10.731-5.561-9.4279-31.882 10.531-40.702 16.318-45.58 20.367-7.642 6.3424-2.2816 23.384 0.70661 30.158 4.1649 9.4404 19.477 26.523 26.601 27.899 10.391 2.0065 34.947-19.281 39.588-26.71zm23.172-57.508c-1.7279-7.0669-7.2791-16.168-8.7583-16.168-1.393 0-16.143 11.414-19.953 15.39-8.6468 9.0257-4.4328 25.382 5.159 30.992 16.235 9.4957 28.157-11.381 23.552-30.214zm-12.241-27.029c7.1028-7.0953 16.545-18.742 19.056-36.441 0.98407-6.9368 1.5555-13.039-2.7589-26.754-0.99991-3.1787-4.0394-12.321-4.1531-11.116-2.244 23.782-5.532 50.188-21.054 78.253-4.872 8.809-2.252 7.2078 8.9096-3.9418zm-166.58 141.64c-8.4616 35.493 13.962 82.107 32.126 84.764 17.559 2.5683 67.898-12.63 94.299-19.972 6.9171-1.9235 10.638-0.92015-4.6642-13.74-23.991-16.31-43.354-18.41-62.671-16.218-21.307 2.4184-37.273 8.7248-35.779 7.4741 9.769-8.18 27.169-22.807 60.786-29.431 14.611-2.879 37.16-3.1318 64.384 7.5009 33.768 13.189 51.356 32.748 65.632 39.376 5.0839 2.3604 6.8999 1.2629 8.9086-4.6364 3.3654-9.8834-17.092-71.595-24.504-89.59-11.31-27.462 1.8859-40.588-0.99852-39.952-13.99 3.0838-26.327 12.076-36.669 21.335-25.28 22.634-40.688 27.455-42.974 27.261-7.2195-0.61387-20.728-13.392-25.636-19.88-3.1316-4.14-59.179 6.6781-75.706 21.037-0.37812 0.3285-13.131 8.5072-16.535 24.671zm-17.958 154.53c18.486-7.7561 36.584-24.238 35.019-24.511-9.5971-1.6691-44.991-25.922-44.967-25.67 1.2158 12.516-1.512 23.762-2.7565 36.168-0.51898 5.1734 6.3772 13.188 12.705 14.013zm59.649-54.253c-3.5364 7.8834-7.2286 38.884-58.333 58.777-1.4803 0.57624 42.826 30.872 45.238 30.978 146.32 6.4232 145.08-105 143.13-107.81-0.28106-0.40655-12.796 0.0293-22.489-4.5702-0.73919-0.35067-7.3144-3.7398-11.235-8.8446-1.3297-1.7314-1.5367-2.6724-6.4641-1.2404-22.805 6.6273-90.889 31.056-89.852 32.708zm-45.581-54.347c-26.128-91.294 65.564-95.529 80.102-99.045 11.243-2.7184 8.7928-3.7756 6.422-14.409-3.3287-14.93-2.2918-27.944 0.56177-41.894 2.6984-13.192 4.0901-19.862 9.7891-26.477 4.5934-5.3315 30.477-17.524 36.894-20.602 27.344-13.115 37.792-27.531 40.839-38.87 2.1485-7.9935 5.2924-27.695 3.8792-41.778-0.34783-3.4662 1.8886 1.9651 13.014 36.532 5.6848 17.663 2.8854 38.87-15.044 58.018-2.435 2.6004-1.254 3.1153 2.0204 8.526 6.8032 11.242 10.564 25.299 9.5045 35.526-0.86815 8.3786-4.4498 16.301 0.67282 15.686 0.74056-0.0891 23.367-3.5147 38.857 6.3302 10.489 6.6671 25.432 19.447 21.553 72.832-8.4933 116.9-65.61 142.34-66.011 142.36-0.96683 0.0331-11.653-11.062-12.285-9.7554-32.751 67.657-100.33 65.227-138.02 65.938-7.5354 0.14219-38.869-26.241-41.51-24.436-33.357 22.796-42.618 28.49-55.48 86.754-0.49292-0.92372-17.837-31.689-17.117-93.562 0.58984-50.694 28.285-74.618 40.597-73.238 14.947 1.6751 22.448 9.4731 43.498 23.303 3.7575 2.4686 17.033 10.496 20.054 10.423 7.5264-0.17759 12.661-14.005 13.889-22.957 1.239-9.0299 2.4369-6.8474-4.6107-9.2728-8.8852-3.0578-24.211-19.697-32.073-45.929z" fill="#fff" stroke="#fff" stroke-width="8.7048"/></g></svg>
