<?xml version="1.0" encoding="UTF-8" standalone="no"?>
<!-- Created with Inkscape (http://www.inkscape.org/) -->

<svg
   width="512mm"
   height="512mm"
   viewBox="0 0 512 512"
   version="1.1"
   id="svg5"
   xml:space="preserve"
   inkscape:version="1.2.1 (9c6d41e410, 2022-07-14)"
   sodipodi:docname="jitsi.svg"
   xmlns:inkscape="http://www.inkscape.org/namespaces/inkscape"
   xmlns:sodipodi="http://sodipodi.sourceforge.net/DTD/sodipodi-0.dtd"
   xmlns="http://www.w3.org/2000/svg"
   xmlns:svg="http://www.w3.org/2000/svg"><sodipodi:namedview
     id="namedview7"
     pagecolor="#000000"
     bordercolor="#ffffff"
     borderopacity="0.24705882"
     inkscape:showpageshadow="2"
     inkscape:pageopacity="0"
     inkscape:pagecheckerboard="0"
     inkscape:deskcolor="#595959"
     inkscape:document-units="mm"
     showgrid="false"
     inkscape:zoom="0.373591"
     inkscape:cx="578.17239"
     inkscape:cy="883.31892"
     inkscape:window-width="1920"
     inkscape:window-height="1011"
     inkscape:window-x="0"
     inkscape:window-y="0"
     inkscape:window-maximized="1"
     inkscape:current-layer="layer1" /><defs
     id="defs2"><clipPath
       clipPathUnits="userSpaceOnUse"
       id="clipPath18"><path
         d="M 0,1500 H 1500 V 0 H 0 Z"
         id="path16"
         inkscape:connector-curvature="0" /></clipPath><inkscape:perspective
       sodipodi:type="inkscape:persp3d"
       inkscape:vp_x="0 : 526.18109 : 1"
       inkscape:vp_y="0 : 1000 : 0"
       inkscape:vp_z="744.09448 : 526.18109 : 1"
       inkscape:persp3d-origin="372.04724 : 350.78739 : 1"
       id="perspective5496" /><inkscape:perspective
       id="perspective5347"
       inkscape:persp3d-origin="0.5 : 0.33333333 : 1"
       inkscape:vp_z="1 : 0.5 : 1"
       inkscape:vp_y="0 : 1000 : 0"
       inkscape:vp_x="0 : 0.5 : 1"
       sodipodi:type="inkscape:persp3d" /><linearGradient
       id="linearGradient8896"><stop
         id="stop8898"
         offset="0"
         style="stop-color:#0f3060;stop-opacity:1;" /><stop
         style="stop-color:#0575ce;stop-opacity:1;"
         offset="0.27115166"
         id="stop8902" /><stop
         id="stop12553"
         offset="0.7327472"
         style="stop-color:#0575ce;stop-opacity:1;" /><stop
         style="stop-color:#0f3060;stop-opacity:1;"
         offset="1"
         id="stop8900" /></linearGradient><linearGradient
       id="linearGradient5041"><stop
         style="stop-color:#092d61;stop-opacity:1;"
         offset="0"
         id="stop5043" /><stop
         id="stop5047"
         offset="1"
         style="stop-color:#0575ce;stop-opacity:1;" /></linearGradient><linearGradient
       id="linearGradient3493"><stop
         style="stop-color:#0f3060;stop-opacity:1;"
         offset="0"
         id="stop3495" /><stop
         id="stop3497"
         offset="0.45698157"
         style="stop-color:#0575ce;stop-opacity:1;" /><stop
         style="stop-color:#0575ce;stop-opacity:1;"
         offset="0.73828435"
         id="stop3501" /><stop
         id="stop3507"
         offset="1"
         style="stop-color:#0f3060;stop-opacity:1;" /></linearGradient><linearGradient
       id="linearGradient3529"><stop
         id="stop3531"
         offset="0"
         style="stop-color:#ff8000;stop-opacity:1;" /><stop
         style="stop-color:#fff4e1;stop-opacity:1;"
         offset="0.6627211"
         id="stop3533" /><stop
         id="stop3535"
         offset="0.75"
         style="stop-color:#fff4e1;stop-opacity:1;" /><stop
         id="stop3537"
         offset="1.0000000"
         style="stop-color:#ff8400;stop-opacity:1.0000000;" /></linearGradient><linearGradient
       id="linearGradient3591"><stop
         style="stop-color:#ffffff;stop-opacity:1;"
         offset="0"
         id="stop3593" /><stop
         style="stop-color:#ffffff;stop-opacity:0;"
         offset="1"
         id="stop3595" /></linearGradient><linearGradient
       id="linearGradient7434"><stop
         id="stop7436"
         offset="0"
         style="stop-color:#ffc768;stop-opacity:1;" /><stop
         style="stop-color:#ff8400;stop-opacity:1.0000000;"
         offset="0.37842149"
         id="stop7438" /><stop
         id="stop7440"
         offset="0.77420431"
         style="stop-color:#ff8400;stop-opacity:1.0000000;" /><stop
         id="stop7442"
         offset="1"
         style="stop-color:#ffc768;stop-opacity:1;" /></linearGradient><linearGradient
       id="linearGradient3509"><stop
         id="stop3511"
         offset="0"
         style="stop-color:#ff8000;stop-opacity:1;" /><stop
         style="stop-color:#ffc768;stop-opacity:1.0000000;"
         offset="0.34144846"
         id="stop3513" /><stop
         id="stop3515"
         offset="0.71198046"
         style="stop-color:#ffc768;stop-opacity:1.0000000;" /><stop
         id="stop3517"
         offset="1.0000000"
         style="stop-color:#ff8400;stop-opacity:1.0000000;" /></linearGradient><linearGradient
       id="linearGradient3651"><stop
         style="stop-color:#ff8000;stop-opacity:1;"
         offset="0"
         id="stop3653" /><stop
         id="stop16786"
         offset="0.5"
         style="stop-color:#fff4e1;stop-opacity:1;" /><stop
         style="stop-color:#fff4e1;stop-opacity:1;"
         offset="0.75"
         id="stop17514" /><stop
         style="stop-color:#ff8400;stop-opacity:1.0000000;"
         offset="1.0000000"
         id="stop3655" /></linearGradient><linearGradient
       id="linearGradient2937"><stop
         style="stop-color:#212a3a;stop-opacity:1.0000000;"
         offset="0.0000000"
         id="stop2939" /><stop
         style="stop-color:#404e67;stop-opacity:0.0000000;"
         offset="1.0000000"
         id="stop2941" /></linearGradient></defs><g
     inkscape:label="Layer 1"
     inkscape:groupmode="layer"
     id="layer1"><g
       inkscape:label="Layer 1"
       id="layer1-7"
       style="fill:#ffffff"
       transform="matrix(88.333874,0,0,88.333874,-35.609403,-26.845203)" /><path
       inkscape:export-ydpi="19.25"
       inkscape:export-xdpi="19.25"
       inkscape:export-filename="/home/emcho/storage/images/sc_logo/sc_logo136x203.png"
       sodipodi:nodetypes="ccsssccssscccsssscscsccsssssccssssssccsssccssssccsscssssssssssssccsssccssssssccssssssssssssscsssscssscssc"
       id="path4230"
       d="m 290.21726,97.570749 c -8.36371,4.874561 -18.41925,10.326741 -20.41583,15.256161 -6.70017,14.07633 -9.2116,39.33766 -7.17158,37.88704 19.88338,-14.13881 42.9041,-18.05865 51.28066,-25.63117 24.82216,-22.43964 34.45869,-68.827913 29.24273,-61.951741 -16.88549,22.259925 -44.3076,29.410936 -52.93598,34.43971 z M 160.1015,409.06768 c 0,0 -23.47886,-16.23969 -23.04614,-21.44982 3.59571,-43.29395 -4.08815,-45.82026 -7.96067,-45.36106 -4.6785,0.55481 -28.99062,15.90313 -33.733412,59.23971 -3.441597,31.44694 8.984212,80.57925 10.877092,83.23768 9.79495,-26.32419 5.97344,-47.51175 53.86313,-75.66651 z M 416.60552,217.26407 c -1.16819,-32.45604 -20.70932,-54.77198 -33.98107,-49.54568 -5.63058,2.21727 -9.41089,17.32985 -7.43393,26.70023 1.75348,8.31134 13.70127,40.47336 14.56034,43.19227 2.03132,6.42898 15.74494,45.8304 13.30715,64.76223 -2.13677,16.59403 -50.23743,22.33549 -50.23743,22.33549 0,0 -0.80832,13.50663 -2.4665,22.63313 -2.03838,11.21917 -6.07972,20.02389 -6.07972,20.02389 0,0 10.47248,9.75581 10.89566,9.745 0.42322,-0.0114 65.91432,-35.4118 61.4355,-159.84656 z m -50.20981,100.53895 c 3.38554,-0.94759 23.37524,-6.23314 22.30389,-6.93588 -7.41801,-4.86575 -15.85973,-10.99081 -29.99834,-21.98723 -78.49412,-61.04948 -149.79187,-9.63023 -148.38701,-10.0975 13.03423,-4.33503 26.79835,-6.7848 45.92055,-5.50753 15.40234,1.02882 39.61455,8.83624 60.82403,34.11875 7.8891,9.40407 16.84063,15.78484 49.33688,10.40939 z M 331.38166,185.28861 c 2.37492,-2.05449 10.62937,-17.61481 9.14298,-17.97627 -20.82998,-5.06564 -22.85874,-14.28174 -24.89748,-24.309 -1.90958,-9.39191 -1.61497,-10.73126 -5.56098,-9.42791 -31.88248,10.53064 -40.7015,16.31797 -45.57991,20.36673 -7.642,6.34241 -2.28159,23.38441 0.70661,30.15764 4.16488,9.44035 19.47722,26.52296 26.6009,27.89858 10.39068,2.00649 34.94723,-19.28105 39.58788,-26.70977 z m 23.17174,-57.5076 c -1.72787,-7.06689 -7.27908,-16.16827 -8.75827,-16.16827 -1.39303,0 -16.14306,11.41356 -19.95284,15.39039 -8.64676,9.02568 -4.43278,25.38164 5.15904,30.99191 16.23484,9.49573 28.15695,-11.38061 23.55207,-30.21403 z m -12.24073,-27.029 c 7.10285,-7.095253 16.54497,-18.741961 19.0558,-36.440914 0.98407,-6.936805 1.55547,-13.038687 -2.75886,-26.753862 -0.99991,-3.178741 -4.03942,-12.320718 -4.15307,-11.116267 -2.24401,23.781646 -5.53195,50.188342 -21.05352,78.252883 -4.87197,8.80903 -2.25204,7.20781 8.90965,-3.94184 z M 175.73012,242.39357 c -8.46163,35.49303 13.96171,82.10698 32.1264,84.76389 17.55911,2.56834 67.89848,-12.63035 94.29935,-19.97165 6.91714,-1.92346 10.63823,-0.92015 -4.66425,-13.73983 -23.99096,-16.31 -43.35389,-18.41005 -62.67067,-16.21754 -21.30684,2.41835 -37.27287,8.72485 -35.77915,7.4741 9.76905,-8.17995 27.16905,-22.80738 60.78602,-29.43118 14.6113,-2.87899 37.16024,-3.13184 64.38382,7.50086 33.76767,13.18862 51.35554,32.74781 65.63221,39.37641 5.08388,2.36043 6.89993,1.26294 8.90865,-4.63641 3.36538,-9.88344 -17.09201,-71.59484 -24.50363,-89.59023 -11.3105,-27.46193 1.88586,-40.58789 -0.99852,-39.9521 -13.99016,3.08383 -26.32695,12.07603 -36.66892,21.33543 -25.27972,22.63358 -40.6878,27.45514 -42.97438,27.26075 -7.21952,-0.61387 -20.72771,-13.39163 -25.63557,-19.87996 -3.13156,-4.14003 -59.17858,6.67813 -75.70614,21.03656 -0.37812,0.3285 -13.13063,8.50717 -16.53522,24.6709 z m -17.95756,154.52568 c 18.48563,-7.75606 36.58384,-24.23842 35.01851,-24.51065 -9.59712,-1.66907 -44.99134,-25.92172 -44.9669,-25.67024 1.21575,12.51602 -1.51195,23.7624 -2.75647,36.1677 -0.51898,5.17341 6.37723,13.18835 12.70486,14.01319 z m 59.64947,-54.25313 c -3.53639,7.88337 -7.22861,38.88354 -58.33268,58.77686 -1.48032,0.57624 42.8264,30.8725 45.23761,30.97835 146.31632,6.42319 145.07629,-104.99855 143.13423,-107.80773 -0.28106,-0.40655 -12.79554,0.0293 -22.48852,-4.5702 -0.73919,-0.35067 -7.31436,-3.7398 -11.23474,-8.84457 -1.32973,-1.73143 -1.53668,-2.67235 -6.46408,-1.24041 -22.8046,6.62728 -90.88917,31.05599 -89.85182,32.7077 z M 171.8408,288.31898 c -26.12818,-91.294 65.56438,-95.52936 80.10232,-99.04463 11.24251,-2.71842 8.79276,-3.77555 6.42203,-14.40891 -3.3287,-14.93006 -2.29176,-27.94434 0.56177,-41.89437 2.69839,-13.19158 4.09013,-19.86202 9.78907,-26.47661 4.59344,-5.33148 30.47717,-17.523986 36.89374,-20.60153 27.34444,-13.115164 37.79161,-27.530889 40.83928,-38.86967 2.14853,-7.993487 5.29245,-27.695457 3.87921,-41.7780407 -0.34783,-3.4662314 1.88865,1.9651414 13.01413,36.5324277 5.68475,17.662645 2.88541,38.870463 -15.04374,58.017926 -2.43496,2.600377 -1.25405,3.115347 2.02041,8.526027 6.80318,11.24166 10.56404,25.29897 9.50447,35.52605 -0.86815,8.37863 -4.44977,16.30119 0.67282,15.6856 0.74056,-0.0891 23.36745,-3.51466 38.8566,6.33021 10.48934,6.66706 25.43174,19.44703 21.55308,72.83234 -8.49328,116.90123 -65.61016,142.34244 -66.01056,142.35622 -0.96683,0.0331 -11.65279,-11.062 -12.28525,-9.75537 -32.75067,67.65725 -100.3291,65.22658 -138.01862,65.93776 -7.53538,0.14219 -38.86922,-26.24138 -41.51023,-24.43648 -33.35702,22.79639 -42.61765,28.48991 -55.47958,86.75404 -0.49292,-0.92372 -17.836578,-31.68878 -17.116664,-93.56174 0.589845,-50.69412 28.285104,-74.61797 40.597224,-73.23822 14.94688,1.67506 22.44807,9.47306 43.49848,23.30308 3.75746,2.46864 17.03305,10.49632 20.05404,10.42318 7.52641,-0.17759 12.66089,-14.00496 13.88929,-22.95745 1.23901,-9.02988 2.43688,-6.84744 -4.61073,-9.2728 -8.88521,-3.05776 -24.21114,-19.69689 -32.07259,-45.92904 z"
       style="fill:#ffffff;fill-opacity:1;fill-rule:nonzero;stroke:#ffffff;stroke-width:8.70477;stroke-dasharray:none;stroke-opacity:1" /></g></svg>
