<?xml version="1.0" encoding="UTF-8" standalone="no"?>
<!-- Creator: CorelDRAW 2019 (64-Bit) -->

<svg
   xml:space="preserve"
   width="100%"
   height="100%"
   version="1.1"
   shape-rendering="geometricPrecision"
   text-rendering="geometricPrecision"
   image-rendering="optimizeQuality"
   fill-rule="evenodd"
   clip-rule="evenodd"
   viewBox="0 0 4091.27 4091.73"
   id="svg9"
   sodipodi:docname="liberapay.svg"
   inkscape:version="1.2.2 (b0a8486541, 2022-12-01)"
   xmlns:inkscape="http://www.inkscape.org/namespaces/inkscape"
   xmlns:sodipodi="http://sodipodi.sourceforge.net/DTD/sodipodi-0.dtd"
   xmlns="http://www.w3.org/2000/svg"
   xmlns:svg="http://www.w3.org/2000/svg"><defs
   id="defs13" /><sodipodi:namedview
   id="namedview11"
   pagecolor="#ffffff"
   bordercolor="#000000"
   borderopacity="0.25"
   inkscape:showpageshadow="2"
   inkscape:pageopacity="0.0"
   inkscape:pagecheckerboard="0"
   inkscape:deskcolor="#d1d1d1"
   showgrid="false"
   inkscape:zoom="0.1911172"
   inkscape:cx="2048.4812"
   inkscape:cy="2045.8651"
   inkscape:window-width="1920"
   inkscape:window-height="1011"
   inkscape:window-x="0"
   inkscape:window-y="0"
   inkscape:window-maximized="1"
   inkscape:current-layer="Layer_x0020_1" />
 <g
   id="Layer_x0020_1"
   inkscape:label="Layer 1">
  <metadata
   id="CorelCorpID_0Corel-Layer" />
  
 <g
   fill="#ffffff"
   id="g228"
   transform="matrix(64.933673,0,0,64.933673,-11894.978,-20421.186)"
   style="fill:#ffffff"><path
     d="m 202.45,366.03 c -3.104,0 -5.541,-0.405 -7.311,-1.213 -1.77,-0.809 -3.039,-1.912 -3.803,-3.313 -0.766,-1.398 -1.137,-3 -1.115,-4.818 0.021,-1.814 0.272,-3.748 0.754,-5.803 l 8.327,-34.817 10.164,-1.573 -9.114,37.768 c -0.175,0.786 -0.273,1.508 -0.295,2.163 -0.023,0.655 0.098,1.235 0.36,1.737 0.262,0.504 0.71,0.908 1.344,1.213 0.633,0.307 1.519,0.504 2.656,0.591 l -1.967,8.06"
     id="path224"
     style="fill:#ffffff" /><path
     d="m 239.16,344.33 c 0,3.19 -0.525,6.108 -1.574,8.753 -1.049,2.646 -2.503,4.929 -4.36,6.852 -1.858,1.925 -4.087,3.421 -6.688,4.491 -2.601,1.07 -5.432,1.607 -8.49,1.607 -1.487,0 -2.973,-0.132 -4.459,-0.395 l -2.951,11.869 h -9.704 l 10.884,-45.37 c 1.748,-0.524 3.748,-0.994 5.999,-1.41 2.252,-0.415 4.689,-0.622 7.312,-0.622 2.448,0 4.558,0.371 6.327,1.114 1.771,0.743 3.224,1.76 4.361,3.049 1.136,1.29 1.977,2.798 2.523,4.524 0.546,1.726 0.82,3.574 0.82,5.542 m -23.802,13.442 c 0.743,0.175 1.661,0.262 2.754,0.262 1.704,0 3.256,-0.316 4.655,-0.951 1.398,-0.633 2.59,-1.518 3.574,-2.655 0.982,-1.136 1.747,-2.501 2.294,-4.098 0.546,-1.595 0.819,-3.354 0.819,-5.278 0,-1.879 -0.416,-3.475 -1.245,-4.787 -0.831,-1.311 -2.273,-1.967 -4.327,-1.967 -1.4,0 -2.711,0.131 -3.935,0.394 l -4.589,19.08"
     id="path226"
     style="fill:#ffffff" /></g></g>
</svg>
