<?xml version="1.0" encoding="UTF-8"?>
<!-- Creator: CorelDRAW 2019 (64-Bit) -->
<svg id="svg9" clip-rule="evenodd" fill-rule="evenodd" image-rendering="optimizeQuality" shape-rendering="geometricPrecision" text-rendering="geometricPrecision" version="1.1" viewBox="0 0 4091.3 4091.7" xml:space="preserve" xmlns="http://www.w3.org/2000/svg">
 <g id="Layer_x0020_1">
  
  
 <g id="g228" transform="matrix(64.934 0 0 64.934 -11895 -20421)" fill="#fff"><path id="path224" d="m202.45 366.03c-3.104 0-5.541-0.405-7.311-1.213-1.77-0.809-3.039-1.912-3.803-3.313-0.766-1.398-1.137-3-1.115-4.818 0.021-1.814 0.272-3.748 0.754-5.803l8.327-34.817 10.164-1.573-9.114 37.768c-0.175 0.786-0.273 1.508-0.295 2.163-0.023 0.655 0.098 1.235 0.36 1.737 0.262 0.504 0.71 0.908 1.344 1.213 0.633 0.307 1.519 0.504 2.656 0.591l-1.967 8.06"/><path id="path226" d="m239.16 344.33c0 3.19-0.525 6.108-1.574 8.753-1.049 2.646-2.503 4.929-4.36 6.852-1.858 1.925-4.087 3.421-6.688 4.491s-5.432 1.607-8.49 1.607c-1.487 0-2.973-0.132-4.459-0.395l-2.951 11.869h-9.704l10.884-45.37c1.748-0.524 3.748-0.994 5.999-1.41 2.252-0.415 4.689-0.622 7.312-0.622 2.448 0 4.558 0.371 6.327 1.114 1.771 0.743 3.224 1.76 4.361 3.049 1.136 1.29 1.977 2.798 2.523 4.524s0.82 3.574 0.82 5.542m-23.802 13.442c0.743 0.175 1.661 0.262 2.754 0.262 1.704 0 3.256-0.316 4.655-0.951 1.398-0.633 2.59-1.518 3.574-2.655 0.982-1.136 1.747-2.501 2.294-4.098 0.546-1.595 0.819-3.354 0.819-5.278 0-1.879-0.416-3.475-1.245-4.787-0.831-1.311-2.273-1.967-4.327-1.967-1.4 0-2.711 0.131-3.935 0.394l-4.589 19.08"/></g></g>
</svg>
