<?xml version="1.0" encoding="UTF-8"?>
<!-- Created with Inkscape (http://www.inkscape.org/) -->
<svg id="svg5" width="1500mm" height="1500mm" version="1.1" viewBox="0 0 1500 1500" xml:space="preserve" xmlns="http://www.w3.org/2000/svg"><g id="layer1"><circle id="path3713" cx="840.45" cy="1221.3" r="0" fill="none" stroke="#000" stroke-width="110.65"/><circle id="path3713-2" cx="840.45" cy="1221.3" r="0" fill="none" stroke="#000" stroke-width="110.65"/><circle id="path3713-8" cx="840.45" cy="1221.3" r="0" fill="none" stroke="#000" stroke-width="110.65"/><path id="path74260" d="m1163 0.0082333c-20.806-0.13642-34.999 1.4134-50.91 5.1512-15.447 3.6291-41.119 13.032-57.048 20.894-15.929 7.8627-40.327 24.71-54.217 37.438-13.89 12.728-33.327 34.225-43.192 47.773-14.518 19.936-18.471 23.286-20.733 17.57-1.5365-3.8846-2.9205-16.27-3.0761-27.523-0.1557-11.253-1.4501-34.273-2.8772-51.157l-2.5942-30.697h-267.65v1059.3h284.87v-348.29c0-348.29 1e-4 -348.29 11.387-366.12 6.2629-9.8107 19.598-25.358 29.633-34.55 10.036-9.1916 24.164-19.772 31.396-23.512 7.2319-3.7398 22.758-10.106 34.502-14.147 11.744-4.0406 39.201-9.5097 61.015-12.154 30.808-3.734 51.07-3.7344 90.771-2e-3 28.11 2.6432 51.656 4.248 52.321 3.5671 0.666-0.6812 1.8253-62.216 2.5761-136.74l1.3643-135.51-14.043-4.2182c-7.7237-2.32-34.807-5.1771-60.185-6.3463-8.713-0.40163-16.383-0.6346-23.318-0.68008zm-923.59 15.437v1484.6h1019.1v-300.92h-718.2v-1183.6h-150.46z" fill="#fff" stroke-width="4.0123"/></g></svg>
