<?xml version="1.0" encoding="UTF-8"?>
<!-- Created with Inkscape (http://www.inkscape.org/) -->
<svg id="svg5" width="1500mm" height="1500mm" version="1.1" viewBox="0 0 1500 1500" xml:space="preserve" xmlns="http://www.w3.org/2000/svg"><g id="layer1"><circle id="path3713" cx="840.45" cy="1221.3" r="0" fill="none" stroke="#000" stroke-width="110.65"/><path id="path75745" d="m600 950h300v-75h-100v-350h-89.062l-115.62 107.03 60.156 62.5c18.75-16.406 30.469-25 42.969-44.531h1.5625v225h-100zm400-200c0 142.19-85.938 325-250 325s-250-182.81-250-325 85.938-325 250-325 250 182.81 250 325zm400 200v-400c-110.16 0-200-89.844-200-200h-900c0 110.16-89.844 200-200 200v400c110.16 0 200 89.844 200 200h900c0-110.16 89.844-200 200-200zm100-650v900c0 27.344-22.656 50-50 50h-1400c-27.344 0-50-22.656-50-50v-900c0-27.344 22.656-50 50-50h1400c27.344 0 50 22.656 50 50z" fill="#fff" stroke-width=".78125"/></g></svg>
