<?xml version="1.0" encoding="UTF-8"?>
<!-- Created with Inkscape (http://www.inkscape.org/) -->
<svg id="svg5" width="512mm" height="512mm" version="1.1" viewBox="0 0 512 512" xml:space="preserve" xmlns="http://www.w3.org/2000/svg"><g id="layer1" fill="#fff" stroke="#fff"><path id="rect908-1-6_2_" d="m302.93 479.2c0.14105-0.0101 0.2821-0.0147 0.42462-0.0147h50.96s2.9268-0.25124 6.5073-1.9747c4.5503-2.1906 9.4076-5.4098 13.934-8.3865 5.041-3.3161 9.7456-6.8497 14.701-10.538 0.71111-0.52892 1.3591-1.0681 1.9482-1.6059-21.138 2.7828-12.406-45.739-12.406-58.175v-275.92c0-31.013 0.45401-82.212-45.302-78.871v56.148c0 18.182 2.7637 38.621-0.95501 56.493-7.9296 38.104-40.566 45.979-74.496 45.631-31.683-0.3247-63.647-0.10722-78.317-34.141-7.5593-17.534-4.4313-39.452-4.4401-58.077-0.0101-22.068 0.1528-44.135 0.044-66.203-55.667-0.63325-42.952 83.017-42.952 117.5v272.65c0 19.33 1.6647 24.51-21.248 24.644-44.006 0.25859-76.983-46.96-88.384-84.127-14.813-48.283-7.8208-105.95 23.955-146.17 11.947-15.122 27.648-27.566 46.039-33.774v-74.444c0-23.23-1.4046-47.331 9.7294-68.57 15.465-29.503 48.989-47.799 82.005-46.996 12.738-0.5113 25.518 1.4208 31.83 14.186-0.23948 26.395-0.20863 52.792-0.19687 79.188 9e-3 18.236-5.21 46.59 4.6208 63.047 10.029 16.792 38.208 20.233 55.057 12.7 23.661-10.577 19.34-36.77 19.402-58.141 0.0838-29.078 6e-3 -58.156-0.10723-87.233-0.191-49.194 82.601-13.971 100.44 4.7428 33.38 35.027 23.088 91.834 23.088 135.91 0 9.7382-4.4533 21.893 5.3687 25.828 7.934 3.178 15.368 7.5387 22.133 12.753 16.194 12.481 28.445 29.608 36.756 48.174 30.146 67.329 11.16 183.29-73.667 200.48 0.18219 1.9908-0.72287 4.0067-2.5506 5.1894 0 0-14.96 12.043-23.048 17.218-7.6093 4.5253-11.914 8.2161-18.521 11.115-2.6505 1.1622-7.1053 2.4595-8.3395 2.4595h-53.585l-1.8483-0.29826c-5.664 10.141-22.036 17.472-41.355 17.478-24.022 6e-3 -43.503-11.319-43.515-25.295v-0.0221c-0.0101-13.976 19.454-25.311 43.475-25.317 20.539-6e-3 37.758 8.2734 42.328 19.409z" fill="#fff" stroke="#fff" stroke-miterlimit="10" stroke-width="5.877"/></g></svg>
