<?xml version="1.0" encoding="UTF-8" standalone="no"?>
<!-- Created with Inkscape (http://www.inkscape.org/) -->

<svg
   width="512mm"
   height="512mm"
   viewBox="0 0 512 512"
   version="1.1"
   id="svg5"
   xml:space="preserve"
   inkscape:version="1.2.1 (9c6d41e410, 2022-07-14)"
   sodipodi:docname="mumble.svg"
   xmlns:inkscape="http://www.inkscape.org/namespaces/inkscape"
   xmlns:sodipodi="http://sodipodi.sourceforge.net/DTD/sodipodi-0.dtd"
   xmlns="http://www.w3.org/2000/svg"
   xmlns:svg="http://www.w3.org/2000/svg"><sodipodi:namedview
     id="namedview7"
     pagecolor="#000000"
     bordercolor="#ffffff"
     borderopacity="0.24705882"
     inkscape:showpageshadow="2"
     inkscape:pageopacity="0"
     inkscape:pagecheckerboard="0"
     inkscape:deskcolor="#595959"
     inkscape:document-units="mm"
     showgrid="false"
     inkscape:zoom="0.373591"
     inkscape:cx="531.32972"
     inkscape:cy="979.68099"
     inkscape:window-width="1920"
     inkscape:window-height="1011"
     inkscape:window-x="0"
     inkscape:window-y="0"
     inkscape:window-maximized="1"
     inkscape:current-layer="layer1" /><defs
     id="defs2"><clipPath
       clipPathUnits="userSpaceOnUse"
       id="clipPath18"><path
         d="M 0,1500 H 1500 V 0 H 0 Z"
         id="path16"
         inkscape:connector-curvature="0" /></clipPath></defs><g
     inkscape:label="Layer 1"
     inkscape:groupmode="layer"
     id="layer1"><g
       inkscape:label="Layer 1"
       id="layer1-7"
       style="fill:#ffffff"
       transform="matrix(88.333874,0,0,88.333874,-35.609403,-26.845203)" /><path
       id="rect908-1-6_2_"
       fill="url(#rect908-1-6_1_)"
       stroke="#000000"
       stroke-width="5.87702"
       stroke-miterlimit="10"
       d="m 302.92517,479.19597 c 0.14105,-0.0101 0.2821,-0.0147 0.42462,-0.0147 h 50.95961 c 0,0 2.92676,-0.25124 6.50733,-1.97468 4.55028,-2.19065 9.40763,-5.40979 13.9344,-8.3865 5.04102,-3.3161 9.74557,-6.84966 14.70137,-10.5375 0.71111,-0.52892 1.35906,-1.06814 1.94823,-1.60589 -21.13816,2.78277 -12.40639,-45.73935 -12.40639,-58.17512 0,-47.59944 0,-95.19886 0,-142.7983 0,-44.37294 0,-88.74736 0,-133.1203 0,-31.013034 0.45401,-82.212133 -45.30152,-78.871048 0,18.71536 0,37.432194 0,56.147554 0,18.182024 2.76367,38.620814 -0.95501,56.492824 -7.92957,38.10365 -40.56611,45.97885 -74.4956,45.63063 -31.683,-0.3247 -63.64663,-0.10722 -78.31713,-34.14106 -7.55931,-17.53408 -4.43127,-39.45241 -4.44008,-58.07668 -0.0101,-22.068204 0.1528,-44.134934 0.044,-66.203132 -55.66711,-0.633249 -42.95218,83.017282 -42.95218,117.497742 0,66.23545 0,132.4709 0,198.70635 0,24.64821 0,49.29495 0,73.94316 0,19.32951 1.66467,24.5101 -21.24835,24.6438 -44.005641,0.25859 -76.983053,-46.9603 -88.384467,-84.12656 -14.8130209,-48.28264 -7.82084,-105.95086 23.954722,-146.17317 11.946507,-15.12157 27.648423,-27.56615 46.039083,-33.77374 0,-24.81424 0,-49.62994 0,-74.44418 0,-23.230394 -1.40461,-47.330564 9.729402,-68.570102 15.46537,-29.502626 48.98935,-47.7992499 82.00496,-46.9955679 12.73844,-0.5113 25.51801,1.420769 31.82992,14.1856509 -0.23948,26.395152 -0.20863,52.791775 -0.19687,79.188395 0.009,18.236384 -5.20998,46.590064 4.6208,63.047184 10.02912,16.7921 38.20795,20.2331 55.05736,12.70022 23.66088,-10.57716 19.3398,-36.76956 19.40151,-58.14132 0.0838,-29.078014 0.006,-58.156031 -0.10723,-87.232573 -0.191,-49.193571 82.60148,-13.971139 100.43676,4.742754 33.37999,35.027021 23.08786,91.834269 23.08786,135.906019 0,9.73822 -4.45331,21.89336 5.36866,25.82803 7.93397,3.17799 15.36839,7.53874 22.13284,12.75312 16.19412,12.48131 28.44476,29.60842 36.75633,48.17391 30.14616,67.32858 11.16046,183.29388 -73.66694,200.47827 0.18219,1.99085 -0.72287,4.00667 -2.55062,5.18941 0,0 -14.95995,12.04348 -23.0482,17.21819 -7.60926,4.52531 -11.91417,8.21607 -18.52141,11.11491 -2.65054,1.16218 -7.10531,2.45954 -8.33949,2.45954 h -53.58518 l -1.84831,-0.29826 c -5.66398,10.14079 -22.03588,17.47236 -41.3551,17.47824 -24.02231,0.006 -43.50315,-11.31913 -43.51491,-25.29467 0,-0.008 0,-0.0148 0,-0.0221 -0.0101,-13.97555 19.4544,-25.31084 43.47523,-25.31672 20.53871,-0.006 37.75837,8.27337 42.32775,19.40885 z"
       style="fill:#ffffff" /></g></svg>
