<?xml version="1.0" encoding="UTF-8" standalone="no"?>
<svg
   viewBox="0 -256 1792 1792"
   id="svg2989"
   version="1.1"
   inkscape:version="1.2.2 (b0a8486541, 2022-12-01)"
   width="100%"
   height="100%"
   sodipodi:docname="nitter.svg"
   xml:space="preserve"
   xmlns:inkscape="http://www.inkscape.org/namespaces/inkscape"
   xmlns:sodipodi="http://sodipodi.sourceforge.net/DTD/sodipodi-0.dtd"
   xmlns="http://www.w3.org/2000/svg"
   xmlns:svg="http://www.w3.org/2000/svg"
   xmlns:rdf="http://www.w3.org/1999/02/22-rdf-syntax-ns#"
   xmlns:cc="http://creativecommons.org/ns#"
   xmlns:dc="http://purl.org/dc/elements/1.1/"><metadata
     id="metadata2999"><rdf:RDF><cc:Work
         rdf:about=""><dc:format>image/svg+xml</dc:format><dc:type
           rdf:resource="http://purl.org/dc/dcmitype/StillImage" /></cc:Work></rdf:RDF></metadata><defs
     id="defs2997" /><sodipodi:namedview
     pagecolor="#ffffff"
     bordercolor="#666666"
     borderopacity="1"
     objecttolerance="10"
     gridtolerance="10"
     guidetolerance="10"
     inkscape:pageopacity="0"
     inkscape:pageshadow="2"
     inkscape:window-width="1904"
     inkscape:window-height="1034"
     id="namedview2995"
     showgrid="false"
     inkscape:zoom="0.37249375"
     inkscape:cx="825.5172"
     inkscape:cy="838.94024"
     inkscape:window-x="0"
     inkscape:window-y="0"
     inkscape:window-maximized="1"
     inkscape:current-layer="svg2989"
     inkscape:showpageshadow="0"
     inkscape:pagecheckerboard="0"
     inkscape:deskcolor="#d1d1d1" /><path
     style="fill:#ffffff;stroke-width:4.07273"
     d="M 175.44057,1523.4685 162.9091,1510.937 V 640 -230.93707 L 175.44057,-243.46853 187.97203,-256 h 146.18972 146.18968 l 12.71982,13.23636 c 6.99593,7.28 171.53501,237.6118332 365.6425,511.84851 194.10735,274.23669 355.21355,499.35672 358.01355,500.26672 4.0541,1.3175 5.0909,-100.37261 5.0909,-499.31708 v -500.97158 l 12.5315,-12.53146 L 1246.8811,-256 h 178.5735 178.5734 l 12.5314,12.53147 12.5315,12.53146 V 640 1510.937 l -12.5315,12.5315 L 1604.028,1536 h -146.1897 -146.1898 l -12.7198,-13.2364 c -6.9959,-7.28 -171.535,-237.6118 -365.64243,-511.8485 C 739.17883,736.67841 578.07274,511.55844 575.27274,510.64847 c -4.05412,-1.31757 -5.09091,100.37255 -5.09091,499.31703 V 1510.937 L 557.65037,1523.4685 545.11887,1536 H 366.54546 187.97203 Z M 488.72728,917.25875 v -537.2867 l 12.53146,-12.5315 12.5315,-12.53146 h 24.53031 24.53037 l 12.98048,13.23636 c 7.13923,7.28 183.93132,254.69819 392.87131,549.81819 l 379.89089,536.58186 h 99.5214 99.5214 V 640 -174.54545 h -122.1818 -122.1819 v 537.28672 537.28668 l -12.5315,12.53148 -12.5314,12.53148 h -24.5304 -24.5303 l -12.9805,-13.23636 c -7.1393,-7.28 -183.9313,-254.69819 -392.8713,-549.81819 L 443.40642,-174.54545 H 343.88501 244.36364 V 640 1454.5455 h 122.18182 122.18182 z"
     id="path202" /><path
     style="fill:#000000;stroke-width:3.584"
     id="path196"
     d="" /><path
     style="fill:#000000;stroke-width:3.584"
     id="path178"
     d="" /></svg>
