<?xml version="1.0" encoding="UTF-8"?>
<svg id="svg2989" version="1.1" viewBox="0 -256 1792 1792" xml:space="preserve" xmlns="http://www.w3.org/2000/svg" xmlns:cc="http://creativecommons.org/ns#" xmlns:dc="http://purl.org/dc/elements/1.1/" xmlns:rdf="http://www.w3.org/1999/02/22-rdf-syntax-ns#"><metadata id="metadata2999"><rdf:RDF><cc:Work rdf:about=""><dc:format>image/svg+xml</dc:format><dc:type rdf:resource="http://purl.org/dc/dcmitype/StillImage"/></cc:Work></rdf:RDF></metadata><path id="path202" d="m175.44 1523.5-12.531-12.532v-1741.9l25.063-25.063h292.38l12.72 13.236c6.9959 7.28 171.54 237.61 365.64 511.85 194.11 274.24 355.21 499.36 358.01 500.27 4.0541 1.3175 5.0909-100.37 5.0909-499.32v-500.97l25.063-25.063h357.15l25.063 25.063v1741.9l-25.063 25.063h-292.38l-12.72-13.236c-6.9959-7.28-171.54-237.61-365.64-511.85-194.11-274.24-355.21-499.36-358.01-500.27-4.0541-1.3176-5.0909 100.37-5.0909 499.32v500.97l-25.063 25.063h-357.15zm313.29-606.21v-537.29l12.531-12.532 12.532-12.531h49.061l12.98 13.236c7.1392 7.28 183.93 254.7 392.87 549.82l379.89 536.58h199.04v-1629.1h-244.36v1074.6l-25.063 25.063h-49.061l-12.98-13.236c-7.1393-7.28-183.93-254.7-392.87-549.82l-379.89-536.58h-199.04v1629.1h244.36z" fill="#fff" stroke-width="4.0727"/></svg>
