<?xml version="1.0" encoding="UTF-8"?>
<!-- Created with Inkscape (http://www.inkscape.org/) -->
<svg id="svg5" width="1500mm" height="1500mm" version="1.1" viewBox="0 0 1500 1500" xml:space="preserve" xmlns="http://www.w3.org/2000/svg"><circle id="path3713" cx="840.45" cy="1221.3" r="0" fill="none" stroke="#000" stroke-width="110.65"/><g id="g1577" transform="translate(-.0049031 .038052)" fill="#fff" stroke="#fff" stroke-width="10"><path id="path75565" d="m411.54 1317.1c-175.25-95.902-325.54-180.62-333.98-188.26-19.202-17.378-24.48-731.31-5.5824-755.21 14.044-17.765 659.97-365.63 678.91-365.63 16.68 0 655.32 345.11 674.93 364.72 22.212 22.213 16.378 737.39-6.1838 757.96-27.611 25.177-654.68 361.75-673.03 361.24-9.0315-0.25-159.81-78.92-335.06-174.82zm646.76-60.206c158.98-86.073 293.15-160.59 298.15-165.59 18.004-18.007 23.256-662.62 5.5244-678.07-25.222-21.97-604.94-336.01-615.55-333.45-5.5544 1.3363-145.44 75.951-310.86 165.81l-300.76 163.38-5.0157 98.338c-11.368 222.87-6.2657 567.54 8.5927 580.47 11.826 10.29 458.39 256.52 568.36 313.38 48.195 24.922 10.347 40.454 351.56-144.28zm-542.96-65.293c-7.9212-9.5444-2.3574-38.11 30.053-154.3 21.875-78.421 47.45-180.07 56.833-225.88l17.06-83.294-35.379-41.706c-206.2-243.08 107.77-530.15 348.58-318.72 91.466 80.308 86.147 193.04-14.683 311.17-32.252 37.784-35.188 44.511-30.644 70.221 9.3946 53.163 35.294 160.92 71.119 295.89 29.279 110.31 33.961 136.78 25.907 146.48-14.641 17.642-454.21 17.765-468.85 0.1313zm421.64-27.044c6.3209-3.9975 9.8365-8.3382 7.8125-9.6461-9.7791-6.3189-366.96 3.1704-366.96 9.7492 0 9.7115 343.79 9.6129 359.15-0.1031zm-26.295-41.321c-93.926-336.54-102.8-414.96-53.394-472.06 116.25-134.38 89.783-249.92-65.204-284.61-181.95-40.718-280.05 144.31-151.68 286.06 52.639 58.126 43.311 143.37-51.497 470.61-5.0927 17.578-5.0927 17.578 160.79 17.578 165.88 0 165.88 0 160.98-17.578zm17.723-513.67c12.512-19.336 25.031-43.945 27.819-54.688 4.8061-18.52 4.546-18.705-5.0229-3.5686-20.209 31.966-74.832 101.6-91.081 116.11-9.1669 8.1855-16.667 21.821-16.667 30.302 0 18.582 48.348-31.588 84.952-88.153zm-495.92-401.65c171.43-92.764 316.66-168.66 322.73-168.66s8.8605-3.5156 6.2049-7.8125c-9.4892-15.354-29.67-5.7309-337.13 160.75-350.19 189.62-348.66 188.74-342.4 198.88 2.6818 4.3393 11.641 2.8734 21.733-3.5561 9.4439-6.0162 157.43-86.836 328.86-179.6z"/><path id="path75575" d="m82.282 391.66c-1.0567-1.1402-1.8351-2.886-1.8351-4.1158 0-8.3131 26.103-23.348 269.4-155.17 226.39-122.66 285.72-154.36 333.77-178.35 43.455-21.694 57.189-27.265 67.484-27.381 5.3572-0.05927 5.8996 0.08295 8.008 2.0993 1.2439 1.1896 2.5978 3.1271 3.0085 4.3055 1.0302 2.9554-1.405 5.7596-5.5379 6.3772-13.214 1.9743-194.44 97.776-505.32 267.12-73.807 40.206-128.55 70.278-142.01 77.998-12.318 7.0714-17.059 9.0322-21.925 9.0693-2.5352 0.0193-3.6049-0.39486-5.0514-1.9557z"/><path id="path75601" d="m843.48 699.52c-2.1462-6.7621 5.4427-20.608 19.215-35.057 23.272-24.415 62.605-74.646 86.065-109.91 10.302-15.485 9.3868-14.28 10.214-13.452 0.3625 0.3625-0.42923 5.0635-1.7594 10.447-2.7762 11.236-14.627 35.819-25.906 53.741-28.966 46.026-73.244 96.371-84.756 96.371-1.4724 0-2.6543-0.82345-3.0723-2.1404z"/><path id="path75619" d="m669.52 1170.5c-21.739-0.342-48.119-1.4406-66.674-2.7765-13.471-0.97-23.333-2.2954-22.587-3.0356 0.80554-0.7991 15.981-2.2253 36.478-3.4284 31.694-1.8602 105.13-4.7984 138.77-5.5527 37.676-0.8447 90.701-1.3882 139.43-1.4292 42.277-0.036 43.64-0.01 47.259 1.0284 0.74492 0.2129 1.5017 0.5645 1.6818 0.7814 0.72712 0.8761-1.8507 3.8912-5.3728 6.2843-2.1103 1.4339-3.9309 2.2287-6.1965 2.7054-5.2548 1.1053-23.12 2.6172-43.854 3.7112-14.592 0.7699-56.943 1.3193-133.22 1.728-51.614 0.2766-67.291 0.2736-85.724-0.016z"/></g></svg>
