<?xml version="1.0" encoding="UTF-8"?>
<!-- Created with Inkscape (http://www.inkscape.org/) -->
<svg id="svg5" width="1500mm" height="1500mm" version="1.1" viewBox="0 0 1500 1500" xml:space="preserve" xmlns="http://www.w3.org/2000/svg"><g id="layer1"><circle id="path3713" cx="840.45" cy="1221.3" r="0" fill="none" stroke="#000" stroke-width="110.65"/><path id="path75685" d="m859.38 1046.9v156.25c0 17.578-13.672 31.25-31.25 31.25h-156.25c-17.578 0-31.25-13.672-31.25-31.25v-156.25c0-17.578 13.672-31.25 31.25-31.25h156.25c17.578 0 31.25 13.672 31.25 31.25zm250-484.37c0 138.67-96.68 193.36-167.97 233.4-50.781 29.297-82.031 47.852-82.031 79.102v31.25c0 17.578-13.672 31.25-31.25 31.25h-156.25c-17.578 0-31.25-13.672-31.25-31.25v-66.406c0-120.12 85.938-158.2 155.27-189.45 58.594-27.344 94.727-45.898 94.727-89.844 0-56.641-71.289-98.633-135.74-98.633-34.18 0-70.312 10.742-92.773 26.367-21.484 14.648-41.992 36.132-78.125 81.055-5.8594 7.8123-14.648 11.719-24.414 11.719-6.8359 0-13.672-1.9532-18.555-5.8593l-105.47-80.078c-12.695-9.7655-15.625-28.32-6.836-41.992 80.078-125.98 192.38-187.5 340.82-187.5 160.16 0 339.84 126.95 339.84 296.87zm-359.38-437.5c-344.73 0-625 280.27-625 625s280.27 625 625 625c344.73 0 625-280.27 625-625s-280.27-625-625-625zm750 625c0 414.06-335.94 750-750 750-414.06 0-750-335.94-750-750s335.94-750 750-750c414.06 0 750 335.94 750 750z" fill="#fff" stroke-width=".97656"/></g></svg>
