<?xml version="1.0" encoding="UTF-8" standalone="no"?>
<!-- Created with Inkscape (http://www.inkscape.org/) -->

<svg
   width="1500mm"
   height="1500mm"
   viewBox="0 0 1500 1500"
   version="1.1"
   id="svg5"
   xml:space="preserve"
   inkscape:export-filename="pleroma.svg"
   inkscape:export-xdpi="96"
   inkscape:export-ydpi="96"
   inkscape:version="1.2.1 (9c6d41e410, 2022-07-14)"
   sodipodi:docname="question.svg"
   xmlns:inkscape="http://www.inkscape.org/namespaces/inkscape"
   xmlns:sodipodi="http://sodipodi.sourceforge.net/DTD/sodipodi-0.dtd"
   xmlns="http://www.w3.org/2000/svg"
   xmlns:svg="http://www.w3.org/2000/svg"><sodipodi:namedview
     id="namedview7"
     pagecolor="#393939"
     bordercolor="#000000"
     borderopacity="0.24705882"
     inkscape:showpageshadow="2"
     inkscape:pageopacity="0"
     inkscape:pagecheckerboard="0"
     inkscape:deskcolor="#3c3c3c"
     inkscape:document-units="mm"
     showgrid="false"
     inkscape:zoom="0.125"
     inkscape:cx="2348"
     inkscape:cy="2712"
     inkscape:window-width="1920"
     inkscape:window-height="1009"
     inkscape:window-x="-8"
     inkscape:window-y="-8"
     inkscape:window-maximized="1"
     inkscape:current-layer="layer1" /><defs
     id="defs2" /><g
     inkscape:label="Layer 1"
     inkscape:groupmode="layer"
     id="layer1"><circle
       r="0"
       style="fill:none;stroke:#000000;stroke-width:110.653;stroke-miterlimit:4;stroke-dasharray:none;stroke-opacity:1"
       cy="1221.2555"
       cx="840.45007"
       id="path3713" /><path
       d="m 859.375,1046.8749 v 156.2502 c 0,17.5781 -13.6719,31.2498 -31.25,31.2498 h -156.25 c -17.5781,0 -31.25,-13.6717 -31.25,-31.2498 v -156.2502 c 0,-17.5781 13.6719,-31.2498 31.25,-31.2498 h 156.25 c 17.5781,0 31.25,13.6717 31.25,31.2498 z m 250,-484.3749 c 0,138.6718 -96.6797,193.3594 -167.9688,233.3984 -50.7812,29.2969 -82.0312,47.8516 -82.0312,79.1017 v 31.2498 c 0,17.5781 -13.6719,31.2501 -31.25,31.2501 h -156.25 c -17.5781,0 -31.25,-13.672 -31.25,-31.2501 v -66.406 c 0,-120.1174 85.9375,-158.2032 155.2734,-189.4533 58.5938,-27.3436 94.7266,-45.8984 94.7266,-89.8438 0,-56.6406 -71.2891,-98.6328 -135.7422,-98.6328 -34.1797,0 -70.3125,10.7421 -92.7734,26.3674 -21.4844,14.6482 -41.9922,36.1325 -78.12504,81.0546 -5.85937,7.8123 -14.64843,11.7187 -24.41405,11.7187 -6.83592,0 -13.67188,-1.9532 -18.55467,-5.8593 L 435.54689,495.117 c -12.69534,-9.7655 -15.62503,-28.3202 -6.83596,-41.9919 80.07814,-125.9767 192.38287,-187.5 340.82037,-187.5 160.1562,0 339.8437,126.953 339.8437,296.8749 z M 750,125.0001 c -344.72657,0 -625.00002,280.2734 -625.00002,624.9999 0,344.7265 280.27345,624.9999 625.00002,624.9999 344.7266,0 625,-280.2734 625,-624.9999 0,-344.7265 -280.2734,-624.9999 -625,-624.9999 z M 1500,750 c 0,414.0624 -335.9375,750 -750,750 C 335.93748,1500 0,1164.0624 0,750 0,335.9376 335.93748,0 750,0 c 414.0625,0 750,335.9376 750,750 z"
       id="path75685"
       style="fill:#ffffff;stroke-width:0.976561" /></g></svg>
