<?xml version="1.0" encoding="UTF-8"?>
<!-- Created with Inkscape (http://www.inkscape.org/) -->
<svg id="svg5" width="1500mm" height="1500mm" version="1.1" viewBox="0 0 1500 1500" xml:space="preserve" xmlns="http://www.w3.org/2000/svg"><g id="layer1"><circle id="path3713" cx="840.45" cy="1221.3" r="0" fill="none" stroke="#000" stroke-width="110.65"/><path id="path75670" d="m107.14 1232.1h857.14v-107.14h-857.14zm0-428.57h857.14v-107.14h-857.14zm1312.5 375c0-44.364-35.993-80.357-80.357-80.357s-80.357 35.993-80.357 80.357 35.993 80.357 80.357 80.357 80.357-35.993 80.357-80.357zm-1312.5-803.57h857.14v-107.14h-857.14zm1312.5 375c0-44.364-35.993-80.357-80.357-80.357s-80.357 35.993-80.357 80.357c0 44.364 35.993 80.357 80.357 80.357s80.357-35.993 80.357-80.357zm0-428.57c0-44.364-35.993-80.357-80.357-80.357s-80.357 35.993-80.357 80.357 35.993 80.357 80.357 80.357 80.357-35.993 80.357-80.357zm80.357 696.43v321.43h-1500v-321.43zm0-428.57v321.43h-1500v-321.43zm0-428.57v321.43h-1500v-321.43z" fill="#fff" stroke-width=".83705"/></g></svg>
