<?xml version="1.0" encoding="UTF-8" standalone="no"?>
<!-- Created with Inkscape (http://www.inkscape.org/) -->

<svg
   width="1500mm"
   height="1500mm"
   viewBox="0 0 1500 1500"
   version="1.1"
   id="svg5"
   xml:space="preserve"
   inkscape:export-filename="pleroma.svg"
   inkscape:export-xdpi="96"
   inkscape:export-ydpi="96"
   inkscape:version="1.2.1 (9c6d41e410, 2022-07-14)"
   sodipodi:docname="users.svg"
   xmlns:inkscape="http://www.inkscape.org/namespaces/inkscape"
   xmlns:sodipodi="http://sodipodi.sourceforge.net/DTD/sodipodi-0.dtd"
   xmlns="http://www.w3.org/2000/svg"
   xmlns:svg="http://www.w3.org/2000/svg"><sodipodi:namedview
     id="namedview7"
     pagecolor="#393939"
     bordercolor="#000000"
     borderopacity="0.24705882"
     inkscape:showpageshadow="2"
     inkscape:pageopacity="0"
     inkscape:pagecheckerboard="0"
     inkscape:deskcolor="#3c3c3c"
     inkscape:document-units="mm"
     showgrid="false"
     inkscape:zoom="0.125"
     inkscape:cx="2348"
     inkscape:cy="2712"
     inkscape:window-width="1920"
     inkscape:window-height="1009"
     inkscape:window-x="-8"
     inkscape:window-y="-8"
     inkscape:window-maximized="1"
     inkscape:current-layer="layer1" /><defs
     id="defs2" /><g
     inkscape:label="Layer 1"
     inkscape:groupmode="layer"
     id="layer1"><circle
       r="0"
       style="fill:none;stroke:#000000;stroke-width:110.653;stroke-miterlimit:4;stroke-dasharray:none;stroke-opacity:1"
       cy="1221.2555"
       cx="840.45007"
       id="path3713" /><path
       d="m 463.28308,750.00017 c -81.24949,2.34359 -154.68651,37.49969 -207.02995,99.99912 H 151.56629 c -78.124489,0 -151.56151037,-37.49979 -151.56151037,-124.21784 0,-63.28099 -2.34374303,-275.77937 96.87436437,-275.77937 16.406146,0 97.655636,66.40559 203.123716,66.40559 35.93727,0 70.31206,-6.24984 103.90558,-17.96861 -2.34374,17.1876 -3.90621,34.37482 -3.90621,51.56214 0,71.0934 22.65609,141.40543 63.28085,199.99897 z M 1299.9964,1247.653 c 0,126.5616 -83.5932,202.3425 -208.5924,202.3425 H 408.59591 c -124.9992,0 -208.59242,-75.7809 -208.59242,-202.3425 0,-176.5614 41.406,-447.65327 270.31079,-447.65327 26.56232,0 123.43669,108.5931 279.68573,108.5931 156.24898,0 253.12339,-108.5931 279.68569,-108.5931 228.9048,0 270.3107,271.09187 270.3107,447.65327 z M 500.00158,250.0031 c 0,110.15568 -89.84317,199.99898 -199.99872,199.99898 -110.15554,0 -199.99874,-89.8433 -199.99874,-199.99898 0,-110.15539 89.8432,-199.9986 199.99874,-199.9986 110.15555,0 199.99872,89.84321 199.99872,199.9986 z m 549.99652,299.9981 c 0,165.62406 -134.37412,299.99809 -299.99809,299.99809 -165.62397,0 -299.9981,-134.37403 -299.9981,-299.99809 0,-165.6237 134.37413,-299.9981 299.9981,-299.9981 165.62397,0 299.99809,134.3744 299.99809,299.9981 z m 449.9971,175.78025 c 0,86.71805 -73.4371,124.21784 -151.5615,124.21784 h -104.6869 c -52.3434,-62.49943 -125.7805,-97.65553 -207.0298,-99.99912 40.6247,-58.59354 63.2807,-128.90557 63.2807,-199.99897 0,-17.18732 -1.5625,-34.37454 -3.9062,-51.56214 33.5935,11.71877 67.9683,17.96861 103.9056,17.96861 105.4681,0 186.7176,-66.40559 203.1237,-66.40559 99.2181,0 96.8744,212.49838 96.8744,275.77937 z M 1399.9958,250.0031 c 0,110.15568 -89.8432,199.99898 -199.9987,199.99898 -110.1556,0 -199.99865,-89.8433 -199.99865,-199.99898 0,-110.15539 89.84305,-199.9986 199.99865,-199.9986 110.1555,0 199.9987,89.84321 199.9987,199.9986 z"
       id="path75730"
       style="fill:#ffffff;stroke-width:0.781244" /></g></svg>
