<?xml version="1.0" encoding="UTF-8"?>
<!-- Created with Inkscape (http://www.inkscape.org/) -->
<svg id="svg5" width="1500mm" height="1500mm" version="1.1" viewBox="0 0 1500 1500" xml:space="preserve" xmlns="http://www.w3.org/2000/svg"><g id="layer1"><rect id="rect231" x="-1.4211e-14" y="-5.6843e-14" width="1500" height="1500" stroke-width=".26458"/><circle id="path3713" cx="840.45" cy="1221.3" r="0" fill="none" stroke="#000" stroke-width="110.65"/><path id="path75402" d="m1375 1241.2c0 142.58-93.75 258.79-208.01 258.79h-833.98c-114.26 0-208.01-116.21-208.01-258.79 0-256.84 63.477-553.71 319.34-553.71 79.102 77.148 186.52 125 305.66 125 119.14 0 226.56-47.852 305.66-125 255.86 0 319.34 296.88 319.34 553.71zm-250-866.21c0 207.03-167.97 375-375 375-207.03 0-375-167.97-375-375 0-207.03 167.97-375 375-375 207.03 0 375 167.97 375 375z" fill="#fff" stroke-width=".97656"/></g></svg>
