<?xml version="1.0" encoding="UTF-8"?>
<!-- Created with Inkscape (http://www.inkscape.org/) -->
<svg id="svg5" width="1500mm" height="1500mm" version="1.1" viewBox="0 0 1500 1500" xml:space="preserve" xmlns="http://www.w3.org/2000/svg"><g id="layer1"><circle id="path3713" cx="840.45" cy="1221.3" r="0" fill="none" stroke="#000" stroke-width="110.65"/><path id="path75730" d="m463.28 750c-81.249 2.3436-154.69 37.5-207.03 99.999h-104.69c-78.124 0-151.56-37.5-151.56-124.22 0-63.281-2.3437-275.78 96.874-275.78 16.406 0 97.656 66.406 203.12 66.406 35.937 0 70.312-6.2498 103.91-17.969-2.3437 17.188-3.9062 34.375-3.9062 51.562 0 71.093 22.656 141.41 63.281 200zm836.71 497.65c0 126.56-83.593 202.34-208.59 202.34h-682.81c-125 0-208.59-75.781-208.59-202.34 0-176.56 41.406-447.65 270.31-447.65 26.562 0 123.44 108.59 279.69 108.59 156.25 0 253.12-108.59 279.69-108.59 228.9 0 270.31 271.09 270.31 447.65zm-799.99-997.65c0 110.16-89.843 200-200 200-110.16 0-200-89.843-200-200 0-110.16 89.843-200 200-200 110.16 0 200 89.843 200 200zm550 300c0 165.62-134.37 300-300 300s-300-134.37-300-300c0-165.62 134.37-300 300-300s300 134.37 300 300zm450 175.78c0 86.718-73.437 124.22-151.56 124.22h-104.69c-52.343-62.499-125.78-97.656-207.03-99.999 40.625-58.594 63.281-128.91 63.281-200 0-17.187-1.5625-34.375-3.9062-51.562 33.594 11.719 67.968 17.969 103.91 17.969 105.47 0 186.72-66.406 203.12-66.406 99.218 0 96.874 212.5 96.874 275.78zm-99.999-475.78c0 110.16-89.843 200-200 200-110.16 0-200-89.843-200-200 0-110.16 89.843-200 200-200 110.16 0 200 89.843 200 200z" fill="#fff" stroke-width=".78124"/></g></svg>
