<?xml version="1.0" encoding="UTF-8" standalone="no"?>
<svg
   id="Layer_1"
   data-name="Layer 1"
   viewBox="0 0 3756.09 3756.49"
   version="1.1"
   sodipodi:docname="monero-xmr-logo.svg"
   inkscape:version="1.2.1 (9c6d41e410, 2022-07-14)"
   xmlns:inkscape="http://www.inkscape.org/namespaces/inkscape"
   xmlns:sodipodi="http://sodipodi.sourceforge.net/DTD/sodipodi-0.dtd"
   xmlns="http://www.w3.org/2000/svg"
   xmlns:svg="http://www.w3.org/2000/svg"
   xmlns:rdf="http://www.w3.org/1999/02/22-rdf-syntax-ns#"
   xmlns:cc="http://creativecommons.org/ns#"
   xmlns:dc="http://purl.org/dc/elements/1.1/">
  <defs
     id="defs11" />
  <sodipodi:namedview
     id="namedview9"
     pagecolor="#ffffff"
     bordercolor="#000000"
     borderopacity="0.25"
     inkscape:showpageshadow="2"
     inkscape:pageopacity="0.0"
     inkscape:pagecheckerboard="0"
     inkscape:deskcolor="#d1d1d1"
     showgrid="false"
     inkscape:zoom="0.20817306"
     inkscape:cx="1880.6468"
     inkscape:cy="1878.245"
     inkscape:window-width="1920"
     inkscape:window-height="1011"
     inkscape:window-x="0"
     inkscape:window-y="0"
     inkscape:window-maximized="1"
     inkscape:current-layer="Layer_1" />
  <title
     id="title2">monero</title>
  <path
     d="m 3759.2487,1880.2367 c 0,1037.19 -840.74,1878.05 -1878,1878.05 -1037.25998,0 -1877.9999814,-840.86 -1877.9999814,-1878.05 C 3.2487186,843.04667 844.00872,2.1766746 1881.2487,2.1766746 c 1037.24,0 1878,840.7899954 1878,1878.0600254 z"
     style="fill:#000000"
     id="path4" />
  <path
     id="_149931032"
     data-name=" 149931032"
     d="M2250,371.75c-1036.89,0-1879.12,842.06-1877.8,1878,0.26,207.26,33.31,406.63,95.34,593.12h561.88V1263L2250,2483.57,3470.52,1263v1579.9h562c62.12-186.48,95-385.85,95.37-593.12C4129.66,1212.76,3287,372,2250,372Z"
     style="fill:#ffffff"
     transform="translate(-371.96 -371.75)" />
  <path
     id="_149931160"
     data-name=" 149931160"
     d="M1969.3,2764.17l-532.67-532.7v994.14H1029.38l-384.29.07c329.63,540.8,925.35,902.56,1604.91,902.56S3525.31,3766.4,3855,3225.6H3063.25V2231.47l-532.7,532.7-280.61,280.61-280.62-280.61h0Z"
     transform="translate(-371.96 -371.75)"
     style="fill:#ffffff" />
  <metadata
     id="metadata198">
    <rdf:RDF>
      <cc:Work
         rdf:about="">
        <dc:title>monero</dc:title>
      </cc:Work>
    </rdf:RDF>
  </metadata>
</svg>
