<?xml version="1.0" encoding="UTF-8"?>
<!-- Created with Inkscape (http://www.inkscape.org/) -->
<svg id="svg5" width="210mm" height="39.915mm" version="1.1" viewBox="0 0 210 39.915" xmlns="http://www.w3.org/2000/svg">
 <g id="layer1">
  <g id="text236" transform="scale(1.0003)" fill="#fff" stroke-width=".30847" aria-label="Plus St">
   <path id="path439" d="m23.551 24.76h-16.238v14.453h-7.3129v-38.58h23.551q5.0672 0 8.5797 3.5701 3.5701 3.5125 3.5701 8.4645 0 4.8369-3.5701 8.4645-3.5125 3.6276-8.5797 3.6276zm4.8369-12.092q0-1.9002-1.4395-3.2822-1.382-1.4395-3.3973-1.4395h-16.238v9.501h16.238q2.0154 0 3.3973-1.382 1.4395-1.4395 1.4395-3.3973z"/>
   <path id="path441" d="m51.996 39.213h-7.3129v-35.585l7.3129-3.6276z"/>
   <path id="path443" d="m60.518 11.056h7.3129v15.547q0 2.7063 1.9002 4.6641 1.9578 1.9578 5.1248 1.9578 2.7639 0.05758 4.8369-1.785 2.1305-1.9002 2.1881-5.0672v-15.317h7.3129v28.157h-7.3129v-2.3033q-3.0518 2.8215-7.9463 2.8215-6.2188-0.11516-9.8465-4.2035-3.5701-4.0883-3.5701-8.9251z"/>
   <path id="path445" d="m124.32 30.921q-0.0576 4.3762-3.6276 6.6219-3.5125 2.1881-10.768 2.1881-7.8311 0-14.511-3.3973l2.9367-5.8157q5.5854 2.7639 11.574 2.8791 5.0096-0.11516 6.1036-0.6334 1.1516-0.51824 1.2092-1.785-0.11517-1.2668-1.3244-1.785-1.1516-0.57582-5.8733-1.094-6.1612-0.57582-9.7313-2.7639-3.5125-2.1881-3.4549-5.9885-0.11516-3.6852 3.3973-6.2188 3.5701-2.5912 9.6737-2.5912 6.6795 0 12.956 3.2246l-2.8215 5.5854q-4.2034-2.1881-10.134-2.3608-4.4338 0.23033-5.3551 0.69098-0.9213 0.46065-0.9213 1.4395-0.0576 0.92131 0.97888 1.382 1.0365 0.40307 5.4703 0.86372 7.3704 0.6334 10.768 2.9367 3.3973 2.2457 3.4549 6.6219z"/>
   <path id="path447" d="m185.3 27.697q-0.0576 5.643-4.4914 8.9251-4.3762 3.2822-12.438 3.2822-11.113 0-19.175-5.8157l4.2035-5.9885q6.3916 4.3762 14.741 4.4338 5.1248-0.17274 7.5432-1.4395 2.476-1.2668 2.5336-3.4549 0.17274-2.1305-2.4184-3.4549-2.5912-1.382-8.119-1.9578-9.7313-1.0365-13.013-3.9155-3.2822-2.9367-3.2246-7.5432 0.11516-4.952 4.7217-7.7735 4.6065-2.8791 11.286-2.9942 7.8311 0 15.432 4.5489l-4.0307 5.8733q-5.1248-2.9942-11.919-2.9942-2.9367-0.057582-5.5854 0.69098-2.5912 0.74856-2.476 2.6488-0.11516 1.7274 2.2457 2.7639 2.3608 0.97889 8.0614 1.5547 8.9827 0.80614 12.553 4.5489t3.5701 8.0614z"/>
   <path id="path449" d="m209.94 31.324-2.3608 7.8311q-1.9002 0.74856-3.6852 0.74856-3.3397 0-5.4127-2.5912-2.0154-2.5912-2.0154-6.1036v-13.532h-4.6065v-6.4491h4.6065v-7.6008l7.3129-3.6276v11.228h6.2188v6.5643h-6.2188v12.035q0.0576 1.4395 0.69098 2.3033 0.69098 0.80614 1.8426 0.80614 1.8426-0.11516 3.6276-1.6123z"/>
  </g>
 </g>
</svg>
