<?xml version="1.0" encoding="UTF-8"?>
<!-- Created with Inkscape (http://www.inkscape.org/) -->
<svg id="svg5" width="210mm" height="297mm" version="1.1" viewBox="0 0 210 297" xmlns="http://www.w3.org/2000/svg">
 <g id="layer1">
  <g id="g142034" transform="translate(-14.028 1.0583)" stroke-width=".26458">
   <path id="rect141854" x="118.93089" y="25.101913" width="7.603343" height="261.6738" d="m118.93 25.1 7.6034 2.4v256.88l-7.6034 2.3957z" fill="#333"/>
   <path id="rect141856" x="111.52256" y="25.101913" width="7.603343" height="261.6738" d="m111.52 27.5 7.6033-2.4v261.68l-7.6033-2.3957z" fill="#4d4d4d"/>
  </g>
  <g id="g136734">
   <g id="g136484"></g>
  </g>
  <g id="g136494">
   <g id="g136717">
    <g id="g28610" transform="translate(0 -72.254)">
     <path id="rect28377" d="m8.932 121.78 185.71-20.564c4.8255-0.53434 8.7972 1.8535 8.7972 5.3659v86.13c0 3.5124-3.9717 5.8034-8.7972 5.1514l-185.71-25.091c-1.3186-0.17815-2.368-1.7625-2.368-3.5544v-43.941c0-1.7919 1.0494-3.3507 2.368-3.4967z" color="#000000" fill="#f2f2f2" stroke-width=".29145" style="-inkscape-stroke:none"/>
     <path id="rect28233" d="m9.7073 123.41 182.18-18.676c3.6264-0.37175 6.5951 1.4587 6.5951 4.1104v81.495c0 2.6517-2.9687 4.4098-6.5951 3.9496l-182.18-23.118c-1.017-0.12905-1.8285-1.3418-1.8285-2.7203v-42.365c0-1.3785 0.81152-2.5715 1.8285-2.6757z" color="#000000" fill="#008000" stroke-width=".27903" style="-inkscape-stroke:none"/>
    </g>
    <g id="text29993" fill="#ececec" stroke-width=".36453" aria-label="Plus">
     <path id="path136560" d="m15.578 59.661 6.6802-0.40052c3.5487-0.21276 6.1841 0.45212 7.8378 2.0167 1.6533 1.5886 2.489 4.2731 2.489 8.0361 0 3.7782-0.83567 6.4856-2.489 8.1046-1.6537 1.6102-4.2891 2.3476-7.8378 2.2326l-1.8553-0.06014v12.101l-4.825-0.42314zm6.8675 14.577c1.6709 0.01318 2.8533-0.33897 3.5313-1.0599 0.6821-0.72528 1.0247-1.989 1.0247-3.7879s-0.34261-3.0532-1.0247-3.7597c-0.67798-0.70223-1.8604-1.0218-3.5313-0.96262l-2.0425 0.07236v9.4816z" color="#000000" style="-inkscape-stroke:none"/>
     <path id="path136562" d="m50.023 94.486c-2.9678-0.26262-5.0544-1.314-6.3031-3.1447-1.236-1.7961-1.8492-4.6841-1.8492-8.6775v-20.728l-5.8437 0.25674v-5.2183l11.901-0.78769v26.734c0 2.1283 0.29001 3.6639 0.87208 4.6101 0.57053 0.93347 1.5681 1.4489 3.0031 1.544l5.2237 0.34601v5.6856z" color="#000000" style="-inkscape-stroke:none"/>
     <path id="path136564" d="m71.729 96.968c-1.2684-0.11487-2.4081-0.43881-3.4224-0.96958-0.99014-0.52534-1.8342-1.3058-2.5348-2.3402-1.3259-1.9437-1.9838-4.7067-1.9838-8.3034v-18.909l7.2293-0.16675v18.231c0 2.15 0.28764 3.7038 0.86477 4.6643 0.2895 0.48182 0.67361 0.85464 1.1531 1.1184 0.49844 0.26582 1.0679 0.42045 1.7092 0.46331 0.66177 0.04423 1.2741-0.05964 1.8364-0.31252 0.56459-0.25392 1.0605-0.71364 1.487-1.3799 0.78534-1.2512 1.1797-3.0239 1.1797-5.3129v-17.661l8.1198-0.1873v31.662l-7.3368-0.64343-0.78304-4.6282c-0.57322 1.6586-1.5086 2.8974-2.7987 3.7159-1.313 0.80776-2.8893 1.125-4.7197 0.95925z" color="#000000" style="-inkscape-stroke:none"/>
     <path id="path136566" d="m111.76 100.59c-1.1382-0.10308-2.3122-0.26016-3.521-0.47056-1.1777-0.18666-2.3141-0.40914-3.4099-0.6671-1.088-0.25612-2.2104-0.57366-3.3663-0.95183-1.1263-0.37349-2.2546-0.77451-3.3846-1.2027v-7.5083c2.0194 1.2202 4.0876 2.181 6.2059 2.8772 1.0919 0.35324 2.1484 0.64575 3.1687 0.87679 1.0491 0.21387 2.1386 0.36043 3.2691 0.43901 2.2185 0.15419 3.9547-0.03485 5.192-0.57195 0.59922-0.27166 1.0501-0.61647 1.3515-1.0343 0.32515-0.43799 0.48798-1.0222 0.48798-1.752 0-0.47956-0.0931-0.92248-0.27903-1.3284-0.16254-0.40424-0.52186-0.80766-1.0766-1.2095-0.5528-0.40042-1.3212-0.78901-2.302-1.1651-0.95207-0.37269-2.1901-0.74574-3.7072-1.1181l-2.6741-0.66033c-3.6222-0.90774-6.2098-2.185-7.8138-3.8345-1.5869-1.6515-2.3741-3.7685-2.3741-6.3643 0-3.2007 1.1977-5.6924 3.6224-7.4968 2.4646-1.8341 6.0101-2.8217 10.712-2.9427 1.0796-0.02779 2.1895-0.01514 3.3302 0.03838 1.1491 0.05391 2.202 0.14205 3.1569 0.26468 0.96069 0.12337 2.0337 0.30808 3.2211 0.55493 1.1964 0.22752 2.3049 0.49063 3.3238 0.78946v8.1872c-0.99469-0.55832-2.0193-1.0497-3.0733-1.4747-1.0234-0.44326-2.0048-0.78931-2.9451-1.0392-0.93477-0.24839-1.9335-0.44307-2.995-0.58442-1.0315-0.14051-2.1017-0.20781-3.2096-0.20264-1.0106 0.0047-1.9145 0.0803-2.7136 0.2262-0.79498 0.12487-1.4762 0.33981-2.0453 0.64448-0.56697 0.28337-0.99082 0.64624-1.2727 1.0888-0.25977 0.42167-0.38949 0.8633-0.38949 1.3254 0 0.90412 0.55206 1.684 1.6622 2.3432 1.1182 0.66404 2.9223 1.2838 5.4363 1.8628l0.37382 0.09986 2.8845 0.67994c1.8359 0.43674 3.457 0.9884 4.8563 1.6555 1.4117 0.67302 2.5815 1.4825 3.5041 2.428 0.92783 0.95091 1.6149 2.0691 2.0581 3.353 0.44445 1.2659 0.66713 2.6421 0.66713 4.126 0 3.7204-1.3929 6.3991-4.1433 8.0153-1.3698 0.81798-3.0716 1.357-5.0948 1.6198-1.9746 0.28232-4.2095 0.30834-6.6931 0.0834z" color="#000000" style="-inkscape-stroke:none"/>
    </g>
    <g id="text127089" fill="#f2f2f2" stroke-width=".14699" aria-label="St">
     <path id="path136569" d="m152.4 66.906c-0.82155 0.01309-1.6189-0.0073-2.3922-0.06095-0.76997-0.05341-1.5366-0.15041-2.2998-0.29072-1.5164-0.2679-2.9408-0.67045-4.2752-1.2063v-4.9404c0.80991 0.44763 1.5776 0.82295 2.3026 1.1253 0.72799 0.30365 1.4724 0.55905 2.2334 0.76593 1.4916 0.40665 2.9553 0.59169 4.3901 0.55225 0.78388-0.02155 1.4675-0.1071 2.0496-0.25695 0.58401-0.16151 1.0861-0.38822 1.5057-0.68024 0.84205-0.57489 1.2646-1.3632 1.2646-2.3629 0-0.76383-0.2818-1.4152-0.84406-1.9528-0.29446-0.27875-0.65138-0.51515-1.0704-0.70919-0.40408-0.20536-0.85583-0.37462-1.3549-0.50783l-2.9854-0.7739c-1.5581-0.40808-2.8281-0.82655-3.8161-1.2563-0.98243-0.43819-1.7288-0.89208-2.2421-1.3625-1.0351-0.93583-1.5503-2.2598-1.5503-3.9762 0-2.2022 0.84862-3.992 2.5586-5.3798 1.7404-1.4138 4.1337-2.2616 7.2066-2.536 0.74559-0.06659 1.4874-0.09939 2.2254-0.09819 0.74106 0.0012 1.443 0.03421 2.1054 0.09918 0.66486 0.06522 1.3678 0.16706 2.1092 0.30577 0.75883 0.12672 1.5137 0.29434 2.2645 0.5031v4.9154c-1.355-0.66292-2.7354-1.1375-4.1406-1.4258-1.3942-0.28603-2.7566-0.37616-4.0879-0.27265-1.4721 0.11446-2.5851 0.43828-3.3457 0.97046-0.77087 0.54185-1.155 1.24-1.155 2.0961 0 0.6915 0.28297 1.238 0.85031 1.6405 0.27082 0.20262 0.67105 0.40283 1.2016 0.60086 0.54581 0.19778 1.3265 0.42055 2.3453 0.66894l2.6501 0.64521c2.5552 0.61748 4.4491 1.4972 5.6603 2.6383 1.2339 1.1824 1.854 2.7601 1.854 4.7271 0 2.5274-0.97665 4.4499-2.9142 5.7571-1.9311 1.3047-4.7122 1.9809-8.3032 2.0381z" color="#000000" style="-inkscape-stroke:none"/>
     <path id="path136571" d="m185.72 65.92c-4.1184 0.07048-6.8444-0.36554-8.2362-1.3017-1.3972-0.91712-2.0918-2.6602-2.0918-5.2343v-9.2102l-6.5672 0.39208v-3.9152l6.5672-0.46208v-5.4198l6.9761-2.9375v7.8665l9.5213-0.66993v4.161l-9.5213 0.56844v9.6346c0 0.89009 0.29936 1.5245 0.89949 1.9041 0.32518 0.20766 0.73244 0.35299 1.2223 0.43586 0.50752 0.07051 1.0904 0.09671 1.7492 0.07842l5.6503-0.15692v4.161l-6.1693 0.10558z" color="#000000" style="-inkscape-stroke:none"/>
    </g>
   </g>
  </g>
 </g>
</svg>
